<svg width="973" height="594" viewBox="0 0 973 594" fill="none" xmlns="http://www.w3.org/2000/svg">
<g clip-path="url(#clip0)">
<path d="M319.771 238.453C329.051 238.453 336.574 230.93 336.574 221.65C336.574 212.369 329.051 204.846 319.771 204.846C310.49 204.846 302.967 212.369 302.967 221.65C302.967 230.93 310.49 238.453 319.771 238.453Z" fill="#F2F2F2"/>
<path d="M377.572 371.192C377.572 371.192 351.437 334.996 393.05 292.903L377.572 371.192Z" fill="#F2F2F2"/>
<path d="M357.318 375.365C357.318 375.365 339.456 334.449 282.046 348.854L357.318 375.365Z" fill="#F2F2F2"/>
<path d="M697.387 511.705C697.387 511.705 702.727 445.11 790.978 437.524L697.387 511.705Z" fill="#F2F2F2"/>
<path d="M670.262 496.81C670.262 496.81 689.607 432.862 610.22 393.576L670.262 496.81Z" fill="#F2F2F2"/>
<path d="M121.421 440.376C113.038 471.361 84.3276 490.552 84.3276 490.552C84.3276 490.552 69.207 459.504 77.5892 428.518C85.9713 397.533 114.682 378.343 114.682 378.343C114.682 378.343 129.803 409.39 121.421 440.376Z" fill="#F59B66"/>
<path d="M45.1661 440.376C53.5483 471.361 82.2592 490.552 82.2592 490.552C82.2592 490.552 97.3798 459.504 88.9976 428.518C80.6155 397.533 51.9046 378.343 51.9046 378.343C51.9046 378.343 36.7839 409.39 45.1661 440.376Z" fill="#F59B66"/>
<path d="M57.4832 433.716C80.484 456.107 83.2934 490.526 83.2934 490.526C83.2934 490.526 48.811 488.643 25.8102 466.253C2.80938 443.863 0 409.443 0 409.443C0 409.443 34.4823 411.326 57.4832 433.716Z" fill="#3F3D56"/>
<path d="M109.104 433.716C86.1027 456.107 83.2933 490.526 83.2933 490.526C83.2933 490.526 117.776 488.643 140.776 466.253C163.777 443.863 166.587 409.443 166.587 409.443C166.587 409.443 132.104 411.326 109.104 433.716Z" fill="#3F3D56"/>
<path d="M972.005 557.13H8.49573V559.37H972.005V557.13Z" fill="#2F2E41"/>
<path d="M517.05 213C517.05 213 507.05 203 484.05 205C484.05 205 262.05 182 257.05 223C252.05 264 251.05 288 264.05 297C264.05 297 306.55 335.5 284.55 369.5L272.55 389.5L743.55 385.5C743.55 385.5 748.55 312.5 763.55 298.5C778.55 284.5 783.55 210.5 763.55 208.5C743.55 206.5 511.55 195.5 517.05 213Z" fill="#3F3D56"/>
<path d="M268.55 294.5C268.55 294.5 127.55 327.5 183.55 389.5L192.55 398.5L188.55 536.5H838.55L845.55 401.5L853.55 385.5C853.55 385.5 903.369 325.75 759.46 304.125L733.55 369.5L295.55 366.5C295.55 366.5 292.55 292.5 268.55 294.5Z" fill="#3F3D56"/>
<path d="M241.55 527.5H200.55V558.5H241.55V527.5Z" fill="#3F3D56"/>
<path d="M831.55 527.5H790.55V558.5H831.55V527.5Z" fill="#3F3D56"/>
<path d="M509.444 370C509.444 370 411.55 300.5 289.55 370.5L253.55 422.5L260.55 465.5C260.55 465.5 513.55 469.5 516.55 442.5C519.55 415.5 509.444 370 509.444 370Z" fill="#3F3D56"/>
<path d="M738.55 370.5C738.55 370.5 566.798 315.5 515.174 370.5L521.55 449.5C521.55 449.5 772.55 468.5 776.55 455.5C780.55 442.5 782.55 419.5 782.55 419.5L738.55 370.5Z" fill="#3F3D56"/>
<path opacity="0.1" d="M738.55 370.5C738.55 370.5 566.798 315.5 515.174 370.5L515.316 372.262C515.147 371.445 515.05 371 515.05 371C515.05 371 411.55 300.5 289.55 370.5L253.55 422.5L260.55 465.5C260.55 465.5 505.534 470.711 521.274 446.075L521.55 449.5C521.55 449.5 772.55 468.5 776.55 455.5C780.55 442.5 782.55 419.5 782.55 419.5L738.55 370.5Z" fill="black"/>
<path d="M272.55 232.5C321.153 231.466 367.229 225.298 409.55 211.5C410.58 260.181 417.579 305.709 433.55 346.5C386.236 337.902 338.215 346.41 289.55 370.5C298.291 326.494 290.734 280.232 272.55 232.5Z" fill="#2524E9"/>
<path d="M769.55 240.5C720.947 239.466 674.871 233.298 632.55 219.5C631.521 268.181 624.522 313.709 608.55 354.5C655.865 345.902 703.886 354.41 752.55 378.5C743.81 334.494 751.366 288.232 769.55 240.5Z" fill="#2524E9"/>
<path d="M457.422 227.725C460.253 225.71 463.378 224.143 466.686 223.079C487.659 215.275 509.635 210.492 531.954 208.871C551.362 207.495 572.396 209.13 587.554 221.327C589.912 223.057 591.841 225.305 593.194 227.897C595.101 232.013 594.523 236.796 593.905 241.29C593.767 243.032 593.328 244.738 592.607 246.331C590.567 250.215 585.545 251.575 581.183 251.11C576.821 250.644 572.728 248.798 568.425 247.943C565.762 247.478 563.07 247.204 560.368 247.122L533.383 245.661C516.603 244.753 499.602 243.859 483.142 247.246C478.075 248.157 473.179 249.844 468.626 252.248C464.867 254.359 462.335 257.387 458.847 253.489C452.719 246.64 449.326 234.051 457.422 227.725Z" fill="#2F2E41"/>
<path d="M499.238 239.658C499.238 239.658 535.533 223.387 549.3 242.161C563.067 260.934 541.791 253.425 541.791 253.425L518.011 260.934L491.728 255.928L499.238 239.658Z" fill="#F2F2F2"/>
<path d="M501.115 227.768C501.115 227.768 506.121 251.548 502.367 257.805C498.612 264.063 523.643 272.824 523.643 272.824L547.423 262.812C547.423 262.812 541.165 224.013 547.423 216.504L501.115 227.768Z" fill="#FFB9B9"/>
<path opacity="0.1" d="M501.115 227.768C501.115 227.768 506.121 251.548 502.367 257.805C498.612 264.063 523.643 272.824 523.643 272.824L547.423 262.812C547.423 262.812 541.165 224.013 547.423 216.504L501.115 227.768Z" fill="black"/>
<path d="M477.663 513.703C481.244 520.568 483.565 528.005 485.933 535.377C485.969 535.623 486.055 535.859 486.188 536.069C486.32 536.279 486.496 536.458 486.702 536.596C486.909 536.734 487.143 536.826 487.388 536.867C487.633 536.908 487.884 536.897 488.124 536.834L510.386 536.809C513.133 536.806 516.819 535.924 516.791 533.176C516.771 531.246 514.798 530.043 513.329 528.79C509.254 525.313 508.193 519.579 506.505 514.495C503.225 504.7 496.903 496.209 488.46 490.258C487.318 489.365 486.005 488.716 484.602 488.352C483.191 488.147 481.753 488.225 480.373 488.581C476.465 489.369 461.872 492.067 464.628 497.751C465.815 500.199 470.214 502.747 472.059 505.033C474.208 507.731 476.085 510.635 477.663 513.703V513.703Z" fill="#575A89"/>
<path d="M555.076 487.883C554.291 489.533 553.418 491.139 552.459 492.694C549.234 498.014 545.428 502.975 542.425 508.423C540.551 511.821 538.974 515.493 538.767 519.368C538.56 523.243 539.925 527.367 543.016 529.712C546.247 532.164 550.678 532.278 554.694 531.707C558.711 531.135 562.704 529.984 566.749 530.287C565.385 522.569 571.895 515.776 573.523 508.109C573.98 505.956 574.048 503.723 574.661 501.609C575.32 499.675 576.164 497.809 577.18 496.037C580.422 489.725 582.713 482.968 583.979 475.985C584.132 475.139 564.19 475 562.319 475.405C556.482 476.667 557.336 483.042 555.076 487.883Z" fill="#575A89"/>
<path d="M401.371 366.627C395.678 375.536 396.99 387.342 400.988 397.13C404.987 406.917 411.35 415.569 415.706 425.203C418.483 431.345 420.43 437.857 423.557 443.828C427.429 451.222 433.082 457.739 435.68 465.671C437.337 470.727 437.717 476.269 440.4 480.863C442.021 483.319 443.872 485.615 445.927 487.721C451.706 494.341 456.045 502.091 458.668 510.478C461.12 503.174 468.463 498.384 476.004 496.804C483.546 495.225 491.36 496.298 498.989 497.376C494.733 490.782 490.436 484.105 487.899 476.679C485.446 469.497 484.722 461.856 483.069 454.449C479.68 439.258 472.439 425.247 465.272 411.432L502.114 408.51C508.127 407.905 514.173 407.681 520.214 407.838C529.724 408.287 539.04 410.618 548.499 411.695C557.957 412.772 567.963 412.49 576.393 408.066C560.274 431.193 551.88 458.824 552.409 487.009C556.012 484.218 560.193 482.267 564.647 481.301C569.101 480.334 573.714 480.376 578.15 481.422C582.585 482.469 586.731 484.495 590.282 487.35C593.834 490.206 596.702 493.82 598.676 497.928C613.115 478.198 611.398 450.73 622.839 429.124C625.191 424.681 628.074 420.542 630.613 416.203C635.635 407.622 639.277 398.317 642.898 389.057C646.098 380.871 649.322 371.764 646.252 363.528C644.978 360.404 643.122 357.55 640.783 355.118C634.182 347.84 624.994 342.457 615.172 342.233C600.093 341.888 587.636 353.066 574.409 360.313C558.829 368.85 540.652 372.244 522.931 370.989C504.762 369.702 487.409 363.755 470.099 358.517C461.44 355.775 452.638 353.505 443.732 351.716C436.309 350.323 429.239 351.866 421.924 353.764C413.959 355.831 405.955 359.454 401.371 366.627Z" fill="#2F2E41"/>
<path d="M558.687 203.988C558.679 213.944 554.72 223.489 547.681 230.529C540.641 237.568 531.096 241.527 521.14 241.535C518.903 241.539 516.67 241.338 514.469 240.934C507.442 239.665 500.923 236.419 495.676 231.576C490.429 226.733 486.672 220.494 484.845 213.591C483.019 206.688 483.199 199.408 485.363 192.603C487.528 185.799 491.589 179.753 497.068 175.175C502.547 170.597 509.219 167.676 516.3 166.755C523.38 165.834 530.577 166.951 537.045 169.976C543.513 173 548.985 177.807 552.818 183.831C556.651 189.855 558.687 196.848 558.687 203.988V203.988Z" fill="#FFB9B9"/>
<path d="M499.238 239.658C499.238 239.658 506.121 242.787 508.624 245.29C511.127 247.793 518.637 261.56 531.152 252.799C543.668 244.038 544.92 239.032 548.674 239.032C552.429 239.032 557.435 246.541 557.435 246.541L591.853 349.795C582.577 360.266 571.826 369.33 559.938 376.704C539.913 389.219 516.134 395.477 504.87 390.471C493.606 385.465 472.329 381.71 468.574 371.698C464.82 361.685 458.562 331.648 458.562 331.648L476.084 255.302L499.238 239.658Z" fill="#F2F2F2"/>
<path d="M494.405 344.086C497.134 338.192 497.531 331.521 497.761 325.03C498.129 318.601 497.959 312.153 497.252 305.753C496.143 297.381 493.417 289.315 491.695 281.048C490.186 273.796 489.452 266.405 489.506 258.999C489.531 255.619 489.776 252.061 491.618 249.227C492.902 247.25 494.912 245.719 495.715 243.502C497.289 239.156 493.399 234.604 489.137 232.814C484.066 230.685 478.27 230.828 472.935 232.164C467.6 233.5 462.624 235.958 457.696 238.398C454.135 240.161 450.499 241.978 447.739 244.835C443.854 248.855 442.145 254.454 440.766 259.872C439.662 264.209 438.681 268.73 439.521 273.125C440.885 280.262 446.703 285.63 449.804 292.201C453.406 299.832 453.163 308.724 451.731 317.039C450.298 325.354 447.755 333.485 446.971 341.886C446.187 350.287 447.391 359.318 452.654 365.913C454.799 368.6 460.618 374.969 464.544 374.249C467.629 373.683 472.101 366.892 474.586 364.739C481.765 358.521 490.283 352.99 494.405 344.086Z" fill="#2F2E41"/>
<path d="M559.978 235.576C560.088 242.556 557.011 249.191 553.392 255.162C549.774 261.132 545.523 266.778 542.856 273.23C539.543 281.306 538.866 290.223 540.924 298.707C541.688 301.597 542.61 304.443 543.685 307.233L550.542 326.042C551.465 329 552.804 331.811 554.518 334.391C556.069 336.367 557.888 338.117 559.923 339.589C565.131 343.796 571.125 346.923 577.555 348.788C584.007 350.493 591.067 350.386 597.162 347.67C597.823 322.171 601.92 296.878 609.341 272.474C610.712 267.969 612.211 263.226 611.153 258.637C609.968 253.497 605.84 249.638 601.915 246.114C589.913 235.336 576.715 224.015 560.649 222.562C551.351 221.721 559.899 230.529 559.978 235.576Z" fill="#2F2E41"/>
<path d="M477.845 381.088C478.797 382.952 479.389 384.981 480.331 386.85C481.72 389.356 483.437 391.665 485.437 393.717C493.806 402.996 504.035 412.239 516.517 412.799C517.758 412.915 519.008 412.758 520.181 412.338C522.364 411.43 523.654 409.09 524.079 406.764C524.964 401.917 522.825 397.081 520.683 392.644C516.04 383.028 510.816 373.167 502.123 366.965C493.554 360.851 482.072 359.367 472.078 362.445C467.55 363.84 460.042 366.276 466.037 370.407C470.585 373.541 475.208 375.927 477.845 381.088Z" fill="#FFB9B9"/>
<path d="M485.353 532.543C481.622 537.614 482.37 544.862 479.065 550.22C476.2 554.864 470.801 557.299 467.217 561.415C466.074 562.782 465.054 564.249 464.171 565.797C460.847 571.365 458.145 578.501 461.419 584.099C464.052 588.603 469.588 590.363 474.665 591.562C481.083 593.078 487.75 594.292 494.241 593.133C500.732 591.975 507.076 588 509.391 581.825C509.846 580.273 510.386 578.747 511.011 577.254C514.529 570.328 525.564 570.253 529.165 563.369C531.685 558.552 529.369 552.729 527.053 547.81L519.982 532.786C517.635 527.8 508.121 530.667 503.162 529.473C496.693 527.914 490.007 526.198 485.353 532.543Z" fill="#2F2E41"/>
<path d="M540.052 519.637C537.051 521.74 535.111 525.04 533.653 528.402C530.153 536.476 528.951 545.328 527.784 554.051C527.317 557.545 526.852 561.122 527.582 564.571C529.09 571.694 535.545 576.94 542.493 579.118C549.441 581.296 556.893 580.961 564.166 580.604C566.502 580.489 568.93 580.349 570.978 579.22C574.633 577.205 576.061 572.467 575.435 568.341C574.808 564.215 572.554 560.543 570.347 557C568.14 553.458 565.884 549.788 565.252 545.662C564.189 538.723 567.189 528.536 562.925 522.257C558.653 515.965 545.754 515.64 540.052 519.637Z" fill="#2F2E41"/>
<path d="M557.742 184.421C557.075 182.175 555.603 180.255 553.609 179.025C553.712 176.62 553.417 174.214 552.736 171.905C550.462 165.183 545.076 165.568 539.993 162.596C537.788 161.307 537.925 160.167 536.777 158.049C535.272 155.273 533.02 152.974 530.274 151.414C527.013 149.337 523.571 147.197 519.714 146.935C511.608 146.382 505.392 154.007 497.645 156.454C494.23 157.532 490.56 157.577 487.127 158.596C483.694 159.616 480.269 162.051 479.757 165.595C479.521 167.232 479.937 168.91 479.698 170.546C479.222 173.798 476.369 176.075 474.459 178.749C470.236 184.663 470.719 193.018 474.097 199.453C474.808 200.785 475.622 202.059 476.532 203.264C476.813 206.305 477.687 209.262 479.103 211.969C482.48 218.404 488.291 223.212 494.362 227.207C493.864 225.073 493.563 222.898 493.461 220.709C493.375 219.979 493.47 219.24 493.737 218.556C494.413 217.143 496.2 216.767 497.562 215.993C500.383 214.39 501.489 210.842 501.571 207.598C501.652 204.355 500.965 201.106 501.305 197.879C501.318 197.137 501.487 196.406 501.8 195.733C502.113 195.06 502.564 194.46 503.123 193.972C504.164 193.378 505.353 193.095 506.55 193.155C512.331 192.919 518.37 192.813 523.468 190.079C525.208 189.147 526.824 187.914 528.734 187.416C533.067 186.286 537.495 189.323 539.992 193.04C542.489 196.756 543.734 201.179 546.038 205.019C548.342 208.859 552.322 212.283 556.777 211.828C557.028 211.828 557.276 211.776 557.505 211.674C557.734 211.572 557.94 211.423 558.107 211.236C558.299 210.891 558.385 210.496 558.352 210.103L558.601 193.075C558.808 190.162 558.518 187.236 557.742 184.421V184.421Z" fill="#2F2E41"/>
<path d="M438.918 273.489C435.336 278.774 431.205 283.855 429.236 289.929C428.078 293.499 427.719 297.272 426.881 300.93C424.09 313.114 416.027 323.936 415.217 336.41C414.933 339.181 415.34 341.98 416.401 344.556C418.714 349.587 424.25 352.239 429.53 353.907C434.81 355.575 440.481 356.776 444.696 360.368C446.817 362.402 448.742 364.633 450.442 367.03C457.318 375.582 466.569 381.912 477.031 385.222C476.205 379.528 475.817 372.663 480.37 369.143C482.834 367.238 486.126 366.899 489.23 366.63L503.894 365.363C494.116 355.878 483.337 347.482 471.748 340.321C467.693 337.816 463.28 335.174 461.428 330.782C460.271 328.036 460.287 324.961 460.259 321.981C460.158 311.075 459.235 300.192 457.497 289.425C456.29 281.949 454.691 274.539 452.863 267.19C452.35 265.127 449.316 255.873 445.582 258.038C444.703 258.548 443.88 264.418 443.366 265.637C442.144 268.393 440.654 271.023 438.918 273.489V273.489Z" fill="#2F2E41"/>
<path opacity="0.1" d="M459.211 289.532C459.377 298.374 457.498 307.133 453.723 315.13C452.741 316.897 452.017 318.796 451.574 320.768C450.917 324.976 453.312 329.05 456.049 332.312C461.448 338.729 468.451 343.601 476.345 346.432" fill="black"/>
<path d="M552.643 244.684L553.527 244.824C552.754 244.701 552.061 244.277 551.601 243.644C551.141 243.011 550.951 242.221 551.074 241.448L560.206 183.752C560.328 182.979 560.753 182.287 561.386 181.827C562.019 181.367 562.809 181.177 563.582 181.299L562.698 181.16C563.313 181.257 563.902 181.474 564.433 181.799C564.964 182.124 565.425 182.551 565.791 183.054C566.157 183.558 566.42 184.128 566.565 184.733C566.71 185.338 566.735 185.966 566.638 186.581L558.065 240.744C557.968 241.359 557.75 241.948 557.425 242.479C557.1 243.01 556.673 243.471 556.17 243.837C555.667 244.203 555.096 244.466 554.491 244.611C553.886 244.756 553.258 244.781 552.643 244.684V244.684Z" fill="#2F2E41"/>
<path d="M562.386 181.112L563.725 181.324L553.67 244.848L552.331 244.636C552.105 244.6 551.888 244.52 551.692 244.4C551.497 244.281 551.327 244.124 551.193 243.938C551.058 243.753 550.961 243.543 550.908 243.321C550.854 243.098 550.845 242.867 550.881 242.641L560.391 182.561C560.427 182.335 560.507 182.118 560.626 181.923C560.746 181.728 560.903 181.558 561.088 181.423C561.273 181.289 561.483 181.192 561.706 181.138C561.929 181.085 562.16 181.076 562.386 181.112V181.112Z" fill="#2524E9"/>
<path d="M562.562 189.526L562.305 189.486C562.213 189.471 562.127 189.534 562.113 189.625L561.345 194.475C561.331 194.566 561.393 194.652 561.485 194.667L561.742 194.707C561.834 194.722 561.919 194.659 561.934 194.568L562.702 189.718C562.716 189.627 562.654 189.541 562.562 189.526Z" fill="#464353"/>
<path d="M585.272 233.586C586.653 230.109 588.056 226.512 587.962 222.772C587.724 219.382 586.696 216.094 584.961 213.172C582.851 209.251 580.217 205.635 577.132 202.425C573.459 198.604 568.153 195.191 563.144 196.926C559.167 198.303 556.9 202.443 555.428 206.387C554.552 208.313 554.206 210.438 554.425 212.542C554.912 215.257 557.009 217.341 558.529 219.644C560.911 223.254 561.931 227.567 562.91 231.78L565.364 242.347L569.58 260.497C569.469 260.019 577.409 252.498 578.352 250.897C581.388 245.74 583.062 239.154 585.272 233.586Z" fill="#FFB9B9"/>
<path d="M607.817 253.516L613.806 265.971C616.691 271.092 618.004 276.949 617.581 282.812L617.937 320.172C617.984 325.164 618.022 330.232 616.708 335.048C616.335 336.656 615.631 338.169 614.643 339.49C613.627 340.63 612.43 341.594 611.101 342.343C599.767 349.425 585.071 353.45 573.096 347.516C570.354 346.054 567.746 344.352 565.304 342.429C560.532 338.895 555.689 335.292 552.119 330.547C548.382 325.58 565.564 306.684 563.05 301C558.547 290.817 561.04 266.667 554.05 258C553.033 256.739 562.278 257.875 562.241 256.255C562.167 252.98 570.021 248.246 573.05 247C578.226 244.872 584.184 240.528 585.05 235C596.056 249.432 565.153 293.039 582.52 298.312C582.792 298.486 583.106 298.583 583.429 298.593C583.752 298.603 584.072 298.526 584.354 298.369C584.637 298.212 584.872 297.981 585.034 297.702C585.196 297.422 585.28 297.104 585.276 296.781C586.261 292.656 586.61 288.409 587.331 284.23C588.654 276.62 591.201 269.275 594.873 262.48C596.93 258.67 603.59 244.725 607.817 253.516Z" fill="#2F2E41"/>
<path opacity="0.1" d="M589.251 282.081C588.369 284.454 589.17 287.078 589.85 289.517C591.821 296.59 592.74 303.914 592.58 311.255C592.609 311.383 592.605 311.517 592.569 311.643C592.533 311.77 592.466 311.885 592.374 311.979C592.283 312.074 592.169 312.143 592.043 312.182C591.917 312.221 591.784 312.229 591.655 312.203C588.766 312.38 585.459 312.399 583.499 310.269" fill="black"/>
<path d="M125.05 557H42.0503L27.6126 507.78C26.7327 504.781 26.5639 501.618 27.1196 498.542C27.6752 495.466 28.9399 492.562 30.8135 490.06C32.687 487.557 35.1179 485.526 37.9131 484.127C40.7084 482.728 43.7912 482 46.917 482H119.526C122.631 482 125.693 482.719 128.474 484.1C131.255 485.481 133.678 487.487 135.555 489.961C137.431 492.434 138.709 495.309 139.289 498.359C139.869 501.409 139.736 504.552 138.898 507.542L125.05 557Z" fill="#3F3D56"/>
</g>
<defs>
<clipPath id="clip0">
<rect width="972.005" height="593.594" fill="white"/>
</clipPath>
</defs>
</svg>
