<svg width="796" height="525" viewBox="0 0 796 525" fill="none" xmlns="http://www.w3.org/2000/svg">
<g clip-path="url(#clip0)">
<path d="M229.82 253.935C298.856 253.935 354.82 197.971 354.82 128.935C354.82 59.8995 298.856 3.93506 229.82 3.93506C160.784 3.93506 104.82 59.8995 104.82 128.935C104.82 197.971 160.784 253.935 229.82 253.935Z" fill="#2524E9"/>
<path d="M612.801 250.449V210.484H643.441C648.865 210.484 654.235 209.416 659.245 207.34C664.256 205.265 668.808 202.223 672.643 198.388C676.478 194.553 679.52 190.001 681.595 184.99C683.671 179.98 684.739 174.61 684.739 169.186V169.186H451.608C451.608 164.24 453.573 159.496 457.071 155.998C460.568 152.501 465.312 150.536 470.258 150.536H632.784V145.9C632.784 130.067 621.824 117.231 608.303 117.231H405.748C374.551 117.231 346.049 137.326 331.346 169.186H298.727C295.959 169.186 293.3 170.263 291.312 172.189L270.684 192.172C269.16 193.648 268.111 195.547 267.672 197.623C267.234 199.699 267.425 201.86 268.221 203.827C269.018 205.794 270.384 207.478 272.144 208.664C273.904 209.85 275.977 210.484 278.1 210.484H303.736V250.449H185.962C184.457 250.449 182.969 250.768 181.596 251.384C180.223 252.001 178.996 252.901 177.997 254.026L154.313 280.669C152.948 282.205 152.056 284.103 151.745 286.133C151.433 288.164 151.715 290.242 152.557 292.116C153.399 293.99 154.764 295.581 156.489 296.697C158.214 297.814 160.225 298.407 162.279 298.408H235.525C237.332 298.407 239.109 298.867 240.689 299.743C242.27 300.618 243.602 301.881 244.56 303.413L257.413 323.964C258.385 325.518 258.94 327.297 259.024 329.128C259.108 330.959 258.718 332.781 257.892 334.417C257.066 336.053 255.833 337.449 254.31 338.469C252.787 339.49 251.027 340.1 249.2 340.242L90.3357 352.531C88.4016 352.681 86.5451 353.355 84.9662 354.482C83.3873 355.609 82.146 357.146 81.3761 358.927L47.7353 436.72C47.0341 438.342 46.747 440.112 46.8998 441.872C47.0525 443.632 47.6404 445.326 48.6104 446.803C49.5805 448.279 50.9024 449.491 52.4571 450.33C54.0118 451.169 55.7507 451.608 57.5172 451.608H588.331C601.333 451.612 614.308 450.429 627.096 448.073C721.864 430.587 789.981 346.818 789.981 250.449V250.449H612.801ZM343.702 210.484H572.836V250.449H343.702V210.484ZM676.746 295.743C676.746 301.341 675.643 306.885 673.501 312.057C671.359 317.229 668.219 321.928 664.26 325.887C660.301 329.845 655.602 332.986 650.43 335.128C645.258 337.27 639.714 338.373 634.116 338.373H290.415V338.373C290.415 327.067 294.906 316.224 302.901 308.229C310.895 300.235 321.738 295.743 333.044 295.743H676.746V295.743Z" fill="#3F3D56"/>
<path d="M620.794 317.058H335.708C333.943 317.06 332.25 317.763 331.001 319.011C329.752 320.26 329.05 321.953 329.048 323.719V339.705H627.455V323.719C627.453 321.953 626.751 320.26 625.502 319.011C624.253 317.763 622.56 317.06 620.794 317.058V317.058ZM391.66 319.722H423.097V337.041H391.66V319.722ZM388.996 337.041H357.558V319.722H388.996V337.041ZM425.762 319.722H457.199V337.041H425.762V319.722ZM459.863 319.722H491.3V337.041H459.863V319.722ZM493.964 319.722H525.402V337.041H493.964V319.722ZM528.066 319.722H559.504V337.041H528.066V319.722ZM562.168 319.722H593.606V337.041H562.168V319.722ZM331.712 323.719C331.713 322.659 332.135 321.644 332.884 320.894C333.633 320.145 334.649 319.724 335.708 319.722H354.894V337.041H331.712V323.719ZM624.791 337.041H596.27V319.722H620.794C621.854 319.724 622.87 320.145 623.619 320.894C624.368 321.644 624.79 322.659 624.791 323.719V337.041Z" fill="#3F3D56"/>
<path d="M602.144 129.221H584.826V201.159H602.144V129.221Z" fill="#3F3D56"/>
<path d="M283.754 455.604H3.99652C2.93658 455.604 1.92004 455.183 1.17055 454.434C0.421053 453.684 0 452.668 0 451.608C0 450.548 0.421053 449.531 1.17055 448.782C1.92004 448.032 2.93658 447.611 3.99652 447.611H283.754C284.814 447.611 285.83 448.032 286.58 448.782C287.329 449.531 287.75 450.548 287.75 451.608C287.75 452.668 287.329 453.684 286.58 454.434C285.83 455.183 284.814 455.604 283.754 455.604V455.604Z" fill="#CCCCCC"/>
<path d="M159.861 479.584H43.9619C42.9019 479.584 41.8854 479.163 41.1359 478.413C40.3864 477.664 39.9653 476.647 39.9653 475.587C39.9653 474.527 40.3864 473.511 41.1359 472.761C41.8854 472.012 42.9019 471.591 43.9619 471.591H159.861C160.921 471.591 161.938 472.012 162.687 472.761C163.437 473.511 163.858 474.527 163.858 475.587C163.858 476.647 163.437 477.664 162.687 478.413C161.938 479.163 160.921 479.584 159.861 479.584V479.584Z" fill="#CCCCCC"/>
<path d="M671.417 455.604H391.66C390.6 455.604 389.584 455.183 388.834 454.434C388.085 453.684 387.664 452.668 387.664 451.608C387.664 450.548 388.085 449.531 388.834 448.782C389.584 448.032 390.6 447.611 391.66 447.611H671.417C672.477 447.611 673.494 448.032 674.243 448.782C674.993 449.531 675.414 450.548 675.414 451.608C675.414 452.668 674.993 453.684 674.243 454.434C673.494 455.183 672.477 455.604 671.417 455.604V455.604Z" fill="#CCCCCC"/>
<path d="M499.566 479.584H219.809C218.749 479.584 217.733 479.163 216.983 478.413C216.234 477.664 215.813 476.647 215.813 475.587C215.813 474.527 216.234 473.511 216.983 472.761C217.733 472.012 218.749 471.591 219.809 471.591H499.566C500.626 471.591 501.643 472.012 502.392 472.761C503.142 473.511 503.563 474.527 503.563 475.587C503.563 476.647 503.142 477.664 502.392 478.413C501.643 479.163 500.626 479.584 499.566 479.584V479.584Z" fill="#CCCCCC"/>
<path d="M283.754 500.898H3.99657C2.93772 500.897 1.92281 500.475 1.17468 499.726C0.426553 498.976 0.00634766 497.961 0.00634766 496.902C0.00634766 495.843 0.426553 494.827 1.17468 494.078C1.92281 493.329 2.93772 492.907 3.99657 492.905H283.754C284.813 492.907 285.827 493.329 286.576 494.078C287.324 494.827 287.744 495.843 287.744 496.902C287.744 497.961 287.324 498.976 286.576 499.726C285.827 500.475 284.813 500.897 283.754 500.898V500.898Z" fill="#CCCCCC"/>
<path d="M451.608 524.878H335.709C334.649 524.878 333.632 524.457 332.883 523.707C332.133 522.958 331.712 521.941 331.712 520.881C331.712 519.821 332.133 518.805 332.883 518.055C333.632 517.306 334.649 516.885 335.709 516.885H451.608C452.668 516.885 453.685 517.306 454.434 518.055C455.184 518.805 455.605 519.821 455.605 520.881C455.605 521.941 455.184 522.958 454.434 523.707C453.685 524.457 452.668 524.878 451.608 524.878V524.878Z" fill="#CCCCCC"/>
<path d="M201.159 524.878H85.2592C84.1993 524.878 83.1828 524.457 82.4333 523.707C81.6838 522.958 81.2627 521.941 81.2627 520.881C81.2627 519.821 81.6838 518.805 82.4333 518.055C83.1828 517.306 84.1993 516.885 85.2592 516.885H201.159C202.219 516.885 203.235 517.306 203.985 518.055C204.734 518.805 205.155 519.821 205.155 520.881C205.155 521.941 204.734 522.958 203.985 523.707C203.235 524.457 202.219 524.878 201.159 524.878V524.878Z" fill="#CCCCCC"/>
<path d="M671.417 500.898H391.66C390.6 500.898 389.584 500.477 388.834 499.728C388.085 498.978 387.664 497.962 387.664 496.902C387.664 495.842 388.085 494.825 388.834 494.076C389.584 493.326 390.6 492.905 391.66 492.905H671.417C672.476 492.907 673.491 493.329 674.239 494.078C674.987 494.827 675.407 495.843 675.407 496.902C675.407 497.961 674.987 498.976 674.239 499.726C673.491 500.475 672.476 500.897 671.417 500.898V500.898Z" fill="#CCCCCC"/>
<path d="M791.313 524.878H511.556C510.496 524.878 509.479 524.457 508.73 523.707C507.98 522.958 507.559 521.941 507.559 520.881C507.559 519.821 507.98 518.805 508.73 518.055C509.479 517.306 510.496 516.885 511.556 516.885H791.313C792.373 516.885 793.389 517.306 794.139 518.055C794.888 518.805 795.31 519.821 795.31 520.881C795.31 521.941 794.888 522.958 794.139 523.707C793.389 524.457 792.373 524.878 791.313 524.878V524.878Z" fill="#CCCCCC"/>
</g>
<defs>
<clipPath id="clip0">
<rect width="795.31" height="524.878" fill="white"/>
</clipPath>
</defs>
</svg>
