<svg width="970" height="782" viewBox="0 0 970 782" fill="none" xmlns="http://www.w3.org/2000/svg">
<g clip-path="url(#clip0)">
<g opacity="0.5">
<path opacity="0.5" d="M918.84 194.63H786V143.8C786 129.68 780.391 116.138 770.406 106.154C760.422 96.1693 746.88 90.5601 732.76 90.5601H124.53C111.72 90.5601 99.4347 95.6488 90.3767 104.707C81.3187 113.765 76.23 126.05 76.23 138.86V194.66H56.23C41.3308 194.655 27.0391 200.565 16.4953 211.092C5.9516 221.619 0.0185534 235.901 0 250.8V502.8C0.0108025 516.971 5.37449 530.614 15.017 540.999C24.6595 551.383 37.8689 557.741 52 558.8V615.8H108.78V558.97H180.28V616.28H237.06V558.97H748.06V616.28H804.84V558.97H852.16V615.75H909V558.97H919.23C925.897 558.971 932.498 557.659 938.658 555.109C944.818 552.559 950.415 548.82 955.129 544.106C959.844 539.393 963.584 533.797 966.135 527.637C968.687 521.478 970 514.877 970 508.21V245.8C970.001 239.081 968.679 232.427 966.109 226.219C963.538 220.011 959.77 214.37 955.019 209.618C950.268 204.866 944.628 201.097 938.42 198.525C932.213 195.954 925.559 194.63 918.84 194.63V194.63ZM776 417.02V459.6H564.32C566.613 455.495 567.814 450.871 567.81 446.17V417.02H776Z" fill="url(#paint0_linear)"/>
</g>
<path d="M122.79 537.67H68.12V606.01H122.79V537.67Z" fill="#2524E9"/>
<path d="M793.04 538.18H738.37V606.52H793.04V538.18Z" fill="#2524E9"/>
<path d="M893.27 537.67H838.6V606.01H893.27V537.67Z" fill="#2524E9"/>
<path d="M246.31 538.18H191.64V606.52H246.31V538.18Z" fill="#2524E9"/>
<path opacity="0.3" d="M122.79 537.67H68.12V606.01H122.79V537.67Z" fill="black"/>
<path opacity="0.3" d="M793.04 538.18H738.37V606.52H793.04V538.18Z" fill="black"/>
<path opacity="0.3" d="M893.27 537.67H838.6V606.01H893.27V537.67Z" fill="black"/>
<path opacity="0.3" d="M246.31 538.18H191.64V606.52H246.31V538.18Z" fill="black"/>
<path d="M765.2 200.52H902.74C915.804 200.52 928.334 205.71 937.572 214.948C946.81 224.186 952 236.715 952 249.78V502.47C952 515.431 946.851 527.861 937.686 537.026C928.521 546.191 916.091 551.34 903.13 551.34H765.2V200.52Z" fill="#2524E9"/>
<path opacity="0.3" d="M765.2 200.52H902.74C915.804 200.52 928.334 205.71 937.572 214.948C946.81 224.186 952 236.715 952 249.78V502.47C952 515.431 946.851 527.861 937.686 537.026C928.521 546.191 916.091 551.34 903.13 551.34H765.2V200.52Z" fill="black"/>
<path d="M137.91 100.29H401.22V414.66H91.4V146.79C91.4027 134.457 96.304 122.629 105.026 113.909C113.748 105.189 125.577 100.29 137.91 100.29V100.29Z" fill="#2524E9"/>
<path opacity="0.3" d="M139.41 100.29H401.22V414.66H91.4V148.29C91.4 141.986 92.6419 135.743 95.0548 129.919C97.4676 124.095 101.004 118.803 105.462 114.345C109.921 109.888 115.213 106.353 121.038 103.941C126.863 101.529 133.106 100.289 139.41 100.29V100.29Z" fill="black"/>
<path d="M209.2 100.29H464.5V414.66H154.68V154.8C154.68 140.343 160.423 126.478 170.646 116.256C180.868 106.033 194.733 100.29 209.19 100.29H209.2Z" fill="#2524E9"/>
<path d="M463 100.29H723.55C737.148 100.29 750.188 105.692 759.803 115.307C769.418 124.922 774.82 137.962 774.82 151.56V414.66H463V100.29Z" fill="#2524E9"/>
<path d="M851.77 200.52H902.77C915.829 200.528 928.351 205.721 937.583 214.959C946.814 224.196 952 236.721 952 249.78V502.47C952 515.431 946.851 527.861 937.686 537.026C928.521 546.191 916.091 551.34 903.13 551.34H851.77V200.52Z" fill="#2524E9"/>
<path d="M851.76 455.66H223.02V551.34H851.76V455.66Z" fill="#2524E9"/>
<path d="M367.491 212.853L298.79 232.878C268.541 241.695 251.167 273.364 259.983 303.613L282.742 381.694C291.559 411.943 323.228 429.317 353.477 420.501L422.178 400.476C452.427 391.659 469.802 359.99 460.985 329.741L438.226 251.66C429.409 221.411 397.74 204.037 367.491 212.853Z" fill="url(#paint1_linear)"/>
<path d="M363.706 222.181L299.642 240.854C271.434 249.076 255.232 278.608 263.454 306.815L284.677 379.626C292.898 407.833 322.43 424.035 350.638 415.813L414.702 397.14C442.91 388.919 459.112 359.387 450.89 331.179L429.668 258.369C421.446 230.161 391.914 213.959 363.706 222.181Z" fill="#F55F44"/>
<path opacity="0.1" d="M363.706 222.181L299.642 240.854C271.434 249.076 255.232 278.608 263.454 306.815L284.677 379.626C292.898 407.833 322.43 424.035 350.638 415.813L414.702 397.14C442.91 388.919 459.112 359.387 450.89 331.179L429.668 258.369C421.446 230.161 391.914 213.959 363.706 222.181Z" fill="black"/>
<path d="M367.012 219.858L302.948 238.531C274.74 246.752 258.538 276.284 266.76 304.492L287.982 377.302C296.204 405.51 325.736 421.712 353.944 413.49L418.008 394.817C446.216 386.595 462.417 357.063 454.196 328.856L432.973 256.045C424.752 227.838 395.22 211.636 367.012 219.858Z" fill="#F55F44"/>
<path d="M353.31 282.717C359.485 278.374 360.97 269.847 356.627 263.672C352.283 257.496 343.756 256.011 337.581 260.355C331.406 264.698 329.921 273.225 334.264 279.4C338.607 285.575 347.134 287.061 353.31 282.717Z" fill="url(#paint2_linear)"/>
<path d="M418.711 320.266C424.887 315.922 426.372 307.395 422.028 301.22C417.685 295.045 409.158 293.56 402.983 297.903C396.808 302.246 395.322 310.773 399.666 316.948C404.009 323.124 412.536 324.609 418.711 320.266Z" fill="url(#paint3_linear)"/>
<path d="M378.936 398.358C385.111 394.015 386.596 385.488 382.253 379.313C377.91 373.137 369.383 371.652 363.207 375.996C357.032 380.339 355.547 388.866 359.89 395.041C364.234 401.217 372.761 402.702 378.936 398.358Z" fill="url(#paint4_linear)"/>
<path d="M350.686 278.988C354.802 276.093 355.791 270.411 352.897 266.295C350.002 262.18 344.32 261.19 340.204 264.085C336.089 266.979 335.099 272.662 337.994 276.777C340.888 280.893 346.571 281.882 350.686 278.988Z" fill="#F99F8F"/>
<path d="M416.088 316.536C420.203 313.641 421.193 307.959 418.299 303.843C415.404 299.728 409.722 298.738 405.606 301.633C401.491 304.527 400.501 310.21 403.396 314.325C406.29 318.44 411.973 319.43 416.088 316.536Z" fill="#F99F8F"/>
<path d="M376.313 394.629C380.428 391.734 381.418 386.052 378.523 381.937C375.629 377.821 369.946 376.831 365.831 379.726C361.716 382.62 360.726 388.303 363.62 392.418C366.515 396.534 372.197 397.523 376.313 394.629Z" fill="#F99F8F"/>
<path d="M72.13 200.52H273.13V551.34H72.13C57.7756 551.34 44.0089 545.638 33.8578 535.489C23.7068 525.34 18.0027 511.574 18 497.22V254.65C18 240.294 23.703 226.526 33.8543 216.374C44.0057 206.223 57.7738 200.52 72.13 200.52V200.52Z" fill="#2524E9"/>
<path opacity="0.3" d="M72.51 200.52H222.7C229.327 200.52 235.89 201.826 242.012 204.363C248.134 206.901 253.696 210.62 258.381 215.308C263.065 219.996 266.779 225.561 269.312 231.685C271.844 237.809 273.145 244.373 273.14 251V500.9C273.14 514.278 267.826 527.107 258.366 536.566C248.907 546.026 236.078 551.34 222.7 551.34H72.51C58.0531 551.34 44.1882 545.597 33.9656 535.374C23.743 525.152 18 511.287 18 496.83V255C18.008 240.548 23.7545 226.691 33.9762 216.475C44.198 206.259 58.0582 200.52 72.51 200.52V200.52Z" fill="black"/>
<path opacity="0.1" d="M173.41 200.52H261.2C265.709 200.52 270.033 202.311 273.221 205.499C276.409 208.687 278.2 213.011 278.2 217.52V534.34C278.2 538.849 276.409 543.173 273.221 546.361C270.033 549.549 265.709 551.34 261.2 551.34H173.41V200.52Z" fill="black"/>
<path d="M168.35 200.52H256.14C260.649 200.52 264.973 202.311 268.161 205.499C271.349 208.687 273.14 213.011 273.14 217.52V534.34C273.14 538.849 271.349 543.173 268.161 546.361C264.973 549.549 260.649 551.34 256.14 551.34H168.35V200.52Z" fill="#2524E9"/>
<path d="M564.73 382.77H250.36V469.34H564.73V382.77Z" fill="#2524E9"/>
<path d="M879.61 383.27H565.24V469.84H879.61V383.27Z" fill="#2524E9"/>
<path opacity="0.15" d="M538.13 382.77H276.96C262.269 382.77 250.36 394.679 250.36 409.37V442.74C250.36 457.431 262.269 469.34 276.96 469.34H538.13C552.821 469.34 564.73 457.431 564.73 442.74V409.37C564.73 394.679 552.821 382.77 538.13 382.77Z" fill="white"/>
<path d="M601.43 223.55C611.493 223.55 619.65 215.392 619.65 205.33C619.65 195.267 611.493 187.11 601.43 187.11C591.367 187.11 583.21 195.267 583.21 205.33C583.21 215.392 591.367 223.55 601.43 223.55Z" fill="#2524E9"/>
<path d="M318.96 223.55C329.023 223.55 337.18 215.392 337.18 205.33C337.18 195.267 329.023 187.11 318.96 187.11C308.897 187.11 300.74 195.267 300.74 205.33C300.74 215.392 308.897 223.55 318.96 223.55Z" fill="#2524E9"/>
<path opacity="0.3" d="M318.96 223.55C329.023 223.55 337.18 215.392 337.18 205.33C337.18 195.267 329.023 187.11 318.96 187.11C308.897 187.11 300.74 195.267 300.74 205.33C300.74 215.392 308.897 223.55 318.96 223.55Z" fill="black"/>
<path d="M309.84 109.14C312.358 109.14 314.4 106.082 314.4 102.31C314.4 98.5379 312.358 95.48 309.84 95.48C307.322 95.48 305.28 98.5379 305.28 102.31C305.28 106.082 307.322 109.14 309.84 109.14Z" fill="#FDA57D"/>
<path opacity="0.15" d="M853.01 383.27H591.84C577.149 383.27 565.24 395.179 565.24 409.87V443.24C565.24 457.931 577.149 469.84 591.84 469.84H853.01C867.701 469.84 879.61 457.931 879.61 443.24V409.87C879.61 395.179 867.701 383.27 853.01 383.27Z" fill="white"/>
<g opacity="0.5">
<path opacity="0.5" d="M672.44 208.01C670.35 196.52 668.21 184.9 663.44 174.21C658.216 162.467 650.032 152.281 639.69 144.65C638.154 143.489 636.251 142.921 634.33 143.05C631.33 143.31 630.41 145.15 629.94 147.05C629.88 147.28 629.83 147.5 629.79 147.73C628.61 153.56 629.4 159.32 631.11 165C633.24 172.09 636.81 179 639.78 185.86C645.131 198.152 648.678 211.154 650.31 224.46C650.53 226.22 650.7 228.03 650.74 229.84C650.769 230.918 650.742 231.996 650.66 233.07C650.526 235.178 650.046 237.249 649.24 239.2C649.1 239.52 648.95 239.854 648.79 240.2C648.63 240.547 648.457 240.854 648.27 241.12C646.45 244.12 643.61 246.26 640.83 248.37C638.05 250.48 634.9 252.73 631.58 253.87H631.69C630.146 254.428 628.512 254.696 626.87 254.66C621.74 254.5 616.27 250.37 611.11 251.34L610.53 251.47C605.25 252.9 601.2 261.2 601.16 266.47C601.16 266.89 601.16 267.297 601.16 267.69C601.16 267.83 601.16 267.97 601.21 268.11C601.26 268.25 601.27 268.64 601.31 268.89C601.35 269.14 601.37 269.2 601.41 269.35C601.45 269.5 601.5 269.8 601.56 270.02C601.62 270.24 601.65 270.33 601.7 270.48C601.75 270.63 601.83 270.89 601.9 271.09C601.97 271.29 602.02 271.39 602.08 271.53C602.14 271.67 602.24 271.91 602.33 272.09L602.55 272.51C602.65 272.68 602.74 272.86 602.85 273.03L603.11 273.43L603.45 273.91L603.74 274.28L604.13 274.72L604.45 275.06L604.88 275.47L605.23 275.78L605.7 276.16L606.07 276.45L606.58 276.8L606.96 277.06L607.52 277.39L607.91 277.61L608.54 277.92L608.91 278.1C609.21 278.24 609.52 278.37 609.83 278.49L610.28 278.66L611 278.92L611.52 279.08L612.11 279.26L612.69 279.41L613.25 279.55L613.87 279.68L614.41 279.79L615.06 279.9L615.58 279.98L616.25 280.07L616.75 280.13L617.45 280.19H617.94H618.66H619.12H619.87H621.44H622.26H622.55L623.43 280.12H623.6C626.096 279.903 628.553 279.362 630.91 278.51C638.38 275.68 644.72 270.51 650.59 265.08C662.23 254.33 673.23 240.99 674.16 225.17C674.52 219.46 673.47 213.7 672.44 208.01Z" fill="url(#paint5_linear)"/>
</g>
<path d="M583.52 207.52C591.738 207.52 598.4 200.858 598.4 192.64C598.4 184.422 591.738 177.76 583.52 177.76C575.302 177.76 568.64 184.422 568.64 192.64C568.64 200.858 575.302 207.52 583.52 207.52Z" fill="#2524E9"/>
<g opacity="0.1">
<path opacity="0.1" d="M633 252.28C628.983 235.262 622.828 218.821 614.68 203.35L616.33 209.97C623.424 223.418 629.014 237.607 633 252.28Z" fill="white"/>
<path opacity="0.1" d="M491.12 293.17C491.12 259.17 503.79 202.11 503.79 202.11C503.79 202.11 519.5 144.51 524.74 139.27C529.98 134.03 540.45 157.6 540.45 157.6C540.45 157.6 566.63 152.36 579.72 157.6C579.72 157.6 587.58 139.27 595.43 139.27C598.43 139.27 600.74 143.61 602.36 148.92C600.76 141.15 598.04 132.65 593.78 132.65C585.93 132.65 578.07 150.98 578.07 150.98C564.98 145.74 538.8 150.98 538.8 150.98C538.8 150.98 528.33 127.42 523.09 132.65C517.85 137.88 502.14 195.49 502.14 195.49C502.14 195.49 489.47 252.49 489.47 286.55C489.46 289.63 491.12 294.15 491.12 293.17Z" fill="white"/>
</g>
<path d="M803.75 415.36C799.48 403.25 753.75 437.36 753.75 437.36L743.18 436.73L722.84 417.89L737.04 403.69L617.8 301.44C614.617 298.714 610.899 296.683 606.885 295.477C602.87 294.272 598.649 293.918 594.49 294.44L495.36 306.8C494.93 301.12 491.43 294.37 486.48 287.48C476.31 270.8 454.9 251.97 447 245.28L434.88 163.8L445.15 148.39C443.249 147.87 441.379 147.243 439.55 146.51L441.72 143.25L440.92 143.03L441.92 141.85H441.8L467.38 112.25C469.28 110.053 470.254 107.206 470.097 104.306C469.94 101.406 468.665 98.6793 466.54 96.7L409.29 53.2C411.026 49.0567 411.858 44.5906 411.73 40.1C412.18 31.46 408.31 22.69 395.34 16.2C387.315 12.3736 378.908 9.40387 370.26 7.34004C356.009 3.67326 341.036 3.89427 326.9 7.98004C326.67 7.69004 326.42 7.40004 326.16 7.10004C308.54 -13.04 285.43 15.9 284.53 17.1L194.21 117.56C191.754 121.46 190.856 126.141 191.693 130.673C192.531 135.205 195.043 139.255 198.73 142.02L246.54 177.87L246.39 178.18L249.09 180.18C247.09 184.18 244.3 186.88 240.65 187.29L247.97 190.95C246.814 191.759 245.473 192.265 244.07 192.42L277.59 209.18C277.59 226.6 279.39 306.35 307.71 345.5C310.612 350.318 314.065 354.782 318 358.8C318 358.8 320.41 357.49 324.81 355.37L329.87 365.5C335.431 376.622 344.351 385.712 355.365 391.482C366.38 397.252 378.931 399.41 391.24 397.65L548.59 375.17L546.92 380.17L547.82 380.04L496.82 533.04L505.24 535.85L505.08 536.15L506.27 536.66L495.66 556.66L462.27 582.34C462.27 582.34 559.86 631.13 570.13 623.43C580.4 615.73 534.13 582.34 534.13 582.34L531.56 572.07L542.79 548.36L552.2 551.5L627.82 400.26L630.39 395.12L681.57 459.12L696 444.7L697.56 446.28L697.69 446.15L717.69 466.39L732.18 505.94C732.18 505.94 808 427.47 803.75 415.36ZM406.75 121.26L405.75 120.1C399.65 127.73 388.86 136.96 376.83 143.21V134.8L377.4 134.3V130.64C385.004 123.641 390.503 114.657 393.276 104.701C396.05 94.7455 395.989 84.213 393.1 74.29L426.32 99.8L406.75 121.26ZM294 26.43L293.2 25.63L294.01 26.43H294ZM267.45 79.91C267.23 82.5767 267.14 85.26 267.18 87.96C267.121 91.8804 267.339 95.8001 267.83 99.69C269.54 113.28 274.41 124.39 284.44 129.69C293.18 134.29 298.93 134.04 302.59 130.9L302.99 131.26C303.298 136.575 304.679 141.773 307.05 146.54C288.327 142.631 270.446 135.429 254.24 125.27C254.24 125.27 254.3 125.95 254.37 127.17L240.63 113.43L267.45 79.91Z" fill="url(#paint6_linear)"/>
<path d="M518.17 507.27L495.72 549.68L530.64 564.64L553.09 517.25L518.17 507.27Z" fill="#FDA57D"/>
<path d="M530.64 564.64L533.13 574.64C533.13 574.64 578.03 607.07 568.05 614.55C558.07 622.03 463.28 574.64 463.28 574.64L495.71 549.69L530.64 564.64Z" fill="#333333"/>
<path opacity="0.1" d="M550.7 521.65L515.37 509.88L504.86 529.72L539.78 544.69L550.7 521.65Z" fill="black"/>
<path d="M677.69 427.83L711.41 461.97L736.16 433.14L697.68 397.51L677.69 427.83Z" fill="#FDA57D"/>
<path opacity="0.1" d="M699.07 399.17L679.08 429.5L691.86 442.43L717.79 416.5L699.07 399.17Z" fill="black"/>
<path d="M736.16 433.13L746.43 433.74C746.43 433.74 790.83 400.63 794.98 412.39C799.13 424.15 725.49 500.39 725.49 500.39L711.42 461.97L736.16 433.13Z" fill="#333333"/>
<path d="M416.45 177.87L468.27 117.87C470.116 115.735 471.062 112.967 470.909 110.149C470.756 107.331 469.516 104.682 467.45 102.76L354.69 17.2998L341 38.6598L428.39 105.93L391.29 146.61L416.45 177.87Z" fill="#FFB8B8"/>
<path opacity="0.1" d="M410.5 125.62L392.37 145.5L417.56 176.8L443.56 146.74C430.877 142.725 419.475 135.441 410.5 125.62V125.62Z" fill="black"/>
<path d="M266 190.89L207.33 146.89C203.749 144.204 201.31 140.269 200.497 135.867C199.683 131.465 200.556 126.918 202.94 123.13L290.73 25.4399L308.73 43.4399L248 119.09L283.9 154.99L266 190.89Z" fill="#FFB8B8"/>
<path opacity="0.1" d="M253.59 182.03L263.19 189.23L281.19 153.33L258.59 130.8C259.07 138.44 260.42 168.13 253.59 182.03Z" fill="black"/>
<path d="M550.69 365.14L496.83 526.71L550.69 544.66L640.44 365.14L568.64 347.19L550.69 365.14Z" fill="#4D8AF0"/>
<path opacity="0.1" d="M548.19 370.13L545.5 378.21L602.05 370.13L624.14 397.75L637.95 370.13L566.14 352.18L548.19 370.13Z" fill="black"/>
<path d="M290.61 25.5501C290.61 25.5501 313.61 -4.1099 331.08 15.8501C348.55 35.8101 303.64 38.3001 303.64 38.3001L290.61 25.5501Z" fill="#FFB8B8"/>
<path d="M317.32 329.24L334.67 363.95C340.071 374.753 348.735 383.583 359.434 389.188C370.132 394.793 382.324 396.889 394.28 395.18L604.54 365.18L676.35 454.94L730.2 401.09L614.35 301.79C611.259 299.14 607.648 297.166 603.75 295.993C599.851 294.82 595.75 294.475 591.71 294.98L317.32 329.24Z" fill="#4D8AF0"/>
<path opacity="0.1" d="M264.56 135.59C264.56 135.59 269.29 193.89 251.34 195.89L287.24 213.89C287.24 213.89 285.24 319.6 323.14 357.5C323.14 357.5 392.95 319.6 466.75 321.6C540.55 323.6 448.75 249.79 448.75 249.79L436.63 168.07L446.63 153.07C433.109 149.021 421.006 141.24 411.71 130.62C401.71 143.09 378.85 160 359.02 160H350.44C320.88 160 289.44 154 264.53 138.1L264.56 135.59Z" fill="black"/>
<path d="M261.23 130.6C261.23 130.6 266 188.9 248 190.89L283.9 208.89C283.9 208.89 281.9 314.6 319.8 352.5C319.8 352.5 389.61 314.6 463.41 316.6C537.21 318.6 445.41 244.79 445.41 244.79L433.29 163.07L443.29 148.07C429.77 144.021 417.666 136.24 408.37 125.62C398.37 138.09 375.51 155 355.68 155H347.1C317.54 155 286.1 146.53 261.19 130.6H261.23Z" fill="#F59B66"/>
<path d="M308.52 114.16V134.16C308.521 144.318 312.557 154.058 319.74 161.24L362.38 203.88L376.57 175.49C379.042 170.547 380.329 165.097 380.33 159.57V114.16H308.52Z" fill="#FFB8B8"/>
<path opacity="0.1" d="M309.07 137.25C309.07 137.99 309.07 138.72 309.14 139.46C319.016 148.268 331.789 153.13 345.022 153.119C358.254 153.108 371.019 148.224 380.88 139.4V117.21H309.07V137.25Z" fill="black"/>
<path d="M344.42 150.07C374.161 150.07 398.27 125.961 398.27 96.2201C398.27 66.4796 374.161 42.3701 344.42 42.3701C314.68 42.3701 290.57 66.4796 290.57 96.2201C290.57 125.961 314.68 150.07 344.42 150.07Z" fill="#FFB8B8"/>
<path opacity="0.1" d="M308.52 81.03H398.28C398.28 81.03 434.18 45.13 398.28 27.18C390.485 23.4654 382.32 20.5828 373.92 18.58C319.33 4.73998 267.42 49.89 274.44 105.77C276.1 118.97 280.83 129.77 290.57 134.88C328.46 154.8 308.52 81.03 308.52 81.03Z" fill="black"/>
<path d="M308.52 78.5402H398.28C398.28 78.5402 434.18 42.6402 398.28 24.6902C390.485 20.9757 382.32 18.0931 373.92 16.0902C319.33 2.25024 267.42 47.4002 274.44 103.28C276.1 116.48 280.83 127.28 290.57 132.39C328.46 152.34 308.52 78.5402 308.52 78.5402Z" fill="#333333"/>
<path d="M311.12 105.65C313.876 105.65 316.11 101.741 316.11 96.9199C316.11 92.0985 313.876 88.1899 311.12 88.1899C308.364 88.1899 306.13 92.0985 306.13 96.9199C306.13 101.741 308.364 105.65 311.12 105.65Z" fill="#FFB8B8"/>
<path opacity="0.1" d="M283.68 207.93L286.18 200.44L293.66 205.43L283.68 207.93Z" fill="black"/>
<path opacity="0.1" d="M445.55 244.8C445.55 244.8 418.39 257.8 410.9 270.3Z" fill="black"/>
<path opacity="0.1" d="M433.35 163.03L430.86 170.51L425.87 163.03H433.35Z" fill="black"/>
<path d="M308.52 78.5402H398.28C398.28 78.5402 434.18 42.6402 398.28 24.6902C390.485 20.9757 382.32 18.0931 373.92 16.0902C319.33 2.25024 267.42 47.4002 274.44 103.28C276.1 116.48 280.83 127.28 290.57 132.39C328.46 152.34 308.52 78.5402 308.52 78.5402Z" fill="#333333"/>
<path opacity="0.5" d="M534.93 313.82H534.52V321.55H534.93V313.82Z" fill="#58555D"/>
<path opacity="0.5" d="M541.55 313.82H541.14V321.55H541.55V313.82Z" fill="#58555D"/>
<path opacity="0.5" d="M537.96 311.36H537.55V322.17H537.96V311.36Z" fill="#58555D"/>
<path opacity="0.5" d="M577.93 312.17H577.52V319.9H577.93V312.17Z" fill="#58555D"/>
<path opacity="0.5" d="M584.55 312.17H584.14V319.9H584.55V312.17Z" fill="#58555D"/>
<path opacity="0.5" d="M580.96 309.7H580.55V320.51H580.96V309.7Z" fill="#58555D"/>
<path opacity="0.2" d="M546.78 689.27C546.78 689.27 571.43 685.54 583.5 719.94" stroke="black" stroke-miterlimit="10"/>
<path opacity="0.2" d="M556.53 679.32C556.53 679.32 574.79 682.81 587.53 707.92" stroke="black" stroke-miterlimit="10"/>
<path opacity="0.2" d="M533 687.21C533 687.21 541.63 681.11 549.64 684.3" stroke="black" stroke-miterlimit="10"/>
<path opacity="0.2" d="M557.22 706.86C557.22 706.86 563.47 711.17 562.85 718.86" stroke="black" stroke-miterlimit="10"/>
</g>
<defs>
<linearGradient id="paint0_linear" x1="485" y1="616.27" x2="485" y2="90.5301" gradientUnits="userSpaceOnUse">
<stop stop-color="#808080" stop-opacity="0.25"/>
<stop offset="0.54" stop-color="#808080" stop-opacity="0.12"/>
<stop offset="1" stop-color="#808080" stop-opacity="0.1"/>
</linearGradient>
<linearGradient id="paint1_linear" x1="76036.5" y1="-444279" x2="51950.8" y2="-478524" gradientUnits="userSpaceOnUse">
<stop stop-color="#808080" stop-opacity="0.25"/>
<stop offset="0.54" stop-color="#808080" stop-opacity="0.12"/>
<stop offset="1" stop-color="#808080" stop-opacity="0.1"/>
</linearGradient>
<linearGradient id="paint2_linear" x1="11128.8" y1="-64468.7" x2="10699" y2="-65079.9" gradientUnits="userSpaceOnUse">
<stop stop-color="#808080" stop-opacity="0.25"/>
<stop offset="0.54" stop-color="#808080" stop-opacity="0.12"/>
<stop offset="1" stop-color="#808080" stop-opacity="0.1"/>
</linearGradient>
<linearGradient id="paint3_linear" x1="12992.4" y1="-63448.9" x2="12562.4" y2="-64060.3" gradientUnits="userSpaceOnUse">
<stop stop-color="#808080" stop-opacity="0.25"/>
<stop offset="0.54" stop-color="#808080" stop-opacity="0.12"/>
<stop offset="1" stop-color="#808080" stop-opacity="0.1"/>
</linearGradient>
<linearGradient id="paint4_linear" x1="11917.4" y1="-61226.9" x2="11487.4" y2="-61838.3" gradientUnits="userSpaceOnUse">
<stop stop-color="#808080" stop-opacity="0.25"/>
<stop offset="0.54" stop-color="#808080" stop-opacity="0.12"/>
<stop offset="1" stop-color="#808080" stop-opacity="0.1"/>
</linearGradient>
<linearGradient id="paint5_linear" x1="55601.9" y1="46716.4" x2="55601.9" y2="27880.5" gradientUnits="userSpaceOnUse">
<stop stop-color="#808080" stop-opacity="0.25"/>
<stop offset="0.54" stop-color="#808080" stop-opacity="0.12"/>
<stop offset="1" stop-color="#808080" stop-opacity="0.1"/>
</linearGradient>
<linearGradient id="paint6_linear" x1="375467" y1="426670" x2="375467" y2="36956.2" gradientUnits="userSpaceOnUse">
<stop stop-color="#808080" stop-opacity="0.25"/>
<stop offset="0.54" stop-color="#808080" stop-opacity="0.12"/>
<stop offset="1" stop-color="#808080" stop-opacity="0.1"/>
</linearGradient>
<clipPath id="clip0">
<rect width="970" height="781.61" fill="white"/>
</clipPath>
</defs>
</svg>
