<svg width="1095" height="789" viewBox="0 0 1095 789" fill="none" xmlns="http://www.w3.org/2000/svg">
<g clip-path="url(#clip0)">
<g opacity="0.5">
<path opacity="0.5" d="M1080.6 367.69H974.84C967.042 367.69 960.72 374.012 960.72 381.81V487.57C960.72 495.368 967.042 501.69 974.84 501.69H1080.6C1088.4 501.69 1094.72 495.368 1094.72 487.57V381.81C1094.72 374.012 1088.4 367.69 1080.6 367.69Z" fill="#D0D2D5"/>
<path opacity="0.1" d="M1008.72 406.2H1046.72C1046.72 406.2 1078.72 434.2 1046.72 463.2H1008.72C1008.72 463.2 976.72 437.2 1008.72 406.2Z" fill="black"/>
<path opacity="0.5" d="M1017.72 422.19H1012.72V437.19H1017.72V422.19Z" fill="#3F3D56"/>
<path opacity="0.5" d="M1042.72 420.19H1037.72V438.19H1042.72V420.19Z" fill="#3F3D56"/>
<path opacity="0.5" d="M1027.72 446.19C1029.31 446.19 1030.84 446.822 1031.96 447.947C1033.09 449.073 1033.72 450.599 1033.72 452.19V457.19H1021.72V452.19C1021.72 450.599 1022.35 449.073 1023.48 447.947C1024.6 446.822 1026.13 446.19 1027.72 446.19V446.19Z" fill="#3F3D56"/>
</g>
<path d="M621.77 238.46C624.94 238.39 628.1 238.63 631.26 238.46C634.15 238.32 637.02 237.85 639.91 237.56C644.85 237.07 649.83 237.11 654.79 236.9C658.05 236.76 661.49 236.44 664.13 234.52C666.61 232.73 667.99 229.81 670.2 227.69C679.2 219.04 685.37 207.47 693.37 197.87C695.37 195.43 697.46 193 699.27 190.39C702.74 185.39 705.19 179.72 707.63 174.12C708.592 172.044 709.394 169.898 710.03 167.7C710.48 165.94 710.71 164.12 711.31 162.4C712.55 158.88 715.53 155.8 715.89 152.09L715.47 152.15C719.11 147.52 718.55 139.45 720.35 133.52C721.501 129.998 722.894 126.56 724.52 123.23L731.21 108.66C732.36 106.16 733.56 103.58 735.55 101.66C737.96 99.3299 741.32 98.1699 743.74 95.8499C745.179 94.4214 746.256 92.6693 746.88 90.7399L747.09 90.9399C748.37 92.1899 749.37 93.7199 750.62 95.0099C753.31 97.7899 757.04 99.3799 759.78 102.11C761.18 103.5 762.33 105.19 764.02 106.2C764.883 106.671 765.872 106.86 766.848 106.74C767.824 106.62 768.737 106.197 769.46 105.53C774.37 101.21 781.69 100.81 787 96.9999C788.47 95.9399 789.75 94.6499 791.13 93.4899C794.425 90.8645 798.004 88.6171 801.8 86.7899C804.027 86.8262 806.241 87.142 808.39 87.7299C811.47 88.5799 814.48 89.9899 817.68 89.9299C820.537 89.7891 823.274 88.7378 825.49 86.9299C827.12 85.6699 828.61 83.9299 828.85 81.9299C828.912 80.9034 828.726 79.8771 828.308 78.9373C827.891 77.9976 827.253 77.172 826.45 76.5299C826.23 76.3399 826 76.1699 825.77 75.9999C825.702 75.1024 825.454 74.2279 825.04 73.4289C824.626 72.6298 824.054 71.9226 823.36 71.3499C821.739 70.0813 819.889 69.1374 817.91 68.5699C816.809 68.1374 815.649 67.8744 814.47 67.7899C812.63 67.89 810.823 68.3132 809.13 69.0399C805.726 70.1359 802.217 70.8732 798.66 71.2399C798.03 71.2999 796.75 71.1699 795.66 71.1599L795.29 70.0999C791.13 72.0199 786.29 70.4399 781.73 70.4499C779.51 70.4499 777.3 70.8399 775.09 70.9799C772.642 71.0766 770.191 71.0232 767.75 70.8199L760.36 70.3499C757.204 70.1877 754.06 69.8538 750.94 69.3499C750.11 67.6599 749.28 65.9699 748.35 64.3499C746.784 61.6268 744.944 59.0703 742.86 56.7199C743.697 55.9989 744.579 55.3309 745.5 54.7199L745.68 54.6099C745.91 54.4799 746.19 54.3399 746.5 54.1999C749.384 55.5716 752.569 56.1912 755.757 56.0011C758.945 55.8109 762.033 54.8173 764.734 53.1125C767.435 51.4078 769.66 49.0475 771.204 46.2512C772.747 43.455 773.557 40.3137 773.56 37.1199C774.108 36.9092 774.642 36.6654 775.16 36.3899C775.46 36.2299 775.76 36.0599 776.05 35.8699L776.48 35.5799C776.754 35.3728 777.014 35.1491 777.26 34.9099C777.38 34.7899 777.5 34.6699 777.61 34.5399C777.829 34.2809 778.02 33.9993 778.18 33.6999V33.6999C778.24 33.5799 778.3 33.4699 778.35 33.3499C778.4 33.2299 778.35 33.2599 778.4 33.2099C778.45 33.1599 778.47 33.0299 778.5 32.9499C778.53 32.8699 778.5 32.8299 778.55 32.7699L778.61 32.5299C778.615 32.4666 778.615 32.4031 778.61 32.3399C778.61 32.2599 778.61 32.1799 778.61 32.1099V31.8999C778.605 31.8266 778.605 31.7531 778.61 31.6799C778.615 31.6066 778.615 31.5331 778.61 31.4599C778.61 31.3899 778.61 31.3099 778.61 31.2399C778.615 31.1666 778.615 31.0931 778.61 31.0199V30.7499C778.615 30.6733 778.615 30.5965 778.61 30.5199C778.61 30.4499 778.61 30.3799 778.61 30.3099V30.0699V29.8699C778.61 29.7799 778.61 29.6899 778.61 29.6099C778.615 29.55 778.615 29.4898 778.61 29.4299C778.616 29.3366 778.616 29.2431 778.61 29.1499C778.61 29.0899 778.61 29.0399 778.61 28.9899C778.61 28.9399 778.61 28.7899 778.54 28.6899V28.5499L778.45 28.2299V28.1099C778.45 27.9999 778.38 27.8899 778.35 27.7799V27.6799L778.23 27.3199V27.2599C778.23 27.0899 778.12 26.9099 778.06 26.7399C777.31 24.5799 776.5 22.4299 775.64 20.3099C775.013 18.5359 774.071 16.8895 772.86 15.4499C771.09 13.5699 768.55 12.6299 766.43 11.1299C763.93 9.36989 762.06 6.87989 759.94 4.65989C757.82 2.43989 755.25 0.429891 752.2 0.0598913C749.777 -0.081381 747.356 0.361016 745.14 1.34989C726.77 8.12989 711.73 21.4899 695.26 32.0899C688.85 36.2199 681.67 40.0899 674.08 39.5599L680.78 50.1999C681.1 50.7199 681.43 51.1999 681.78 51.7399C682.13 52.2799 682.48 52.7399 682.85 53.2399C683.794 54.5357 684.988 55.6304 686.36 56.4599C686.706 56.6611 687.067 56.8349 687.44 56.9799C687.767 57.1028 688.101 57.2063 688.44 57.2899C690.83 57.8599 693.44 57.3799 695.86 56.8999C696.69 56.7399 697.52 56.5699 698.34 56.3799L699.34 56.0999H699.5C699.5 56.1599 699.5 56.2099 699.5 56.2599C698.94 57.2599 698.41 58.1699 697.94 59.1599C696.396 62.7434 695.2 66.4673 694.37 70.2799C692.48 77.7799 690.58 85.4399 691.08 93.1399C691.25 95.7399 691.69 98.3999 690.94 100.9C690.58 102.13 689.94 103.39 690.28 104.61C690.637 105.314 690.944 106.043 691.2 106.79C691.36 107.95 690.44 108.95 689.78 109.91C689.12 110.87 688.78 112.4 689.72 113.07C688.768 113.403 687.929 113.997 687.298 114.784C686.667 115.57 686.269 116.518 686.15 117.52C686.171 118.109 686.055 118.694 685.81 119.23C685.529 119.592 685.192 119.906 684.81 120.16C683.795 121.012 683.129 122.208 682.94 123.52C681.01 123.52 679.38 125.4 677.62 126.52C676.08 127.3 674.452 127.891 672.77 128.28C667.94 129.82 663.77 132.99 660 136.33C657.9 138.16 655.78 140.18 654.86 142.8C654.56 143.66 654.4 144.56 654.14 145.43C653.602 147.115 652.82 148.711 651.82 150.17C649.903 153.121 647.541 155.759 644.82 157.99C643.443 159.099 642.23 160.399 641.22 161.85C639.69 164.06 636.58 164.72 634.94 166.85C634.35 167.899 633.682 168.902 632.94 169.85C631.67 171.05 629.75 171.15 628.13 171.85C624.34 173.42 622.59 177.85 619.21 180.19C619.024 180.347 618.783 180.426 618.54 180.41C618.25 180.41 618.08 180.06 617.83 179.89C617.34 179.56 616.69 179.81 616.11 179.96C615.53 180.11 614.75 180.05 614.6 179.47C606.45 174.53 598.44 169.17 590.28 164.23L586.56 161.98L566.66 149.92C566.425 149.773 566.153 149.695 565.875 149.695C565.597 149.695 565.325 149.773 565.09 149.92L564.47 150.35C563.47 149.29 562.36 148.35 561.7 147.57C561.43 147.26 561.16 146.95 560.88 146.65C561.062 146.657 561.243 146.622 561.41 146.55C561.634 146.429 561.803 146.227 561.882 145.985C561.962 145.744 561.947 145.481 561.84 145.25C561.628 144.794 561.313 144.394 560.92 144.08C560.05 143.237 559.251 142.324 558.53 141.35C557.753 140.13 556.874 138.979 555.9 137.91C555.408 137.375 554.802 136.958 554.127 136.689C553.452 136.421 552.725 136.308 552 136.36C551.195 136.514 550.427 136.823 549.74 137.27C547.005 138.859 544.485 140.791 542.24 143.02C542.141 143.091 542.06 143.184 542.002 143.291C541.945 143.399 541.913 143.518 541.91 143.64C541.91 143.84 542.11 143.99 542.13 144.18C542.135 144.365 542.067 144.545 541.94 144.68C540.594 146.351 538.998 147.804 537.21 148.99C534.67 150.89 532.187 152.863 529.76 154.91C528.241 155.99 527.039 157.457 526.28 159.16C525.751 161.135 525.968 163.235 526.89 165.06C528.55 168.97 531.46 172.21 534.34 175.34C534.812 175.984 535.484 176.455 536.25 176.68C536.859 176.764 537.477 176.614 537.98 176.26C539.75 175.1 540.04 172.7 540.17 170.6C540.22 169.6 540.28 168.68 540.34 167.72C540.336 167.527 540.373 167.336 540.45 167.16C540.603 166.942 540.814 166.772 541.06 166.67L543.81 165.22C543.73 165.09 543.64 164.96 543.55 164.83C545.624 164.052 547.883 163.905 550.04 164.41C551.5 164.84 552.84 165.71 554.24 166.25C554.017 168.116 554.366 170.006 555.24 171.67C560.37 172.2 564.99 174.48 569.58 176.78C573.281 178.614 576.879 180.647 580.36 182.87C583.187 184.71 585.953 186.633 588.66 188.64C592.5 191.48 596.21 194.49 599.88 197.53C602.266 199.635 604.832 201.526 607.55 203.18C614.77 207.23 624.45 207.37 631.08 202.32C639.44 195.95 650.08 192.64 659.08 187.13C661.754 185.634 664.196 183.758 666.33 181.56C666.31 181.819 666.27 182.077 666.21 182.33C665.67 184.82 663.52 186.62 662.71 189.14C662.08 191.14 662.31 193.45 661.09 195.14C660.16 196.43 658.42 197.35 658.37 198.94C658.37 199.38 658.5 199.82 658.5 200.26C658.449 200.817 658.286 201.358 658.02 201.85C657.02 204.1 655.9 206.46 653.85 207.85C653.05 208.4 652.03 208.9 651.85 209.85C651.838 210.125 651.767 210.395 651.64 210.64C651.3 211.11 650.55 210.86 650.01 211.06C649.26 211.34 649.14 212.31 648.84 213.06C648.566 213.683 648.102 214.204 647.515 214.548C646.928 214.893 646.248 215.044 645.57 214.98C638.74 214.15 632.03 217.24 625.15 217.06C622.78 216.99 620.42 216.75 618.04 216.73C610.74 216.67 603.59 218.73 596.56 220.73C595.776 222.114 595.293 223.647 595.14 225.23C592.738 225.847 590.232 225.942 587.79 225.51C587.182 225.39 586.568 225.307 585.95 225.26C586.127 224.809 586.182 224.319 586.11 223.84C583.238 224.751 580.477 225.982 577.88 227.51C576.17 228.51 574.36 229.91 574.2 231.88C574.176 232.639 574.285 233.397 574.52 234.12L575.45 237.65C575.564 238.303 575.85 238.914 576.28 239.42C576.59 239.72 577 239.9 577.28 240.22C577.552 240.598 577.736 241.032 577.82 241.49L578.6 244.55C578.891 245.568 579.098 246.608 579.22 247.66C579.31 248.66 579.22 249.58 579.29 250.54C579.395 252.122 579.626 253.694 579.98 255.24L581.09 260.78C581.338 262.328 581.778 263.84 582.4 265.28C582.87 266.28 583.5 267.14 583.88 268.14C584.18 268.91 584.32 269.73 584.68 270.46C585.328 271.646 586.347 272.587 587.58 273.14C588.01 273.393 588.492 273.544 588.99 273.58C590.41 273.58 591.43 272.26 592.09 271C593.406 268.709 594.118 266.121 594.16 263.48C594.16 262.42 593.95 261.37 593.86 260.31C593.62 257.31 594.48 254.39 594.48 251.4C594.512 250.999 594.406 250.599 594.178 250.268C593.951 249.936 593.616 249.693 593.23 249.58C593.32 247.04 593.31 244.35 594.65 242.18C595.314 241.17 596.138 240.275 597.09 239.53C597.46 240.71 597.87 241.88 598.33 243.02C605.94 240.8 613.8 238.66 621.77 238.46ZM784.36 84.8899C783.82 85.0899 783.27 85.2899 782.71 85.4699C778.05 87.0199 772.71 88.5299 767.89 87.4699C766.429 87.0483 765.055 86.3711 763.83 85.4699L763.48 85.2499C770.27 84.0599 777.36 84.3499 784.36 84.8899Z" fill="url(#paint0_linear)"/>
<path d="M811.42 74.6001C813.103 73.8787 814.901 73.4622 816.73 73.3701C817.903 73.4592 819.057 73.7256 820.15 74.1601C822.126 74.7367 823.973 75.6872 825.59 76.9601C826.39 77.6061 827.025 78.4321 827.444 79.3707C827.863 80.3093 828.053 81.3337 828 82.3601C827.77 84.3601 826.29 86.0901 824.67 87.3601C822.472 89.1661 819.751 90.2178 816.91 90.3601C813.73 90.4101 810.73 88.9801 807.66 88.1301C805.427 87.4985 803.121 87.1623 800.8 87.1301C799.632 87.1931 798.461 87.1193 797.31 86.9101C796.733 86.8013 796.19 86.5581 795.724 86.2002C795.259 85.8423 794.884 85.3798 794.63 84.8501C794.34 83.8711 794.34 82.8291 794.63 81.8501C794.86 80.6101 794.82 77.6701 795.92 76.9301C796.8 76.3301 799.92 76.8101 801 76.7201C804.539 76.3848 808.032 75.6741 811.42 74.6001Z" fill="#FBBEBE"/>
<path d="M740.03 54.4702C743.059 57.4327 745.667 60.7975 747.78 64.4702C751.3 70.6102 753.54 77.7502 758.84 82.4702C760.248 83.6556 761.742 84.7353 763.31 85.7002C764.535 86.6009 765.909 87.278 767.37 87.7002C772.13 88.7702 777.47 87.2802 782.11 85.7002C786.703 84.0517 791.16 82.0456 795.44 79.7002C795.47 81.6322 796.008 83.5223 797 85.1802C798.11 86.7502 800.38 87.6702 802 86.6802C797.897 88.6083 794.028 91.0006 790.47 93.8102C789.1 94.9702 787.83 96.2502 786.37 97.3002C781.1 101.09 773.81 101.47 768.94 105.77C768.218 106.428 767.309 106.845 766.339 106.961C765.369 107.078 764.387 106.889 763.53 106.42C761.84 105.42 760.69 103.7 759.3 102.31C756.56 99.5702 752.84 97.9702 750.15 95.1802C748.9 93.8902 747.9 92.3602 746.62 91.1002C744.79 89.3002 742.41 88.1002 740.73 86.1002C739.48 84.6302 738.73 82.8402 737.56 81.2702C736.56 79.9102 735.38 78.7202 734.49 77.2702C732.31 73.8002 732.33 69.2702 733.58 65.3802C734.83 61.4902 737.7 57.8602 740.03 54.4702Z" fill="#F59B66"/>
<path opacity="0.1" d="M740.03 54.4702C743.059 57.4327 745.667 60.7975 747.78 64.4702C751.3 70.6102 753.54 77.7502 758.84 82.4702C760.248 83.6556 761.742 84.7353 763.31 85.7002C764.535 86.6009 765.909 87.278 767.37 87.7002C772.13 88.7702 777.47 87.2802 782.11 85.7002C786.703 84.0517 791.16 82.0456 795.44 79.7002C795.47 81.6322 796.008 83.5223 797 85.1802C798.11 86.7502 800.38 87.6702 802 86.6802C797.897 88.6083 794.028 91.0006 790.47 93.8102C789.1 94.9702 787.83 96.2502 786.37 97.3002C781.1 101.09 773.81 101.47 768.94 105.77C768.218 106.428 767.309 106.845 766.339 106.961C765.369 107.078 764.387 106.889 763.53 106.42C761.84 105.42 760.69 103.7 759.3 102.31C756.56 99.5702 752.84 97.9702 750.15 95.1802C748.9 93.8902 747.9 92.3602 746.62 91.1002C744.79 89.3002 742.41 88.1002 740.73 86.1002C739.48 84.6302 738.73 82.8402 737.56 81.2702C736.56 79.9102 735.38 78.7202 734.49 77.2702C732.31 73.8002 732.33 69.2702 733.58 65.3802C734.83 61.4902 737.7 57.8602 740.03 54.4702Z" fill="black"/>
<path d="M562.3 146.82C561.525 145.803 560.569 144.939 559.48 144.27C557.825 143.536 555.98 143.347 554.21 143.73C549.75 144.41 545.61 146.45 541.69 148.73C538.53 150.54 535.39 152.55 533.13 155.4C532.386 156.259 531.867 157.29 531.62 158.4C531.492 159.316 531.57 160.249 531.85 161.13C532.051 162.122 532.477 163.055 533.096 163.856C533.715 164.657 534.511 165.305 535.42 165.75C537.51 166.57 539.84 165.7 541.94 164.9C544.76 163.81 547.86 162.8 550.76 163.66C552.91 164.3 554.76 165.93 557.03 165.99C559.7 166.07 561.86 163.91 563.56 161.85C565.03 160.05 568.25 156.8 568.04 154.27C567.83 151.74 563.88 148.63 562.3 146.82Z" fill="#FBBEBE"/>
<path d="M596 224.65C593.553 225.302 590.992 225.408 588.5 224.96C586.98 224.68 585.12 224.32 584.15 225.51C583.837 225.951 583.629 226.457 583.54 226.99C581.05 237.18 583.33 247.99 587.54 257.64C587.593 257.803 587.69 257.948 587.82 258.06C588.09 258.26 588.46 258.12 588.77 257.99C589.789 257.58 590.742 257.025 591.6 256.34C593.52 254.6 593.93 251.77 594.02 249.18C594.11 246.59 594.07 243.85 595.41 241.63C597.09 238.88 600.6 237.54 601.98 234.63C603.09 232.26 602.51 229.45 601.53 227.03C601.2 226.19 601.07 224.03 600.29 223.62C599.51 223.21 596.89 224.41 596 224.65Z" fill="#FBBEBE"/>
<path d="M562.01 145.8C562.232 145.677 562.399 145.474 562.477 145.233C562.555 144.992 562.538 144.73 562.43 144.5C562.215 144.043 561.901 143.64 561.51 143.32C560.638 142.478 559.842 141.561 559.13 140.58C558.345 139.367 557.465 138.216 556.5 137.14C556.01 136.606 555.405 136.188 554.732 135.918C554.059 135.648 553.334 135.533 552.61 135.58C551.807 135.724 551.041 136.03 550.36 136.48C547.64 138.057 545.136 139.979 542.91 142.2C542.74 142.37 542.55 142.58 542.59 142.82C542.63 143.06 542.79 143.16 542.81 143.36C542.816 143.541 542.752 143.717 542.63 143.85C541.294 145.514 539.709 146.961 537.93 148.14C535.41 150.034 532.943 152 530.53 154.04C529.02 155.114 527.829 156.576 527.08 158.27C526.569 160.245 526.793 162.338 527.71 164.16C529.38 168.08 532.29 171.32 535.16 174.47C535.641 175.113 536.313 175.585 537.08 175.82C537.686 175.902 538.3 175.752 538.8 175.4C540.55 174.25 540.8 171.85 540.95 169.76L541.11 166.87C541.106 166.681 541.143 166.493 541.22 166.32C541.37 166.1 541.583 165.93 541.83 165.83L544.55 164.39C543.718 163.037 542.535 161.936 541.126 161.203C539.717 160.471 538.135 160.134 536.55 160.23C535.825 160.403 535.063 160.299 534.41 159.94C534.095 159.612 533.919 159.175 533.919 158.72C533.919 158.265 534.095 157.828 534.41 157.5C535.073 156.87 535.885 156.419 536.77 156.19C543.94 153.56 550.42 149.34 557.38 146.19C558.142 145.804 558.986 145.609 559.84 145.62C560.54 145.67 561.36 146.08 562.01 145.8Z" fill="#F59B66"/>
<path d="M590.26 250.52C589.94 251.12 589.83 251.82 589.48 252.41C589.13 253 588.37 253.41 587.78 253.11C587.47 252.892 587.238 252.58 587.12 252.22C584.088 245.284 583.233 237.592 584.67 230.16C584.869 228.944 585.229 227.761 585.74 226.64C586.27 225.56 587.04 224.46 586.82 223.28C583.965 224.18 581.221 225.401 578.64 226.92C576.94 227.92 575.15 229.31 574.99 231.27C574.975 232.03 575.086 232.787 575.32 233.51L576.26 237.04C576.374 237.695 576.664 238.307 577.1 238.81C577.4 239.11 577.81 239.3 578.1 239.62C578.375 239.992 578.56 240.424 578.64 240.88L579.43 243.94C579.724 244.961 579.935 246.004 580.06 247.06C580.15 248.06 580.06 248.98 580.14 249.94C580.253 251.519 580.487 253.087 580.84 254.63L581.97 260.17C582.225 261.718 582.668 263.229 583.29 264.67C583.76 265.67 584.39 266.53 584.78 267.54C585.07 268.31 585.22 269.13 585.58 269.86C586.23 271.043 587.243 271.987 588.47 272.55C588.901 272.802 589.383 272.955 589.88 273C591.29 273.05 592.3 271.68 592.96 270.42C594.25 268.129 594.938 265.549 594.96 262.92C594.96 261.86 594.74 260.81 594.65 259.75C594.4 256.75 595.24 253.84 595.23 250.85C595.25 248.05 591.29 248.58 590.26 250.52Z" fill="#F59B66"/>
<path d="M736.98 76.2899C733.864 74.8562 731.125 72.7163 728.98 70.0399C727.877 68.6287 726.874 67.1417 725.98 65.5899C722.182 59.1801 718.921 52.4672 716.23 45.5199C720.49 46.3899 724.96 47.1799 729.15 45.9799C731.335 45.3138 733.372 44.2343 735.15 42.7999C737.428 40.9266 739.543 38.8625 741.47 36.6299C742.927 39.4221 744.598 42.0968 746.47 44.6299C747.54 46.0699 751.16 48.9999 750.89 50.9599C750.62 52.9199 746.62 53.8999 745 54.8299L744.83 54.9399C742.441 56.45 740.355 58.3934 738.68 60.6699C735.54 65.1299 734.45 71.3499 736.98 76.2899Z" fill="#FBBEBE"/>
<path opacity="0.1" d="M745.08 54.7901C742.676 53.6099 740.553 51.9281 738.854 49.8581C737.155 47.7881 735.919 45.378 735.23 42.7901C737.508 40.9169 739.623 38.8527 741.55 36.6201C743.007 39.4123 744.679 42.0871 746.55 44.6201C747.62 46.0601 751.24 48.9901 750.97 50.9501C750.7 52.9101 746.7 53.8601 745.08 54.7901Z" fill="black"/>
<path d="M754.08 56.2598C764.424 56.2598 772.81 47.8741 772.81 37.5298C772.81 27.1855 764.424 18.7998 754.08 18.7998C743.736 18.7998 735.35 27.1855 735.35 37.5298C735.35 47.8741 743.736 56.2598 754.08 56.2598Z" fill="#FBBEBE"/>
<path d="M713.11 154.2C711.814 154.977 710.339 155.405 708.828 155.442C707.317 155.479 705.822 155.123 704.49 154.41C703.103 153.555 701.85 152.5 700.77 151.28C694.62 144.97 688.77 138.28 684.66 130.45C683.704 128.798 683.086 126.973 682.84 125.08C682.724 124.134 682.839 123.174 683.176 122.283C683.512 121.391 684.059 120.594 684.77 119.96C685.152 119.707 685.49 119.393 685.77 119.03C686.011 118.497 686.124 117.915 686.1 117.33C686.211 116.333 686.603 115.387 687.229 114.603C687.856 113.819 688.692 113.228 689.64 112.9C688.64 112.22 689.04 110.71 689.69 109.74C690.34 108.77 691.25 107.74 691.09 106.62C690.834 105.873 690.527 105.145 690.17 104.44C689.81 103.22 690.46 101.96 690.81 100.74C691.54 98.2401 691.1 95.5801 690.92 92.9801C690.39 85.2801 692.26 77.6401 694.11 70.1501C694.928 66.3467 696.107 62.6299 697.63 59.0501C698.1 58.0501 698.63 57.0501 699.17 56.1601C701.059 53.0998 703.161 50.176 705.46 47.4101C706.537 45.7829 708.014 44.4605 709.75 43.5701C709.913 43.4997 710.08 43.4396 710.25 43.3901C711.496 43.0683 712.79 42.9701 714.07 43.1001C717.45 43.3101 721 44.1001 723.41 46.4801C725.82 48.8601 726.6 52.2001 727.69 55.4201C728.037 56.4978 728.458 57.5503 728.95 58.5701C730.54 61.7301 733.13 64.2501 735.68 66.7001L738.45 69.3701C739.84 70.7101 742.25 70.3701 743.56 71.7801C744.093 72.4428 744.491 73.2039 744.73 74.0201C746.21 77.627 747.072 81.4571 747.28 85.3501C747.29 86.2159 747.24 87.0813 747.13 87.9401C746.791 90.954 745.458 93.7689 743.34 95.9401C740.94 98.2501 737.6 99.3901 735.21 101.71C733.21 103.63 732.05 106.2 730.91 108.71C728.71 113.55 726.507 118.397 724.3 123.25C722.702 126.571 721.329 129.995 720.19 133.5C718.11 140.49 719.29 150.35 713.11 154.2Z" fill="#F59B66"/>
<path d="M655.36 236.6C650.42 236.8 645.47 236.74 640.55 237.21C637.68 237.49 634.82 237.96 631.94 238.08C628.8 238.22 625.65 237.97 622.5 238.03C614.57 238.2 606.75 240.31 599.12 242.49C596.966 237.23 595.842 231.604 595.81 225.92C595.79 225.544 595.79 225.167 595.81 224.79C595.949 223.181 596.43 221.619 597.22 220.21C604.22 218.21 611.32 216.21 618.59 216.31C620.96 216.31 623.31 216.59 625.67 216.66C632.52 216.87 639.18 213.8 645.98 214.66C646.654 214.727 647.332 214.578 647.916 214.234C648.5 213.891 648.96 213.372 649.23 212.75C649.52 212.01 649.64 211.04 650.39 210.75C650.93 210.55 651.67 210.8 652.01 210.34C652.131 210.093 652.202 209.825 652.22 209.55C652.42 208.55 653.43 208.1 654.22 207.55C656.22 206.17 657.35 203.81 658.35 201.55C658.613 201.061 658.773 200.523 658.82 199.97C658.82 199.53 658.68 199.09 658.69 198.64C658.69 197.06 660.46 196.15 661.38 194.86C662.59 193.16 662.38 190.86 662.97 188.86C663.77 186.34 665.9 184.55 666.43 182.07C666.49 181.817 666.53 181.56 666.55 181.3C664.429 183.488 662 185.354 659.34 186.84C650.46 192.31 639.84 195.58 631.55 201.91C624.97 206.91 615.33 206.76 608.13 202.69C605.415 201.029 602.852 199.132 600.47 197.02C596.81 194.02 593.11 190.95 589.28 188.09C586.613 186.09 583.85 184.16 580.99 182.3C577.527 180.01 573.942 177.91 570.25 176.01C565.67 173.69 561.06 171.39 555.96 170.84C555.305 169.502 554.941 168.04 554.892 166.55C554.844 165.061 555.113 163.578 555.68 162.2C556.845 159.459 558.423 156.913 560.36 154.65C561.81 152.525 563.624 150.673 565.72 149.18C565.953 149.033 566.224 148.954 566.5 148.954C566.776 148.954 567.047 149.033 567.28 149.18L587.1 161.35L590.81 163.62C598.94 168.62 606.94 173.97 615.07 178.94C615.22 179.51 616.01 179.58 616.58 179.43C617.15 179.28 617.8 179.04 618.29 179.37C618.53 179.53 618.7 179.83 619 179.89C619.239 179.898 619.473 179.82 619.66 179.67C623.02 177.36 624.74 172.92 628.51 171.37C630.12 170.71 632.03 170.61 633.29 169.37C634.035 168.425 634.704 167.422 635.29 166.37C636.92 164.24 640.01 163.6 641.52 161.37C642.52 159.926 643.722 158.633 645.09 157.53C647.813 155.313 650.175 152.684 652.09 149.74C653.079 148.286 653.85 146.696 654.38 145.02C654.64 144.15 654.8 143.25 655.09 142.39C656 139.77 658.09 137.76 660.18 135.94C663.97 132.62 668.06 129.47 672.86 127.94C674.534 127.552 676.156 126.965 677.69 126.19C679.62 125.01 681.39 122.82 683.6 123.33C684.438 123.59 685.194 124.066 685.79 124.71C688.501 127.346 690.992 130.199 693.24 133.24C696.807 137.78 700.37 142.323 703.93 146.87C705.053 148.505 706.474 149.913 708.12 151.02C710.507 152.249 713.249 152.602 715.87 152.02C715.52 155.73 712.57 158.79 711.35 162.31C710.76 164.02 710.53 165.84 710.09 167.59C709.47 169.786 708.678 171.929 707.72 174C705.32 179.59 702.9 185.21 699.46 190.23C697.68 192.84 695.63 195.23 693.62 197.68C685.69 207.25 679.62 218.79 670.62 227.4C668.44 229.51 667.06 232.4 664.62 234.21C661.97 236.17 658.55 236.47 655.36 236.6Z" fill="#434175"/>
<path opacity="0.1" d="M693.04 109.72C692.158 109.763 691.3 110.021 690.54 110.47C692.37 109.83 694.6 111.54 696.29 110.73C697.08 110.35 696.96 110.24 696.29 110.01C695.28 109.67 694.06 109.98 693.04 109.72Z" fill="black"/>
<path d="M1008.74 440.179L935.241 466.28L939.926 479.473L1013.43 453.372L1008.74 440.179Z" fill="#D0D2D5"/>
<path d="M959.83 493.637L1026.74 469.879C1028.49 469.257 1030.41 469.356 1032.09 470.154C1033.76 470.952 1035.05 472.383 1035.68 474.133C1036.3 475.882 1036.2 477.807 1035.4 479.483C1034.6 481.159 1033.17 482.45 1031.42 483.071L964.514 506.83L959.83 493.637V493.637Z" fill="#D0D2D5"/>
<path d="M896.087 452.598L912.39 446.809C926.886 441.662 942.833 442.483 956.722 449.094C970.612 455.704 981.307 467.561 986.455 482.057L992.244 498.359C994.257 504.028 993.935 510.264 991.351 515.695C988.766 521.126 984.129 525.309 978.461 527.321L928.874 544.93C923.206 546.942 916.97 546.621 911.539 544.036C906.107 541.451 901.925 536.815 899.912 531.146L882.304 481.56C880.291 475.892 880.613 469.656 883.198 464.224C885.782 458.793 890.419 454.611 896.087 452.598V452.598Z" fill="#3F3D56"/>
<path opacity="0.1" d="M692.14 119.48C691.462 119.242 690.732 119.197 690.03 119.35C688.983 119.461 688.009 119.939 687.28 120.7C687.473 120.787 687.683 120.832 687.895 120.832C688.107 120.832 688.317 120.787 688.51 120.7C689.163 120.534 689.836 120.46 690.51 120.48C691.09 120.48 692.82 121.12 693.27 120.84C693.93 120.41 692.59 119.65 692.14 119.48Z" fill="black"/>
<path opacity="0.1" d="M747.13 87.9398C745.624 87.4308 744.187 86.739 742.85 85.8798C739.34 83.6498 736.39 80.6198 732.92 78.3398C731.168 77.2389 729.355 76.2373 727.49 75.3398L715.78 69.3398C714.887 68.8319 713.933 68.4419 712.94 68.1798C711.03 67.7598 708.88 69.0398 706.94 68.7698C705.934 68.585 704.98 68.189 704.138 67.6081C703.297 67.0272 702.589 66.2746 702.06 65.3998C701.003 63.652 700.258 61.7333 699.86 59.7298C699.562 58.5483 699.338 57.3493 699.19 56.1398C699.016 54.8837 698.993 53.6114 699.12 52.3498C699.32 49.8441 700.507 47.5204 702.42 45.8898C703.808 44.9037 705.39 44.2222 707.06 43.8898C708.113 43.6234 709.187 43.4461 710.27 43.3598C710.886 43.3098 711.504 43.3098 712.12 43.3598C716.54 43.7098 720.28 46.7098 723.23 50.0098C724.78 51.7498 726.23 53.6198 727.71 55.3898C728.057 56.4675 728.478 57.52 728.97 58.5398C730.56 61.6998 733.15 64.2198 735.7 66.6698L738.47 69.3398C739.86 70.6798 742.27 70.3398 743.58 71.7498C744.113 72.4124 744.511 73.1735 744.75 73.9898C746.226 77.6073 747.081 81.4478 747.28 85.3498C747.29 86.2155 747.24 87.0809 747.13 87.9398V87.9398Z" fill="black"/>
<path opacity="0.1" d="M656.06 215.92L595.8 224.79C595.939 223.18 596.42 221.619 597.21 220.21C604.21 218.21 611.31 216.21 618.58 216.31C620.95 216.31 623.3 216.59 625.66 216.66C632.51 216.87 639.17 213.8 645.97 214.66C646.644 214.727 647.322 214.578 647.906 214.234C648.49 213.891 648.95 213.371 649.22 212.75C649.51 212.01 649.63 211.04 650.38 210.75C650.92 210.55 651.66 210.8 652 210.34C652.121 210.093 652.192 209.825 652.21 209.55C652.41 208.55 653.42 208.1 654.21 207.55C656.21 206.17 657.34 203.81 658.34 201.55C658.603 201.061 658.763 200.523 658.81 199.97C658.81 199.53 658.67 199.09 658.68 198.64C658.68 197.06 660.45 196.15 661.37 194.86C662.58 193.16 662.37 190.86 662.96 188.86C663.76 186.34 665.89 184.55 666.42 182.07L666.68 181.73L676.94 177.73L656.06 215.92Z" fill="black"/>
<path opacity="0.1" d="M425 701.67C659.721 701.67 850 686.895 850 668.67C850 650.445 659.721 635.67 425 635.67C190.279 635.67 0 650.445 0 668.67C0 686.895 190.279 701.67 425 701.67Z" fill="#2524E9"/>
<path opacity="0.1" d="M800.72 788.69C952.598 788.69 1075.72 772.675 1075.72 752.92C1075.72 733.165 952.598 717.15 800.72 717.15C648.842 717.15 525.72 733.165 525.72 752.92C525.72 772.675 648.842 788.69 800.72 788.69Z" fill="#2524E9"/>
<path d="M475.25 641.95L475.53 627.79C488.863 627.03 502.197 626.523 515.53 626.27C523.27 626.13 531.11 626.08 538.6 628.02C543.79 629.37 548.7 631.65 553.82 633.25C564.02 636.43 574.82 636.85 585.53 637.14C595.92 637.43 606.77 637.53 616.1 632.94C632.25 624.94 639.04 605.29 639.83 587.3C640.62 569.31 637.04 551.18 639.53 533.3" stroke="#3F3D56" stroke-width="12" stroke-miterlimit="10"/>
<path d="M511.81 669.66L333.62 667.38L334.14 662.81L342.76 587.42H499.24L510.76 662.81L511.64 668.52L511.81 669.66Z" fill="#D0D2D5"/>
<path opacity="0.1" d="M511.64 668.52H422.71L333.62 667.38L334.14 662.81H510.76L511.64 668.52Z" fill="black"/>
<path d="M540.37 663.95H303.92V669.66H540.37V663.95Z" fill="#D0D2D5"/>
<path d="M765.96 134.62C765.977 132.662 765.608 130.72 764.872 128.906C764.137 127.091 763.051 125.44 761.676 124.046C760.3 122.652 758.664 121.544 756.859 120.784C755.055 120.025 753.118 119.629 751.16 119.62H90.84C88.8826 119.631 86.9464 120.027 85.1425 120.787C83.3385 121.547 81.7023 122.656 80.3274 124.049C78.9526 125.442 77.8662 127.093 77.1305 128.907C76.3948 130.721 76.0242 132.663 76.04 134.62V534.88H765.96V134.62Z" fill="#3F3D56"/>
<path d="M76.04 530.88V577.77C76.04 581.695 77.5993 585.46 80.3749 588.235C83.1504 591.011 86.9148 592.57 90.84 592.57H751.16C755.085 592.57 758.85 591.011 761.625 588.235C764.401 585.46 765.96 581.695 765.96 577.77V530.88H76.04Z" fill="#D0D2D5"/>
<path d="M740.83 144.8H104.6V504.61H740.83V144.8Z" fill="#2F2E41"/>
<path d="M424.43 574.78C426.766 574.78 429.071 574.251 431.172 573.23C433.274 572.21 435.116 570.726 436.56 568.89V568.89C437.001 568.329 437.402 567.737 437.76 567.12L429.3 565.73L438.45 565.8C439.328 563.89 439.806 561.821 439.856 559.72C439.906 557.619 439.526 555.529 438.74 553.58L426.47 559.95L437.79 551.63C436.746 549.768 435.326 548.142 433.621 546.857C431.915 545.572 429.962 544.655 427.883 544.164C425.805 543.673 423.648 543.62 421.548 544.006C419.448 544.393 417.451 545.212 415.684 546.41C413.917 547.609 412.418 549.162 411.282 550.97C410.146 552.778 409.398 554.803 409.086 556.915C408.773 559.027 408.903 561.182 409.467 563.241C410.03 565.301 411.016 567.221 412.36 568.88V568.88C413.795 570.712 415.627 572.194 417.718 573.216C419.808 574.238 422.103 574.772 424.43 574.78V574.78Z" fill="#2524E9"/>
<path opacity="0.1" d="M439.85 592.56L510.94 663.95L500.03 592.56H439.85Z" fill="black"/>
<path d="M745.18 141.87L783.36 91.2798C785.64 88.2798 787.99 85.1498 791.12 82.9898C800.12 76.7698 813.31 80.4498 820.84 88.4198C828.37 96.3898 831.53 107.48 833.84 118.2C839.22 142.874 841.624 168.104 841 193.35C840.68 206.64 839.49 220.07 835.26 232.68C828.84 251.86 815.83 268.01 806 285.68C790.17 314.15 783.54 352.12 803.58 377.81C810.11 386.18 819 392.58 825.03 401.32C831.84 411.19 834.49 423.26 837.03 434.98C840.82 452.68 844.62 470.49 845.32 488.58C847.58 547.07 814.23 605.51 762.73 633.33C726.98 652.65 683.73 658.25 652.64 684.45C641.64 693.68 632.16 707.25 634.86 721.31C637.06 732.72 647.08 741.39 658.08 745.16C669.08 748.93 681.01 748.62 692.61 747.96C720.472 746.367 748.198 742.943 775.61 737.71C798.84 733.27 822.03 729.44 842.28 717.22C844.309 716.147 846.044 714.591 847.33 712.69C848.64 710.5 848.86 707.85 849.04 705.3C849.59 697.79 850.11 690 847.46 682.95C844.37 674.71 837.32 668.47 833.94 660.35C830.56 652.23 831.17 642.88 833.36 634.35C836.06 623.81 840.97 613.99 845.91 604.3C850.72 594.86 855.6 585.45 861.26 576.5C877.2 551.34 898.98 530.5 920.53 509.95" stroke="#3F3D56" stroke-width="12" stroke-miterlimit="10"/>
<path d="M808.36 69.3501C810.04 68.6193 811.84 68.2024 813.67 68.1201C814.842 68.2112 815.994 68.474 817.09 68.9001C819.066 69.4802 820.913 70.4341 822.53 71.7101C823.331 72.355 823.967 73.1809 824.386 74.1197C824.805 75.0585 824.995 76.0835 824.94 77.1101C824.71 79.1101 823.23 80.8301 821.61 82.1101C819.413 83.9192 816.692 84.9713 813.85 85.1101C810.67 85.1101 807.67 83.7301 804.6 82.8701C802.367 82.2384 800.06 81.9022 797.74 81.8701C796.572 81.9298 795.4 81.8526 794.25 81.6401C793.674 81.5331 793.13 81.2917 792.665 80.9355C792.199 80.5793 791.824 80.1184 791.57 79.5901C791.295 78.626 791.295 77.6042 791.57 76.6401C791.81 75.4001 791.77 72.4501 792.87 71.7101C793.75 71.1201 796.87 71.6001 797.95 71.5101C801.485 71.1515 804.974 70.4276 808.36 69.3501V69.3501Z" fill="#FBBEBE"/>
<path d="M794.49 70.3499C790.35 72.2499 785.49 70.6699 780.99 70.6599C778.78 70.6599 776.58 71.0299 774.38 71.1599C771.942 71.2466 769.501 71.1832 767.07 70.9699L759.75 70.4699C755.437 70.3267 751.151 69.7369 746.96 68.7099C743.38 64.4899 737.57 62.6299 733.25 59.1899C729.79 56.4299 727.31 52.6699 724.36 49.3599C721.41 46.0499 717.67 43.0599 713.26 42.7099C711.552 42.6246 709.842 42.8068 708.19 43.2499C706.521 43.5757 704.942 44.2579 703.56 45.2499C702.611 46.0558 701.831 47.0415 701.265 48.1502C700.698 49.2589 700.357 50.4687 700.26 51.7099C700.078 54.1935 700.325 56.69 700.99 59.0899C701.388 61.0966 702.133 63.0186 703.19 64.7699C703.725 65.6413 704.437 66.3912 705.279 66.9715C706.121 67.5518 707.075 67.9498 708.08 68.1399C710.01 68.3999 712.15 67.1399 714.08 67.5399C715.073 67.8021 716.028 68.192 716.92 68.6999L728.64 74.6999C730.5 75.5996 732.31 76.6011 734.06 77.6999C737.54 79.9799 740.48 83.0099 743.99 85.2399C747.5 87.4699 751.93 88.8699 755.83 87.4099C767.83 82.9399 781.35 85.0199 794.08 86.1299C794 85.8899 794.52 85.6699 794.67 85.4699C796.245 83.3088 796.958 80.6384 796.67 77.9799C796.36 75.3499 795.36 72.8699 794.49 70.3499Z" fill="#F59B66"/>
<path d="M774.36 36.6598C775.606 36.0868 776.651 35.1532 777.36 33.9798C778.5 31.8698 777.8 29.2798 777.02 26.9798C776.24 24.6798 775.45 22.6698 774.58 20.5498C773.957 18.7708 773.015 17.1204 771.8 15.6798C770.03 13.7898 767.5 12.8398 765.39 11.3498C762.89 9.57976 761.02 7.06976 758.91 4.85976C756.8 2.64976 754.22 0.59976 751.18 0.22976C748.839 0.112119 746.502 0.54718 744.36 1.49976C726.1 8.20976 711.17 21.4998 694.82 32.0398C688.46 36.1498 681.32 39.9798 673.82 39.4298L680.53 50.0898C682.24 52.8198 684.16 55.7098 687.16 56.8798C689.81 57.8798 692.77 57.3798 695.55 56.8798C697.763 56.5593 699.917 55.9122 701.94 54.9598C705.94 52.7898 708.51 48.2798 712.81 46.7098C716.02 45.5398 719.6 46.2598 722.81 47.3798C726.02 48.4998 729.17 50.0198 732.55 50.4798C738.55 51.2898 744.55 48.5798 749.55 45.0798C752.55 42.9998 755.28 40.6098 758.55 39.0798C761.01 37.8033 763.802 37.3112 766.55 37.6698C769.58 38.0898 771.36 38.2298 774.36 36.6598Z" fill="#2F2E41"/>
<path opacity="0.1" d="M777.36 33.9801C778.48 31.9101 777.82 29.3701 777.06 27.1401C777.307 28.4178 777.131 29.7409 776.56 30.9101C775.844 32.0778 774.801 33.0096 773.56 33.5901C770.56 35.1701 768.74 35.0301 765.66 34.5201C762.912 34.168 760.122 34.6598 757.66 35.9301C754.41 37.5001 751.66 39.9301 748.66 41.9301C743.66 45.4301 737.66 48.1301 731.66 47.3201C728.27 46.8701 725.14 45.3201 721.92 44.2201C718.7 43.1201 715.11 42.3801 711.92 43.5501C707.63 45.1201 705.09 49.6401 701.06 51.8001C699.036 52.7512 696.883 53.3982 694.67 53.7201C691.88 54.2601 688.92 54.7901 686.28 53.7201C683.28 52.5601 681.36 49.6601 679.64 46.9301L674.89 39.3801C674.51 39.3801 674.12 39.3801 673.74 39.3801L680.45 50.0401C682.16 52.7701 684.08 55.6601 687.08 56.8301C689.73 57.8301 692.69 57.3301 695.47 56.8301C697.683 56.5097 699.837 55.8626 701.86 54.9101C705.86 52.7401 708.43 48.2301 712.73 46.6601C715.94 45.4901 719.52 46.2101 722.73 47.3301C725.94 48.4501 729.09 49.9701 732.47 50.4301C738.47 51.2401 744.47 48.5301 749.47 45.0301C752.47 42.9501 755.2 40.5601 758.47 39.0301C760.93 37.7537 763.722 37.2616 766.47 37.6201C769.55 38.1201 771.37 38.2601 774.36 36.6901C775.61 36.1092 776.655 35.1647 777.36 33.9801V33.9801Z" fill="black"/>
<path d="M829.06 718.01C829.65 717.09 830.386 716.272 831.24 715.59C835.61 711.47 837.64 705.41 838.72 699.47C839.8 693.53 840.11 687.47 841.84 681.66C842.775 678.679 843.952 675.779 845.36 672.99C846.36 670.85 847.61 666.65 849.45 665.16C849.808 664.848 850.243 664.637 850.71 664.55C851.57 662.71 852.802 661.068 854.33 659.73C857.19 657.14 860.68 655.08 862.59 651.73C863.113 650.567 863.76 649.464 864.52 648.44C865.81 647.01 867.85 646.44 869.04 644.93C870.59 642.99 870.24 640.22 870.04 637.74C869.84 635.26 870.04 632.31 872.18 631.02C873.46 630.23 875.11 630.3 876.44 629.61C878.44 628.61 879.23 626.08 879.19 623.83C879.15 621.58 878.45 619.39 878.27 617.15C877.71 609.99 882.43 602.87 880.6 595.93C879.91 593.3 878.34 591.01 877.17 588.57C876.77 587.751 876.436 586.902 876.17 586.03C873.054 587.268 869.778 588.059 866.44 588.38C871.95 576.02 870.55 561.65 873.12 548.38L872.79 547.92C870.189 544.503 868.714 540.362 868.57 536.07C868.57 531.07 870.88 526.5 871.92 521.67C872.8 517.55 872.77 513.26 873.92 509.22C874.726 506.711 875.788 504.291 877.09 502C878.34 499.68 879.65 497.41 881.02 495.17C882.3 490.93 883.583 486.69 884.87 482.45C886.67 476.45 888.52 470.45 892.02 465.31C893.3 463.42 893.69 459.61 895.66 458.47C897.258 457.637 899.074 457.319 900.86 457.56C903.64 456 906.08 453.75 906.43 450.67C906.465 449.997 906.397 449.323 906.23 448.67H905.89C901.48 448.26 899.26 444.38 896.97 440.99C893.26 435.48 894.68 428.04 896.97 421.79C897.538 419.814 898.566 418.001 899.97 416.5C903.18 413.5 908.26 414.16 912.4 412.71C913.743 412.123 915.114 411.606 916.51 411.16C919.26 410.51 922.14 411.42 924.66 412.68C927.18 413.94 929.53 415.6 932.17 416.6C934.81 417.6 938.07 418.39 938.72 421.1C938.904 422.013 938.824 422.96 938.49 423.83C937.884 425.564 936.819 427.102 935.41 428.28C936.534 430.598 937.142 433.133 937.192 435.709C937.242 438.285 936.733 440.841 935.7 443.201C934.667 445.561 933.134 447.669 931.207 449.38C929.281 451.091 927.006 452.363 924.54 453.11C923.78 454.32 923.07 455.57 922.42 456.84C921.26 459.08 920.28 461.72 920.67 464.12C921.396 464.883 922.064 465.699 922.67 466.56C925.54 470.56 927.17 475.26 928.67 479.94C930.694 485.914 932.311 492.018 933.51 498.21C935.95 503.39 938.93 508.35 940.7 513.8C943.869 513.807 947.024 513.387 950.08 512.55L958.52 510.63C961.45 509.97 964.52 509.25 966.82 507.31C968.04 506.31 968.99 504.98 970.23 503.98C971.47 502.98 973.96 501.83 975.32 502.65C975.569 502.801 975.8 502.979 976.01 503.18C977.24 500.68 985.11 510.91 979.73 511.92L980.08 512.92C980.79 514.99 982.3 517.51 981.92 519.67L944.36 532.56C941.952 533.536 939.396 534.101 936.8 534.23C935.787 534.222 934.78 534.087 933.8 533.83V535.75V535.82C933.7 549.01 935.8 562.12 936.19 575.3C936.26 577.7 936.19 580.3 934.67 582.18C932.97 584.24 929.95 584.64 927.32 584.18C926.693 584.079 926.072 583.942 925.46 583.77C924.571 587.085 923.93 590.461 923.54 593.87L921.05 611.63C920.726 613.458 920.595 615.315 920.66 617.17C920.95 621.35 923.16 625.11 924.76 628.98C926.36 632.85 927.31 637.48 925.2 641.09C924.55 642.21 923.64 643.17 923.05 644.33C922.3 646.122 921.959 648.059 922.05 650C921.897 655.4 921.75 660.793 921.61 666.18C922.048 666.117 922.493 666.209 922.87 666.44C924.95 668.05 924.72 675.77 924.87 678.16C925.03 682.16 924.87 686.24 925.09 690.28C925.36 695.742 926.259 701.154 927.77 706.41C928.131 708.116 928.919 709.702 930.06 711.02C931.228 712.033 932.62 712.756 934.12 713.13C939.106 714.69 944.319 715.4 949.54 715.23C951.65 715.16 953.85 714.96 955.81 715.76C957.77 716.56 959.35 718.76 958.64 720.76C958.03 722.44 956.18 723.24 954.51 723.87C950.694 725.21 947.011 726.904 943.51 728.93C942.16 729.851 940.735 730.657 939.25 731.34C937.832 731.852 936.364 732.214 934.87 732.42L917.15 735.42C913.52 736.05 909.15 736.42 906.84 733.42C905.59 731.8 905.41 729.6 905.47 727.55C905.57 723.55 906.37 719.48 905.84 715.48C905.453 713.111 904.834 710.787 903.99 708.54L898.67 692.82C896.89 687.55 895.09 682.24 894.4 676.72C894.15 674.72 894.17 672.45 895.7 671.2C896.087 670.883 896.537 670.651 897.02 670.52C897.08 665.7 897.71 660.87 897.44 656.05C897.37 654.85 897.25 653.64 897.15 652.44C896.215 653.316 895.383 654.295 894.67 655.36C892.97 658.03 892.34 661.57 889.73 663.36C887.51 664.88 884.22 664.8 882.66 667C882.159 667.845 881.782 668.758 881.54 669.71C880.628 672.065 879.27 674.221 877.54 676.06C876.938 678.253 876.11 680.378 875.07 682.4C873.597 685.5 872.13 688.6 870.67 691.7C869.1 695.02 867.52 698.34 865.67 701.48C864.267 703.472 863.14 705.645 862.32 707.94C860.91 712.88 863.2 718.3 866.85 721.94C870.5 725.58 875.29 727.67 880.01 729.62C880.513 729.785 880.974 730.058 881.36 730.42C881.767 730.907 881.981 731.526 881.96 732.16C881.96 734.47 880.07 736.45 877.89 737.16C875.662 737.758 873.326 737.844 871.06 737.41C858.28 735.86 845.54 732.74 834.24 726.53C832.55 725.724 831.05 724.569 829.84 723.14C829.27 722.429 828.898 721.58 828.761 720.68C828.625 719.779 828.728 718.858 829.06 718.01V718.01Z" fill="url(#paint1_linear)"/>
<path d="M883.08 493.76C880.953 497.027 878.953 500.38 877.08 503.82C875.774 506.088 874.712 508.488 873.91 510.98C872.74 514.98 872.78 519.26 871.91 523.34C870.91 528.14 868.57 532.72 868.57 537.63C868.717 541.897 870.192 546.012 872.79 549.4C875.38 552.754 878.339 555.806 881.61 558.5C889.161 538.937 893.38 518.247 894.09 497.29C894.19 494.39 894.2 491.39 893.15 488.69C892.49 486.99 889.38 482.33 887.37 484.16C886.64 484.83 886.45 487.85 886 488.85C885.157 490.561 884.181 492.203 883.08 493.76V493.76Z" fill="#F59B66"/>
<path opacity="0.1" d="M883.08 493.76C880.953 497.027 878.953 500.38 877.08 503.82C875.774 506.088 874.712 508.488 873.91 510.98C872.74 514.98 872.78 519.26 871.91 523.34C870.91 528.14 868.57 532.72 868.57 537.63C868.717 541.897 870.192 546.012 872.79 549.4C875.38 552.754 878.339 555.806 881.61 558.5C889.161 538.937 893.38 518.247 894.09 497.29C894.19 494.39 894.2 491.39 893.15 488.69C892.49 486.99 889.38 482.33 887.37 484.16C886.64 484.83 886.45 487.85 886 488.85C885.157 490.561 884.181 492.203 883.08 493.76V493.76Z" fill="black"/>
<path d="M990.43 504.69C994.34 504.04 998.68 504.36 1001.72 506.89C1003.55 508.448 1004.72 510.655 1004.96 513.05C1005.22 515.83 1003.61 519.11 1000.83 519.33C1000.16 519.338 999.492 519.294 998.83 519.2C997.074 519.189 995.321 519.333 993.59 519.63C990.183 519.95 986.749 519.448 983.575 518.167C980.402 516.887 977.581 514.865 975.35 512.27C972.97 509.33 976.11 507.98 978.94 507.38C982.8 506.56 986.57 505.35 990.43 504.69Z" fill="#FBBEBE"/>
<path d="M923.55 595.01L921.07 612.63C920.749 614.445 920.621 616.288 920.69 618.13C920.98 622.28 923.18 626.01 924.78 629.85C926.38 633.69 927.34 638.28 925.23 641.85C924.58 642.97 923.66 643.91 923.08 645.06C922.331 646.842 921.99 648.769 922.08 650.7L921.4 675.7C913.68 676.222 905.933 676.178 898.22 675.57C897.917 675.596 897.614 675.518 897.36 675.35C897.158 675.091 897.055 674.768 897.07 674.44C896.73 668.59 897.75 662.73 897.42 656.88C897.3 654.74 896.99 652.61 896.96 650.46C896.83 641.75 901.14 633.22 899.84 624.6C899.43 622.431 898.896 620.288 898.24 618.18C894.13 603.18 895 587.41 895.9 571.93C895.891 571.682 895.961 571.437 896.1 571.23C896.254 571.084 896.444 570.981 896.65 570.93C901.026 569.621 905.652 569.384 910.139 570.239C914.626 571.093 918.841 573.014 922.43 575.84C923.52 576.72 926.27 577.57 926.99 578.61C927.99 580.08 926.67 581.53 926.1 583.09C924.825 586.961 923.97 590.957 923.55 595.01V595.01Z" fill="#3F3D56"/>
<path opacity="0.1" d="M923.55 595.01L921.07 612.63C920.749 614.445 920.621 616.288 920.69 618.13C920.98 622.28 923.18 626.01 924.78 629.85C926.38 633.69 927.34 638.28 925.23 641.85C924.58 642.97 923.66 643.91 923.08 645.06C922.331 646.842 921.99 648.769 922.08 650.7L921.4 675.7C913.68 676.222 905.933 676.178 898.22 675.57C897.917 675.596 897.614 675.518 897.36 675.35C897.158 675.091 897.055 674.768 897.07 674.44C896.73 668.59 897.75 662.73 897.42 656.88C897.3 654.74 896.99 652.61 896.96 650.46C896.83 641.75 901.14 633.22 899.84 624.6C899.43 622.431 898.896 620.288 898.24 618.18C894.13 603.18 895 587.41 895.9 571.93C895.891 571.682 895.961 571.437 896.1 571.23C896.254 571.084 896.444 570.981 896.65 570.93C901.026 569.621 905.652 569.384 910.139 570.239C914.626 571.093 918.841 573.014 922.43 575.84C923.52 576.72 926.27 577.57 926.99 578.61C927.99 580.08 926.67 581.53 926.1 583.09C924.825 586.961 923.97 590.957 923.55 595.01V595.01Z" fill="black"/>
<path d="M877.18 589.69C878.35 592.12 879.92 594.39 880.61 597C882.44 603.89 877.73 611 878.29 618.06C878.47 620.29 879.16 622.46 879.21 624.69C879.26 626.92 878.44 629.4 876.46 630.42C875.13 631.11 873.46 631.04 872.21 631.82C870.1 633.1 869.86 636.04 870.07 638.49C870.28 640.94 870.62 643.7 869.07 645.63C867.88 647.12 865.84 647.69 864.56 649.1C863.795 650.116 863.145 651.212 862.62 652.37C860.71 655.7 857.23 657.75 854.37 660.37C851.51 662.99 849.09 666.83 850.37 670.45C851.31 673.12 853.95 674.76 856.49 676.01C861.124 678.301 866.016 680.03 871.06 681.16C871.602 681.321 872.175 681.348 872.73 681.24C873.292 681.032 873.793 680.688 874.19 680.24C877.14 677.35 880.19 674.32 881.55 670.43C881.794 669.485 882.171 668.579 882.67 667.74C884.23 665.56 887.51 665.63 889.74 664.13C892.34 662.36 892.97 658.84 894.67 656.19C896.28 653.69 898.86 651.97 900.67 649.63C903.67 645.75 904.48 640.58 906.67 636.15C907.6 634.26 908.79 632.51 909.53 630.54C910.278 628.194 910.738 625.767 910.9 623.31C912.31 611.63 915.9 599.87 913.64 588.31C913.14 585.76 912.37 583.31 912.05 580.69C911.49 576.15 912.37 571.52 911.7 566.99C911.685 566.424 911.541 565.868 911.28 565.366C911.018 564.863 910.645 564.427 910.19 564.09C909.649 563.85 909.062 563.727 908.47 563.73C902.541 563.422 896.598 563.559 890.69 564.14C887.69 564.43 884.32 565.04 882.53 567.49C881 569.58 881.08 572.4 880.53 574.95C879.93 578.08 878.34 579.8 876.67 582.26C875 584.72 875.95 587.16 877.18 589.69Z" fill="#3F3D56"/>
<path d="M900.25 670.95C898.67 670.95 896.92 670.86 895.7 671.86C894.18 673.1 894.15 675.39 894.4 677.35C895.1 682.82 896.89 688.09 898.68 693.35L904 708.96C904.844 711.186 905.463 713.491 905.85 715.84C906.38 719.84 905.58 723.84 905.48 727.84C905.48 729.84 905.61 732.06 906.86 733.67C909.12 736.57 913.53 736.23 917.16 735.61L934.87 732.61C936.363 732.406 937.831 732.048 939.25 731.54C940.73 730.858 942.152 730.055 943.5 729.14C947.005 727.137 950.687 725.463 954.5 724.14C956.16 723.52 958.02 722.72 958.62 721.05C959.33 719.05 957.75 716.86 955.79 716.05C953.83 715.24 951.64 715.45 949.52 715.52C944.306 715.688 939.101 714.981 934.12 713.43C932.618 713.07 931.226 712.353 930.06 711.34C928.915 710.039 928.123 708.465 927.76 706.77C926.261 701.556 925.361 696.188 925.08 690.77C924.88 686.77 925.02 682.77 924.86 678.77C924.76 676.4 924.99 668.77 922.86 667.14C921.27 665.92 914.72 669.29 912.58 669.78C908.535 670.684 904.393 671.077 900.25 670.95V670.95Z" fill="#2F2E41"/>
<path d="M841.9 682.07C840.18 687.81 839.9 693.86 838.79 699.75C837.68 705.64 835.69 711.66 831.32 715.75C830.467 716.423 829.734 717.234 829.15 718.15C828.781 719.006 828.656 719.948 828.788 720.871C828.92 721.794 829.305 722.662 829.9 723.38C831.107 724.802 832.604 725.951 834.29 726.75C845.58 732.91 858.29 736.01 871.1 737.55C873.362 737.982 875.693 737.9 877.92 737.31C880.1 736.57 882.03 734.61 881.99 732.31C882.01 731.682 881.797 731.069 881.39 730.59C881.001 730.234 880.541 729.965 880.04 729.8C875.32 727.86 870.52 725.74 866.88 722.17C863.24 718.6 860.94 713.17 862.35 708.31C863.175 706.035 864.298 703.88 865.69 701.9C867.522 698.755 869.191 695.517 870.69 692.2L875.09 682.97C876.37 680.28 877.68 677.5 877.89 674.51C872.367 674.76 866.85 673.879 861.68 671.92C859.265 670.935 857.016 669.586 855.01 667.92C853.31 666.5 851.76 663.86 849.47 665.71C847.63 667.19 846.47 671.35 845.38 673.47C843.998 676.242 842.834 679.117 841.9 682.07V682.07Z" fill="#2F2E41"/>
<path d="M906.36 452.89C905.92 456.72 902.2 459.26 898.65 460.77L921.11 467.95C919.66 465.17 920.84 461.77 922.28 458.95C923.453 456.721 924.79 454.581 926.28 452.55C926.5 452.24 926.75 451.84 926.59 451.49C926.447 451.255 926.223 451.081 925.96 451C921.34 448.94 916.58 446.81 911.53 446.06C910.07 445.84 907.31 445.26 906.22 446.75C905.13 448.24 906.6 451.12 906.36 452.89Z" fill="#FBBEBE"/>
<path opacity="0.1" d="M906.36 452.89C905.92 456.72 902.2 459.26 898.65 460.77L921.11 467.95C919.66 465.17 920.84 461.77 922.28 458.95C923.453 456.721 924.79 454.581 926.28 452.55C926.5 452.24 926.75 451.84 926.59 451.49C926.447 451.255 926.223 451.081 925.96 451C921.34 448.94 916.58 446.81 911.53 446.06C910.07 445.84 907.31 445.26 906.22 446.75C905.13 448.24 906.6 451.12 906.36 452.89Z" fill="black"/>
<path d="M919.45 456C929.181 456 937.07 448.111 937.07 438.38C937.07 428.649 929.181 420.76 919.45 420.76C909.719 420.76 901.83 428.649 901.83 438.38C901.83 448.111 909.719 456 919.45 456Z" fill="#FBBEBE"/>
<path d="M934.67 583.35C932.97 585.35 929.96 585.79 927.33 585.35C921.18 584.35 916.14 579.82 910.13 578.19C902.75 576.19 894.93 578.76 887.97 581.9C881.01 585.04 874.07 588.85 866.45 589.45C873.34 574.09 869.4 555.6 875.98 540.11C877.6 536.33 879.85 532.67 880.21 528.58C880.66 523.49 878.12 518.58 877.73 513.51C877.37 509 878.73 504.51 880.02 500.22L884.85 484.37C886.65 478.47 888.5 472.46 891.99 467.37C893.27 465.5 893.67 461.72 895.63 460.58C899.91 458.12 906.4 461.23 911.04 461.4C915.68 461.57 919.91 464.87 922.62 468.6C925.49 472.54 927.12 477.23 928.62 481.87C931.016 488.777 932.803 495.881 933.96 503.1C934.11 504.18 934.24 505.26 934.34 506.35C935.34 516.62 933.88 526.95 933.8 537.26C933.8 537.26 933.8 537.26 933.8 537.34C933.71 550.42 935.8 563.43 936.2 576.51C936.26 578.94 936.2 581.55 934.67 583.35Z" fill="#F59B66"/>
<path opacity="0.1" d="M933.8 537.35C930.35 536.48 927.22 534.26 924.55 531.82C922.234 529.756 920.173 527.423 918.41 524.87C916.195 521.381 914.418 517.633 913.12 513.71C909.417 503.293 907.064 492.445 906.12 481.43C905.86 478.43 905.78 475.22 907.57 472.84C908.572 471.55 909.981 470.637 911.568 470.25C913.155 469.863 914.827 470.025 916.31 470.71C918.68 471.87 920.21 474.2 921.62 476.42C924.44 480.85 927.27 485.32 929.08 490.24C929.88 492.42 930.47 494.67 931.25 496.86C932.043 499.02 932.958 501.133 933.99 503.19C934.14 504.27 934.27 505.35 934.37 506.44C935.3 516.66 933.88 526.99 933.8 537.35Z" fill="black"/>
<path d="M907.61 470.9C905.83 473.27 905.91 476.52 906.16 479.49C907.104 490.502 909.457 501.347 913.16 511.76C914.45 515.686 916.227 519.436 918.45 522.92C920.21 525.475 922.272 527.808 924.59 529.87C927.99 532.98 932.13 535.75 936.74 535.79C939.334 535.663 941.889 535.105 944.3 534.14L981.81 521.4C982.19 519.25 980.68 516.76 979.97 514.7L977.97 508.76C977.4 507.13 976.73 505.36 975.25 504.47C973.77 503.58 971.4 504.8 970.16 505.79C968.92 506.78 967.97 508.08 966.76 509.09C964.44 511.01 961.39 511.72 958.46 512.38L950.03 514.28C946.972 515.109 943.818 515.526 940.65 515.52C938.3 508.35 933.83 502.03 931.3 494.91C930.52 492.73 929.92 490.48 929.12 488.3C927.31 483.38 924.48 478.91 921.67 474.48C920.26 472.25 918.73 469.92 916.36 468.77C914.875 468.086 913.202 467.925 911.614 468.312C910.026 468.698 908.615 469.61 907.61 470.9V470.9Z" fill="#F59B66"/>
<path d="M913.83 442.35C913.965 441.195 914.325 440.077 914.89 439.06C915.185 438.55 915.635 438.146 916.174 437.907C916.713 437.668 917.314 437.606 917.89 437.73C919.65 438.28 920.24 441.01 922.08 441.1C923.32 441.16 924.21 439.9 924.6 438.71C924.99 437.52 925.2 436.19 926.13 435.35C926.776 434.863 927.52 434.522 928.31 434.35C932.58 433 936.99 430.5 938.41 426.25C938.739 425.39 938.819 424.454 938.64 423.55C937.99 420.86 934.64 420.05 932.09 419.07C929.54 418.09 927.09 416.45 924.59 415.19C922.09 413.93 919.19 413.03 916.44 413.67C915.043 414.109 913.671 414.623 912.33 415.21C908.19 416.64 903.11 415.98 899.9 418.96C898.501 420.45 897.473 422.249 896.9 424.21C894.65 430.42 893.24 437.81 896.95 443.27C899.23 446.64 901.46 450.49 905.86 450.89C910.98 451.35 913.02 446.67 913.83 442.35Z" fill="#2F2E41"/>
<g opacity="0.1">
<path opacity="0.1" d="M921.65 436.59C922.04 435.41 922.25 434.07 923.17 433.23C923.82 432.749 924.562 432.409 925.35 432.23C929.63 430.88 934.03 428.39 935.46 424.13C935.786 423.269 935.863 422.333 935.68 421.43C935.582 421.003 935.402 420.599 935.15 420.24C936.78 420.94 938.2 421.89 938.6 423.55C938.779 424.454 938.699 425.39 938.37 426.25C936.95 430.5 932.54 433 928.27 434.35C927.48 434.523 926.736 434.864 926.09 435.35C925.16 436.19 924.95 437.53 924.56 438.71C924.17 439.89 923.28 441.16 922.04 441.1C920.8 441.04 920.2 439.91 919.41 438.96C920.5 438.82 921.28 437.68 921.65 436.59Z" fill="black"/>
<path opacity="0.1" d="M902.93 448.75C908.07 449.22 910.1 444.55 910.93 440.23C911.065 439.075 911.425 437.957 911.99 436.94C912.286 436.431 912.736 436.028 913.275 435.791C913.814 435.554 914.415 435.494 914.99 435.62C915.94 435.91 916.55 436.85 917.2 437.62C916.741 437.664 916.299 437.813 915.907 438.056C915.515 438.299 915.184 438.629 914.94 439.02C914.375 440.037 914.015 441.155 913.88 442.31C913.07 446.63 911.03 451.31 905.88 450.83C903.841 450.613 901.957 449.639 900.6 448.1C901.336 448.442 902.123 448.662 902.93 448.75V448.75Z" fill="black"/>
</g>
<path d="M170.78 650.29L189.92 639.03C187.326 634.615 184.018 630.662 180.13 627.33L144.02 638.56L172.36 621.92C165.355 618.082 157.471 616.135 149.484 616.27C141.497 616.404 133.684 618.617 126.811 622.688C119.939 626.76 114.246 632.551 110.292 639.491C106.338 646.432 104.259 654.282 104.26 662.27C104.26 687.67 124.85 688.56 150.26 688.56C175.67 688.56 196.26 687.67 196.26 662.27C196.254 655.838 194.891 649.479 192.26 643.61L170.78 650.29Z" fill="#2524E9"/>
<path opacity="0.1" d="M175.65 674.99C173.613 672.947 171.336 671.157 168.87 669.66C165.39 667.35 161.8 664.99 157.7 664.21C154.1 663.52 150.39 664.1 146.7 663.9C140.333 663.51 134.34 660.761 129.89 656.19C127.28 653.49 125.22 650.19 122.08 648.1C118.69 645.88 114.39 645.4 110.37 645.95C109.204 646.121 108.049 646.358 106.91 646.66C105.105 651.666 104.185 656.948 104.19 662.27C104.19 687.67 124.78 688.56 150.19 688.56C162.52 688.56 173.71 688.35 181.97 685.23L180.59 682.65C179.274 679.898 177.614 677.324 175.65 674.99V674.99Z" fill="black"/>
<path d="M583.96 714.6L558.57 699.67C562.011 693.81 566.404 688.565 571.57 684.15L619.46 699.04L581.93 676.98C591.219 671.891 601.674 669.308 612.265 669.486C622.856 669.664 633.217 672.596 642.331 677.995C651.444 683.394 658.994 691.072 664.239 700.275C669.483 709.478 672.241 719.888 672.24 730.48C672.24 764.17 644.93 765.34 611.24 765.34C577.55 765.34 550.24 764.17 550.24 730.48C550.23 721.955 552.012 713.523 555.47 705.73L583.96 714.6Z" fill="#2524E9"/>
<path opacity="0.1" d="M577.49 747.35C580.195 744.64 583.216 742.266 586.49 740.28C591.1 737.22 595.87 734.1 601.3 733.06C606.07 732.15 610.99 732.92 615.84 732.64C624.283 732.121 632.231 728.482 638.14 722.43C641.6 718.84 644.33 714.43 648.5 711.7C652.99 708.7 658.69 708.11 664.02 708.85C665.571 709.069 667.107 709.383 668.62 709.79C671.009 716.426 672.228 723.427 672.22 730.48C672.22 764.17 644.91 765.34 611.22 765.34C594.87 765.34 580.03 765.07 569.07 760.93L570.9 757.51C572.81 753.94 574.75 750.35 577.49 747.35Z" fill="black"/>
</g>
<defs>
<linearGradient id="paint0_linear" x1="547.849" y1="208.458" x2="812.153" y2="51.7194" gradientUnits="userSpaceOnUse">
<stop stop-color="#808080" stop-opacity="0.25"/>
<stop offset="0.54" stop-color="#808080" stop-opacity="0.12"/>
<stop offset="1" stop-color="#808080" stop-opacity="0.1"/>
</linearGradient>
<linearGradient id="paint1_linear" x1="-218429" y1="260104" x2="-214137" y2="152806" gradientUnits="userSpaceOnUse">
<stop stop-color="#808080" stop-opacity="0.25"/>
<stop offset="0.54" stop-color="#808080" stop-opacity="0.12"/>
<stop offset="1" stop-color="#808080" stop-opacity="0.1"/>
</linearGradient>
<clipPath id="clip0">
<rect width="1094.72" height="788.69" fill="white"/>
</clipPath>
</defs>
</svg>
