<svg
            width="42"
            height="42"
            viewBox="0 0 32 32"
            fill="none"
            xmlns="http://www.w3.org/2000/svg"
          >
            <path
              d="M16 2C12.3008 2.04463 8.76575 3.53395 6.14985 6.14985C3.53395 8.76575 2.04463 12.3008 2 16C2.04463 19.6992 3.53395 23.2343 6.14985 25.8501C8.76575 28.466 12.3008 29.9554 16 30C19.6992 29.9554 23.2343 28.466 25.8501 25.8501C28.466 23.2343 29.9554 19.6992 30 16C29.9554 12.3008 28.466 8.76575 25.8501 6.14985C23.2343 3.53395 19.6992 2.04463 16 2V2ZM24 17H17V24H15V17H8V15H15V8H17V15H24V17Z"
              fill="white"
            />
          </svg>