<svg width="30" height="33" viewBox="0 0 30 33" fill="none" xmlns="http://www.w3.org/2000/svg">
<path d="M15 33C6.6645 31.1475 0 23.283 0 15V6L15 0L30 6V15C30 23.286 23.3355 31.1475 15 33ZM3 7.5V15C3.08572 18.4682 4.30554 21.8128 6.47277 24.5218C8.63999 27.2308 11.6352 29.1551 15 30C18.3648 29.1551 21.36 27.2308 23.5272 24.5218C25.6945 21.8128 26.9143 18.4682 27 15V7.5L15 3L3 7.5Z" fill="white"/>
<path d="M15 15C17.0711 15 18.75 13.3211 18.75 11.25C18.75 9.17893 17.0711 7.5 15 7.5C12.9289 7.5 11.25 9.17893 11.25 11.25C11.25 13.3211 12.9289 15 15 15Z" fill="white"/>
<path d="M7.5 21C8.23933 22.3473 9.32339 23.474 10.6412 24.2647C11.959 25.0553 13.4633 25.4817 15 25.5C16.5367 25.4817 18.041 25.0553 19.3588 24.2647C20.6766 23.474 21.7607 22.3473 22.5 21C22.4625 18.156 17.487 16.5 15 16.5C12.4995 16.5 7.5375 18.156 7.5 21Z" fill="white"/>
</svg>
