<svg
            width="36"
            height="36"
            viewBox="0 0 36 36"
            fill="none"
            xmlns="http://www.w3.org/2000/svg"
          >
            <path
              d="M12.75 2.99982H5.25C4.95256 2.97146 4.65576 3.05998 4.42245 3.24663C4.18913 3.43328 4.03762 3.70341 4 3.99982V32.9998H14V3.99982C13.9624 3.70341 13.8109 3.43328 13.5776 3.24663C13.3442 3.05998 13.0474 2.97146 12.75 2.99982V2.99982Z"
              fill="white"
            />
            <path
              d="M33.77 31.09L26.83 12.79C26.7834 12.6672 26.7131 12.5548 26.623 12.4592C26.5329 12.3636 26.4249 12.2866 26.3051 12.2328C26.1854 12.1789 26.0561 12.1492 25.9248 12.1453C25.7936 12.1414 25.6628 12.1634 25.54 12.21L22 13.59V9C22 8.73478 21.8946 8.48043 21.7071 8.29289C21.5196 8.10536 21.2652 8 21 8H16V33H22V14.69L28.93 33L33.77 31.09Z"
              fill="white"
            />
          </svg>