<svg width="847" height="560" viewBox="0 0 847 560" fill="none" xmlns="http://www.w3.org/2000/svg">
<path d="M7.11719 288.79C7.11719 288.79 -42.4528 366.23 120.047 367.56C120.047 367.56 122.437 300.18 69.3172 272.42C58.9881 266.998 47.0291 265.553 35.7057 268.358C24.3823 271.163 14.4809 278.023 7.87718 287.64L7.11719 288.79Z" fill="#2524E9"/>
<path d="M7.4873 287.49C7.4873 287.49 90.7173 303.89 120.047 367.56" stroke="#535461" stroke-miterlimit="10"/>
<path d="M127.307 357.14C127.307 357.14 73.8672 288.08 78.7472 220C80.7472 191.43 74.0372 162.89 58.5372 138.79C51.1618 127.379 42.7567 116.668 33.4272 106.79" stroke="#535461" stroke-width="2" stroke-miterlimit="10"/>
<path d="M36.2273 63.8799C39.9573 73.4399 33.4673 107.93 33.4673 107.93C33.4673 107.93 5.33733 86.9399 1.60733 77.3799C0.623828 75.0883 0.111469 72.6221 0.100757 70.1283C0.0900455 67.6345 0.581196 65.1641 1.54497 62.8641C2.50875 60.564 3.92545 58.4814 5.71073 56.7402C7.49601 54.999 9.61337 53.6347 11.9368 52.7287C14.2602 51.8227 16.7421 51.3935 19.2349 51.4665C21.7276 51.5395 24.1802 52.1133 26.4466 53.1538C28.713 54.1942 30.7469 55.68 32.4272 57.5227C34.1075 59.3655 35.3998 61.5274 36.2273 63.8799V63.8799Z" fill="#2524E9"/>
<path d="M85.5273 105.66C83.4673 115.72 59.2673 141.14 59.2673 141.14C59.2673 141.14 47.0473 108.24 49.1073 98.14C49.5449 95.6985 50.4667 93.3693 51.8183 91.2895C53.1699 89.2098 54.9241 87.4216 56.9775 86.0302C59.0308 84.6388 61.3419 83.6724 63.7745 83.1879C66.2071 82.7034 68.7121 82.7107 71.1418 83.2092C73.5716 83.7077 75.877 84.6873 77.9223 86.0905C79.9677 87.4937 81.7115 89.292 83.0511 91.3795C84.3907 93.467 85.2991 95.8015 85.7226 98.2455C86.1462 100.689 86.0763 103.193 85.5173 105.61L85.5273 105.66Z" fill="#2524E9"/>
<path d="M119.607 196.66C112.747 204.3 79.0371 214.03 79.0371 214.03C79.0371 214.03 85.0971 179.46 91.9471 171.82C95.2611 168.228 99.8561 166.086 104.738 165.857C109.619 165.628 114.395 167.33 118.031 170.595C121.667 173.86 123.871 178.426 124.166 183.304C124.461 188.182 122.823 192.98 119.607 196.66V196.66Z" fill="#2524E9"/>
<path d="M129.887 271.33C124.417 280.02 92.8271 295.33 92.8271 295.33C92.8271 295.33 92.9572 260.24 98.4272 251.55C99.7014 249.43 101.386 247.586 103.382 246.125C105.378 244.665 107.645 243.617 110.051 243.044C112.457 242.47 114.953 242.383 117.394 242.787C119.834 243.19 122.169 244.077 124.262 245.394C126.355 246.712 128.165 248.433 129.584 250.459C131.004 252.485 132.005 254.773 132.528 257.19C133.052 259.607 133.088 262.105 132.635 264.536C132.181 266.968 131.247 269.284 129.887 271.35V271.33Z" fill="#2524E9"/>
<path d="M23.6072 157.18C33.0672 161.18 67.7172 155.6 67.7172 155.6C67.7172 155.6 47.5372 126.88 38.0772 122.88C35.825 121.93 33.4077 121.433 30.9634 121.417C28.5191 121.401 26.0956 121.867 23.8312 122.787C21.5668 123.708 19.506 125.066 17.7663 126.783C16.0267 128.5 14.6423 130.543 13.6922 132.795C12.742 135.047 12.2448 137.464 12.2289 139.909C12.213 142.353 12.6787 144.777 13.5994 147.041C14.5201 149.305 15.8777 151.366 17.5949 153.106C19.312 154.846 21.355 156.23 23.6072 157.18V157.18Z" fill="#2524E9"/>
<path d="M36.7672 244.35C46.9872 245.35 78.3772 229.64 78.3772 229.64C78.3772 229.64 50.5072 208.32 40.2872 207.34C37.8229 207.04 35.3234 207.236 32.9362 207.918C30.549 208.599 28.3224 209.752 26.388 211.308C24.4535 212.863 22.8502 214.791 21.6728 216.977C20.4954 219.162 19.7677 221.561 19.5325 224.033C19.2974 226.504 19.5597 228.998 20.3039 231.366C21.048 233.734 22.2591 235.93 23.8655 237.823C25.4718 239.715 27.4411 241.267 29.6569 242.387C31.8728 243.506 34.2905 244.17 36.7672 244.34V244.35Z" fill="#2524E9"/>
<path d="M61.1571 327.31C71.0671 330 104.657 319.84 104.657 319.84C104.657 319.84 80.7871 294.11 70.8771 291.43C68.5047 290.739 66.0184 290.527 63.5634 290.808C61.1083 291.089 58.734 291.856 56.579 293.065C54.4241 294.275 52.5318 295.901 51.0129 297.85C49.4939 299.799 48.3788 302.032 47.7327 304.417C47.0866 306.802 46.9224 309.292 47.2499 311.741C47.5773 314.19 48.3897 316.549 49.6397 318.681C50.8896 320.813 52.5519 322.674 54.5295 324.155C56.5071 325.637 58.7602 326.709 61.1571 327.31V327.31Z" fill="#2524E9"/>
<path opacity="0.25" d="M36.2273 63.8799C39.9573 73.4399 33.4673 107.93 33.4673 107.93C33.4673 107.93 5.33733 86.9399 1.60733 77.3799C0.623828 75.0883 0.111469 72.6221 0.100757 70.1283C0.0900455 67.6345 0.581196 65.1641 1.54497 62.8641C2.50875 60.564 3.92545 58.4814 5.71073 56.7402C7.49601 54.999 9.61337 53.6347 11.9368 52.7287C14.2602 51.8227 16.7421 51.3935 19.2349 51.4665C21.7276 51.5395 24.1802 52.1133 26.4466 53.1538C28.713 54.1942 30.7469 55.68 32.4272 57.5227C34.1075 59.3655 35.3998 61.5274 36.2273 63.8799V63.8799Z" fill="black"/>
<path opacity="0.25" d="M85.5273 105.66C83.4673 115.72 59.2673 141.14 59.2673 141.14C59.2673 141.14 47.0473 108.24 49.1073 98.14C49.5449 95.6985 50.4667 93.3693 51.8183 91.2895C53.1699 89.2098 54.9241 87.4216 56.9775 86.0302C59.0308 84.6388 61.3419 83.6724 63.7745 83.1879C66.2071 82.7034 68.7121 82.7107 71.1418 83.2092C73.5716 83.7077 75.877 84.6873 77.9223 86.0905C79.9677 87.4937 81.7115 89.292 83.0511 91.3795C84.3907 93.467 85.2991 95.8015 85.7226 98.2455C86.1462 100.689 86.0763 103.193 85.5173 105.61L85.5273 105.66Z" fill="black"/>
<path opacity="0.25" d="M119.607 196.66C112.747 204.3 79.0371 214.03 79.0371 214.03C79.0371 214.03 85.0971 179.46 91.9471 171.82C95.2611 168.228 99.8561 166.086 104.738 165.857C109.619 165.628 114.395 167.33 118.031 170.595C121.667 173.86 123.871 178.426 124.166 183.304C124.461 188.182 122.823 192.98 119.607 196.66V196.66Z" fill="black"/>
<path opacity="0.25" d="M129.887 271.33C124.417 280.02 92.8271 295.33 92.8271 295.33C92.8271 295.33 92.9572 260.24 98.4272 251.55C99.7014 249.43 101.386 247.586 103.382 246.125C105.378 244.665 107.645 243.617 110.051 243.044C112.457 242.47 114.953 242.383 117.394 242.787C119.834 243.19 122.169 244.077 124.262 245.394C126.355 246.712 128.165 248.433 129.584 250.459C131.004 252.485 132.005 254.773 132.528 257.19C133.052 259.607 133.088 262.105 132.635 264.536C132.181 266.968 131.247 269.284 129.887 271.35V271.33Z" fill="black"/>
<path opacity="0.25" d="M23.6072 157.18C33.0672 161.18 67.7172 155.6 67.7172 155.6C67.7172 155.6 47.5372 126.88 38.0772 122.88C35.825 121.93 33.4077 121.433 30.9634 121.417C28.5191 121.401 26.0956 121.867 23.8312 122.787C21.5668 123.708 19.506 125.066 17.7663 126.783C16.0267 128.5 14.6423 130.543 13.6922 132.795C12.742 135.047 12.2448 137.464 12.2289 139.909C12.213 142.353 12.6787 144.777 13.5994 147.041C14.5201 149.305 15.8777 151.366 17.5949 153.106C19.312 154.846 21.355 156.23 23.6072 157.18V157.18Z" fill="black"/>
<path opacity="0.25" d="M36.7672 244.35C46.9872 245.35 78.3772 229.64 78.3772 229.64C78.3772 229.64 50.5072 208.32 40.2872 207.34C37.8229 207.04 35.3234 207.236 32.9362 207.918C30.549 208.599 28.3224 209.752 26.388 211.308C24.4535 212.863 22.8502 214.791 21.6728 216.977C20.4954 219.162 19.7677 221.561 19.5325 224.033C19.2974 226.504 19.5597 228.998 20.3039 231.366C21.048 233.734 22.2591 235.93 23.8655 237.823C25.4718 239.715 27.4411 241.267 29.6569 242.387C31.8728 243.506 34.2905 244.17 36.7672 244.34V244.35Z" fill="black"/>
<path opacity="0.25" d="M61.1571 327.31C71.0671 330 104.657 319.84 104.657 319.84C104.657 319.84 80.7871 294.11 70.8771 291.43C68.5047 290.739 66.0184 290.527 63.5634 290.808C61.1083 291.089 58.734 291.856 56.579 293.065C54.4241 294.275 52.5318 295.901 51.0129 297.85C49.4939 299.799 48.3788 302.032 47.7327 304.417C47.0866 306.802 46.9224 309.292 47.2499 311.741C47.5773 314.19 48.3897 316.549 49.6397 318.681C50.8896 320.813 52.5519 322.674 54.5295 324.155C56.5071 325.637 58.7602 326.709 61.1571 327.31V327.31Z" fill="black"/>
<path opacity="0.1" d="M463.497 224.55C444.497 224.13 424.087 225.08 408.987 232.55C380.987 246.37 384.757 274.4 366.497 293.85C351.077 310.27 321.607 318.8 293.027 324.24C246.467 333.11 197.637 336.43 151.397 345.96C124.137 351.58 97.0772 359.75 78.3972 373.73C59.7172 387.71 51.3372 408.56 63.9672 425.1C75.6472 440.39 101.377 448.57 124.807 456.49C148.237 464.41 173.057 474.8 179.577 491.31C183.207 500.5 180.507 510.41 184.747 519.48C193.107 537.38 224.417 545.83 252.547 550.4C275.017 554.05 297.857 556.74 320.877 558.4C339.267 559.75 358.077 560.46 376.127 557.83C391.757 555.55 406.227 550.83 421.217 547.2C516.457 524.01 625.997 544.07 723.137 524.43C740.817 520.88 758.207 515.88 771.607 507.7C781.607 501.62 789.007 494.02 795.237 486.14C811.097 466.14 819.787 443.71 820.457 421.22C820.857 407.74 818.457 394.12 822.147 380.84C826.017 367.02 836.347 354.31 841.847 340.72C851.847 316.02 844.847 288.72 823.077 267.35C815.306 259.474 805.779 253.552 795.277 250.07C786.477 247.25 776.637 246.17 766.947 245.07C739.947 242.14 712.597 239.2 685.357 240.85C665.977 242.03 647.007 245.52 627.567 246.15C600.287 247.04 578.917 240.75 554.187 234.84C525.737 228.1 493.727 225.21 463.497 224.55Z" fill="#2524E9"/>
<path d="M120.137 20.12V287.59L476.017 218.46L469.217 13.3199L120.137 20.12Z" fill="#DBACA2"/>
<path d="M789.107 335.48V423.88L412.827 533.82L408.987 531.83L111.357 377.41V11.9L479.697 0L481.967 202.87L467.227 207.41L461.557 17.66L137.417 28.9L135.157 303.74L417.357 427.28L417.577 427.23L789.107 335.48Z" fill="#E8C2B8"/>
<path opacity="0.1" d="M789.107 335.48V423.88L412.827 533.82L408.987 531.83L417.577 427.23L789.107 335.48Z" fill="black"/>
<path d="M335.477 207.12C335.477 207.12 153.297 225.3 135.607 251.63C117.917 277.96 135.457 310.26 135.457 310.26L417.097 432.66L799.037 334.06C799.037 334.06 788.837 264.92 757.107 256.99C725.377 249.06 472.607 194.66 472.607 194.66C472.607 194.66 370.607 188.42 335.477 207.12Z" fill="#EBECF0"/>
<path d="M135.437 251.88L422.747 351.05C422.747 351.05 729.197 258.13 772.607 266.88C772.607 266.88 558.237 190.15 472.607 193.49C404.367 196.15 332.917 207.35 332.917 207.35C332.917 207.35 143.377 226.39 135.437 251.88Z" fill="#F8F9FA"/>
<path d="M577.487 315.68L577.557 315.58V315.52L577.607 315.42V315.35V315.25V315.18V315.07V315V314.87V314.81C577.607 314.75 577.607 314.69 577.607 314.63C577.607 314.56 577.607 314.49 577.607 314.42C577.607 314.35 577.607 314.42 577.607 314.35C577.607 314.28 577.607 314.25 577.607 314.2V314.11V313.96V313.86V313.71V313.61V313.45V313.35V313.18V313.09L577.527 312.84L577.427 312.56V312.47L577.347 312.27V312.16L577.267 311.97L577.217 311.85L577.137 311.66L577.077 311.53L576.987 311.34L576.927 311.22L576.817 311.01L576.757 310.9L576.607 310.61L576.427 310.27L576.367 310.16L576.237 309.92L576.167 309.79L576.037 309.57L575.957 309.43L575.827 309.21L575.607 308.88L575.467 308.66L575.377 308.52L575.227 308.28L575.147 308.15L574.947 307.83V307.77L574.697 307.39L574.617 307.28L574.437 307.01L574.337 306.87L574.167 306.63L574.067 306.48L573.897 306.24L573.787 306.08L573.607 305.88L573.497 305.73L573.307 305.47L573.207 305.34L572.957 305V304.95L572.667 304.55L572.567 304.41L572.377 304.15L572.247 303.98L572.067 303.74L571.937 303.57L571.757 303.33L571.627 303.17L571.437 302.92L571.307 302.76L571.107 302.5L570.987 302.35L570.747 302.05L570.667 301.95C569.767 300.81 568.837 299.67 567.907 298.57C565.284 295.452 562.072 292.882 558.455 291.007C554.838 289.131 550.887 287.987 546.827 287.64C545.997 287.57 545.127 287.48 544.247 287.37H543.877L543.227 287.28H542.917L541.917 287.14L540.967 286.99L540.637 286.93L539.967 286.81L539.567 286.73L538.957 286.61L538.527 286.52L537.947 286.39L537.507 286.29L536.927 286.15L536.477 286.04L535.907 285.89L535.457 285.77L534.887 285.61C531.887 281.15 527.327 277.18 522.887 276.41C521.664 276.22 520.414 276.285 519.217 276.6L519.007 276.37L518.707 276.03L518.307 275.52L518.047 275.18L517.627 274.59L517.417 274.3C517.21 274 517.014 273.693 516.827 273.38C516.237 273.117 515.62 272.92 514.987 272.79C523.836 271.45 532.561 269.393 541.077 266.64C541.49 266.484 541.883 266.279 542.247 266.03L542.427 265.97C549.837 263.27 558.937 236.97 552.537 233.29C546.137 229.61 536.367 199.29 530.637 183.76C524.907 168.23 508.397 166.58 508.397 166.58C508.397 166.58 484.477 148.05 473.697 150.07C462.917 152.09 461.227 135.92 460.217 135.25C460.099 135.152 460.001 135.034 459.927 134.9C457.327 130.83 436.657 125.4 425.507 122.72C414.607 114.82 401.607 108.69 391.097 106.16C387.586 105.21 383.903 105.086 380.336 105.797C376.769 106.508 373.415 108.036 370.537 110.26C348.457 111.38 344.937 128.06 344.937 128.06C344.861 130.336 345.256 132.603 346.097 134.72C344.904 134.736 343.712 134.673 342.527 134.53C345.087 130.3 345.167 124.86 347.077 120.21C350.847 111.01 361.247 106.26 371.077 105.02C376.807 104.3 383.077 104.3 387.597 100.71C389.924 98.8508 391.512 96.2239 392.077 93.3C392.26 92.6686 392.203 91.9918 391.917 91.3999C391.637 91.0162 391.261 90.7127 390.827 90.52C384.907 87.36 377.777 88.18 371.057 88.03C360.137 87.79 349.497 84.8 338.937 82.03C334.467 80.86 329.637 79.73 325.317 81.39C321.237 82.95 318.457 86.67 315.187 89.56C301.787 101.38 279.537 99.6699 267.617 112.99C264.857 116.08 262.787 120.27 263.797 124.29C264.207 125.93 265.117 127.44 265.407 129.11C265.987 132.41 264.107 135.57 262.517 138.52C260.927 141.47 259.517 145.05 261.017 148.05C263.287 152.63 270.217 152.29 273.817 155.92C275.487 157.61 276.297 160.03 278.037 161.64C280.827 164.21 285.117 164.01 288.897 163.64C290.387 163.5 292.617 163.09 293.437 161.78C296.361 164.53 299.883 166.564 303.727 167.721C307.57 168.878 311.63 169.128 315.586 168.449C319.543 167.77 323.287 166.183 326.525 163.811C329.764 161.439 332.407 158.347 334.247 154.78C342.393 154.23 350.489 156.419 357.247 161C358.265 164.001 360.135 166.642 362.627 168.6C364.987 170.45 367.797 172.72 370.627 175.15C363.457 177.04 357.087 178.25 357.087 178.25C357.087 178.25 328.787 187.35 328.787 193.41C328.888 194.508 329.229 195.57 329.787 196.52C329.071 198.027 328.666 199.663 328.597 201.33C320.787 200.01 314.537 198.02 311.307 195.09C311.307 195.09 310.387 194.84 308.967 194.56C307.067 192.13 301.487 185.38 298.167 185.65C295.957 185.83 295.167 190.97 294.887 195.57C294.596 195.821 294.341 196.111 294.127 196.43C290.757 201.48 296.827 211.59 300.867 213.28C304.907 214.97 327.147 214.28 342.307 225.41C349.027 230.34 360.577 231.29 371.307 230.83C360.517 238.45 345.407 250.16 343.307 257.42C342.177 261.27 340.847 266.05 340.927 270.96C334.327 279.69 324.337 298.12 349.037 306.96C369.397 314.23 424.597 313.3 463.927 311.52C482.227 314.75 497.337 318 503.677 321.11C503.677 321.11 518.837 323.11 524.907 326.84C530.977 330.57 542.087 329.54 542.087 329.54C542.087 329.54 563.647 333.25 568.367 337.96C573.087 342.67 581.167 329.87 571.067 323.81C567.127 321.45 561.257 317.56 555.567 313.3C562.877 314.16 569.327 315.1 573.427 316.06L573.837 316.15H573.967H574.227H574.377H574.597H574.737H574.947H575.947H576.207H576.287H576.447H576.537H576.667H576.747H576.867H576.947L577.057 316.1H577.127L577.227 316.03H577.277L577.407 315.92L577.487 315.68ZM484.417 283.38C484.417 283.38 481.577 282.73 477.337 281.73L468.917 278.33C468.917 278.33 483.287 273.81 496.597 268.06C500.407 269.73 503.757 271.06 504.597 272.27C504.959 272.671 505.452 272.93 505.987 273C500.987 274.24 494.567 277.43 487.037 284.79C486.124 284.398 485.247 283.927 484.417 283.38V283.38ZM382.677 202.18L390.987 198.32C392.797 199.86 394.737 201.32 396.637 202.74C392.077 203.01 385.947 203.31 379.017 203.5C381.137 202.79 382.677 202.18 382.677 202.18Z" fill="url(#paint0_linear)"/>
<path d="M311.867 195.74C311.867 195.74 304.607 185.88 300.657 186.18C296.707 186.48 297.357 203 297.357 203L311.867 195.74Z" fill="#FFD5D8"/>
<path d="M405.207 202.34C405.207 202.34 328.027 208.61 313.517 195.41C313.517 195.41 299.997 191.78 296.697 196.73C293.397 201.68 299.337 211.57 303.297 213.22C307.257 214.87 329.027 214.22 343.867 225.09C358.707 235.96 397.627 227.09 397.627 227.09L413.787 220.82L405.207 202.34Z" fill="#F59B66"/>
<path opacity="0.05" d="M405.207 202.34C405.207 202.34 328.027 208.61 313.517 195.41C313.517 195.41 299.997 191.78 296.697 196.73C293.397 201.68 299.337 211.57 303.297 213.22C307.257 214.87 329.027 214.22 343.867 225.09C358.707 235.96 397.627 227.09 397.627 227.09L413.787 220.82L405.207 202.34Z" fill="black"/>
<path d="M515.697 239.28C515.697 239.28 499.207 227.41 465.237 242.28C431.267 257.15 346.507 265.04 346.507 265.04C346.507 265.04 318.147 293.4 350.507 304.95C382.867 316.5 504.857 306.95 504.857 306.95C504.857 306.95 554.657 310.25 570.157 313.88C579.537 316.08 572.157 305.46 564.807 296.74C562.241 293.685 559.097 291.167 555.555 289.331C552.013 287.495 548.143 286.376 544.167 286.04C534.427 285.21 520.917 282.15 514.737 271.99C514.737 271.99 502.867 266.05 485.057 283.86L467.877 276.88C467.877 276.88 515.037 262.04 516.687 252.14C518.337 242.24 515.697 239.28 515.697 239.28Z" fill="#FFD5D8"/>
<path opacity="0.05" d="M515.697 239.28C515.697 239.28 499.207 227.41 465.237 242.28C431.267 257.15 346.507 265.04 346.507 265.04C346.507 265.04 318.147 293.4 350.507 304.95C382.867 316.5 504.857 306.95 504.857 306.95C504.857 306.95 554.657 310.25 570.157 313.88C578.377 315.8 573.707 307.88 567.517 300.06C564.43 296.132 560.597 292.853 556.238 290.413C551.878 287.972 547.08 286.418 542.117 285.84C532.617 284.76 520.497 281.45 514.747 271.99C514.747 271.99 502.877 266.05 485.067 283.86L467.877 276.88C467.877 276.88 515.037 262.04 516.687 252.14C518.337 242.24 515.697 239.28 515.697 239.28Z" fill="black"/>
<path d="M516.027 192.45C516.027 192.45 495.247 159.45 446.107 188.16L383.107 223.16C383.107 223.16 348.107 245.26 344.847 256.47C341.587 267.68 336.597 286.81 370.907 294.07C405.217 301.33 485.027 310.56 501.847 318.81C501.847 318.81 516.687 320.81 522.627 324.42C528.567 328.03 539.447 327.06 539.447 327.06C539.447 327.06 560.557 330.69 565.177 335.31C569.797 339.93 577.707 327.39 567.817 321.46C557.927 315.53 535.497 299.69 535.817 293.46C536.137 287.23 528.227 276.22 520.607 274.88C512.987 273.54 503.127 284.77 503.127 284.77C503.127 284.77 490.597 286.77 483.007 281.77C483.007 281.77 444.087 272.86 440.127 270.23C436.167 267.6 409.127 257.37 409.127 257.37C409.127 257.37 473.127 256.71 491.907 239.56C491.907 239.56 499.167 234.28 505.097 235.93C505.147 235.98 534.497 224.77 516.027 192.45Z" fill="#FFD5D8"/>
<path d="M329.017 130.44C329.017 130.44 347.817 143.63 362.327 130.44C376.837 117.25 368.607 171.01 368.607 171.01C368.607 171.01 348.487 144.29 318.477 161.78L329.017 130.44Z" fill="#FFD5D8"/>
<path opacity="0.05" d="M329.017 130.44C329.017 130.44 347.817 143.63 362.327 130.44C376.837 117.25 368.607 171.01 368.607 171.01C368.607 171.01 348.487 144.29 318.477 161.78L329.017 130.44Z" fill="black"/>
<path d="M248.547 243.57C248.547 243.57 268.337 226.75 279.547 226.42C282.887 226.32 286.747 222.92 290.547 218.2C295.347 212.237 301.679 207.691 308.864 205.048C316.049 202.406 323.817 201.767 331.337 203.2C337.717 204.38 345.567 204.35 355.097 201.99C389.727 193.41 372.577 171.99 372.577 171.99L361.697 162.76C361.697 162.76 346.857 152.54 341.247 153.2C335.637 153.86 321.127 168.7 319.477 167.05C317.827 165.4 297.707 150.56 294.407 146.6C291.107 142.64 264.707 129.78 271.307 126.15C277.907 122.52 311.207 109 304.607 106.36C298.007 103.72 262.387 99.76 248.537 116.25C234.687 132.74 241.607 234 248.547 243.57Z" fill="#F8F9FA"/>
<path opacity="0.05" d="M248.547 243.57C248.547 243.57 268.337 226.75 279.547 226.42C282.887 226.32 286.747 222.92 290.547 218.2C295.347 212.237 301.679 207.691 308.864 205.048C316.049 202.406 323.817 201.767 331.337 203.2C337.717 204.38 345.567 204.35 355.097 201.99C389.727 193.41 372.577 171.99 372.577 171.99L361.697 162.76C361.697 162.76 346.857 152.54 341.247 153.2C335.637 153.86 321.127 168.7 319.477 167.05C317.827 165.4 297.707 150.56 294.407 146.6C291.107 142.64 264.707 129.78 271.307 126.15C277.907 122.52 311.207 109 304.607 106.36C298.007 103.72 262.387 99.76 248.537 116.25C234.687 132.74 241.607 234 248.547 243.57Z" fill="black"/>
<path d="M249.867 241.26C249.867 241.26 269.657 224.44 280.867 224.11C284.207 224.01 288.067 220.61 291.867 215.89C296.662 209.933 302.985 205.391 310.16 202.747C317.335 200.103 325.094 199.458 332.607 200.88C338.987 202.06 346.837 202.03 356.367 199.67C390.997 191.09 373.847 169.67 373.847 169.67L362.967 160.44C362.967 160.44 348.127 150.22 342.517 150.88C336.907 151.54 322.397 166.38 320.747 164.73C319.097 163.08 298.977 148.24 295.677 144.28C292.377 140.32 266.027 127.47 272.607 123.88C279.187 120.29 312.517 106.73 305.917 104.09C299.317 101.45 263.697 97.49 249.847 113.98C235.997 130.47 242.937 231.69 249.867 241.26Z" fill="#F8F9FA"/>
<path d="M346.497 129.78C346.497 129.78 351.777 104.71 390.367 114.61C428.957 124.51 448.087 145.94 448.087 145.94L413.087 162.1L370.207 147.59C370.207 147.59 346.177 147.88 346.497 129.78Z" fill="#FFD5D8"/>
<path opacity="0.05" d="M417.087 123.51C417.087 123.51 454.197 131.51 457.697 137.02C457.772 137.151 457.87 137.266 457.987 137.36C458.987 138.02 460.627 153.85 471.177 151.87C481.727 149.89 505.177 168.03 505.177 168.03C505.177 168.03 521.337 169.68 526.947 184.85C532.557 200.02 542.117 229.71 548.387 233.33C554.657 236.95 545.747 262.68 538.497 265.33C531.247 267.98 505.187 274.24 502.877 270.94C500.567 267.64 480.447 264.01 481.767 253.46C483.087 242.91 490.997 233.01 484.767 226.74C478.537 220.47 474.547 203.98 465.307 200.68C456.067 197.38 439.577 196.39 429.687 202.99C419.797 209.59 407.847 209.88 407.847 209.88C407.847 209.88 387.397 198.01 384.097 189.76C381.877 184.2 370.817 174.9 363.837 169.43C362.008 167.994 360.513 166.176 359.458 164.104C358.403 162.032 357.812 159.754 357.727 157.43C357.437 149.29 357.177 137.29 358.037 135.35C359.357 132.35 377.497 114.57 377.497 114.57L417.087 123.51Z" fill="black"/>
<path d="M418.407 122.88C418.407 122.88 455.517 130.88 459.017 136.39C459.091 136.521 459.19 136.636 459.307 136.73C460.307 137.39 461.947 153.22 472.497 151.24C483.047 149.26 506.497 167.4 506.497 167.4C506.497 167.4 522.657 169.05 528.267 184.22C533.877 199.39 543.437 229.08 549.707 232.7C555.977 236.32 547.067 262.05 539.817 264.7C532.567 267.35 506.507 273.61 504.197 270.31C501.887 267.01 481.767 263.38 483.087 252.83C484.407 242.28 492.317 232.38 486.087 226.11C479.857 219.84 475.867 203.35 466.627 200.05C457.387 196.75 440.897 195.76 431.007 202.36C421.117 208.96 408.087 210.11 408.087 210.11C408.087 210.11 388.797 197.41 385.497 189.17C383.277 183.61 372.217 174.31 365.237 168.84C363.408 167.404 361.913 165.587 360.858 163.514C359.803 161.442 359.212 159.164 359.127 156.84C358.837 148.7 358.577 136.7 359.437 134.76C360.757 131.76 378.897 113.98 378.897 113.98L418.407 122.88Z" fill="#F59B66"/>
<path d="M332.977 194.42C332.647 194.75 327.037 203 333.637 207.61C335.463 208.949 337.573 209.85 339.803 210.243C342.033 210.637 344.323 210.513 346.497 209.88L332.977 194.42Z" fill="#FFD5D8"/>
<path opacity="0.1" d="M364.607 122.52C364.607 122.52 373.517 104.71 392.607 109.33C411.697 113.95 439.437 130.77 446.037 147.59C452.637 164.41 421.037 184.88 421.037 184.88L383.437 202.36C383.437 202.36 371.897 206.98 368.597 205.36C365.297 203.74 349.467 217.88 349.467 217.88C349.467 217.88 331.657 200.73 331.657 194.79C331.657 188.85 359.367 179.88 359.367 179.88C359.367 179.88 392.367 173.61 392.017 167.35C392.017 167.35 397.627 160.75 394.657 158.77C391.687 156.79 359.857 147.39 359.857 147.39C359.857 147.39 358.707 126.48 364.607 122.52Z" fill="black"/>
<path d="M363.607 121.53C363.607 121.53 372.517 103.72 391.607 108.34C410.697 112.96 438.437 129.78 445.037 146.6C451.637 163.42 420.047 183.88 420.047 183.88L382.447 201.36C382.447 201.36 370.907 205.98 367.607 204.36C364.307 202.74 348.477 216.88 348.477 216.88C348.477 216.88 330.667 199.73 330.667 193.79C330.667 187.85 358.377 178.88 358.377 178.88C358.377 178.88 391.377 172.61 391.027 166.35C391.027 166.35 396.637 159.75 393.667 157.77C390.697 155.79 358.867 146.39 358.867 146.39C358.867 146.39 357.717 125.49 363.607 121.53Z" fill="#F59B66"/>
<path opacity="0.1" d="M321.437 158.47C326.787 155.211 332.81 153.217 339.047 152.64C340.857 149.15 336.107 145.35 336.107 141.15C336.107 137.63 334.767 136.29 333.467 133.23C328.747 131.52 331.987 127.13 331.987 127.13L321.437 158.47Z" fill="black"/>
<path d="M313.517 169.69C327.545 169.69 338.917 158.318 338.917 144.29C338.917 130.262 327.545 118.89 313.517 118.89C299.489 118.89 288.117 130.262 288.117 144.29C288.117 158.318 299.489 169.69 313.517 169.69Z" fill="#FFD5D8"/>
<path d="M294.477 154.71C300.147 150.33 307.527 148.86 314.667 148.22C319.127 147.82 323.667 147.68 327.947 146.32C330.409 145.461 332.797 144.405 335.087 143.16C338.147 141.6 341.307 139.96 343.397 137.23C346.657 132.97 346.557 127.07 348.597 122.1C352.287 113.1 362.467 108.44 372.127 107.23C377.737 106.52 383.867 106.52 388.307 103.01C390.585 101.191 392.141 98.6214 392.697 95.76C392.875 95.1415 392.818 94.479 392.537 93.9C392.262 93.5246 391.893 93.2281 391.467 93.04C385.667 89.95 378.687 90.75 372.117 90.6C361.427 90.37 351.007 87.43 340.667 84.72C336.287 83.57 331.557 82.47 327.337 84.09C323.337 85.62 320.627 89.26 317.417 92.09C304.297 103.67 282.517 101.99 270.847 115.03C268.147 118.03 266.117 122.16 267.107 126.09C267.517 127.7 268.397 129.17 268.687 130.81C269.257 134.04 267.417 137.14 265.857 140.02C264.297 142.9 262.937 146.42 264.387 149.35C266.617 153.83 273.387 153.5 276.917 157.05C278.557 158.7 279.337 161.05 281.047 162.65C283.787 165.17 287.977 164.97 291.677 164.65C293.677 164.46 296.947 163.8 296.377 161.12C295.897 158.72 292.727 157.69 294.477 154.71Z" fill="#85596B"/>
<path d="M285.607 169.88C285.607 169.88 302.927 156.88 313.807 161.14C324.687 165.4 327.657 167.74 334.587 165.14C341.517 162.54 344.477 170.42 344.477 170.42L301.317 182.88L285.607 169.88Z" fill="#F8F9FA"/>
<path opacity="0.05" d="M262.237 192.61C262.237 192.61 270.157 172.16 279.717 168.2Z" fill="black"/>
<path opacity="0.05" d="M252.007 186.01C252.007 186.01 259.927 165.56 269.487 161.6Z" fill="black"/>
<path opacity="0.05" d="M437.367 190.96C437.367 190.96 465.367 177.44 484.197 178.76C503.027 180.08 506.297 168.21 506.297 168.21" fill="black"/>
<path d="M316.237 528.52C313.907 526.35 311.717 523.79 311.037 520.68C310.357 517.57 311.687 513.83 314.667 512.68C317.997 511.4 321.567 513.68 324.267 516.05C326.967 518.42 330.067 521.05 333.597 520.55C331.779 518.901 330.419 516.809 329.65 514.479C328.88 512.148 328.728 509.657 329.207 507.25C329.362 506.256 329.784 505.323 330.427 504.55C332.277 502.55 335.637 503.42 337.847 504.98C344.847 509.98 346.847 519.51 346.897 528.13C347.607 525.02 347.007 521.78 347.027 518.59C347.047 515.4 347.917 511.87 350.607 510.15C352.282 509.25 354.166 508.808 356.067 508.87C359.237 508.75 362.767 509.07 364.927 511.39C367.617 514.27 366.927 519.1 364.577 522.27C362.227 525.44 358.677 527.43 355.407 529.62C352.782 531.185 350.543 533.321 348.857 535.87C348.657 536.226 348.493 536.602 348.367 536.99H328.517C324.06 534.734 319.93 531.885 316.237 528.52V528.52Z" fill="#2524E9"/>
<path d="M774.767 439.37C773.22 438.109 772.094 436.407 771.537 434.49C771.117 432.55 771.947 430.23 773.797 429.49C775.867 428.7 778.087 430.13 779.797 431.59C781.507 433.05 783.397 434.7 785.597 434.39C784.466 433.365 783.62 432.064 783.142 430.615C782.663 429.166 782.569 427.617 782.867 426.12C782.963 425.501 783.226 424.921 783.627 424.44C784.777 423.21 786.867 423.74 788.247 424.71C792.627 427.79 793.847 433.71 793.877 439.1C794.317 437.17 793.947 435.15 793.957 433.17C793.967 431.19 794.507 428.99 796.187 427.93C797.23 427.368 798.403 427.092 799.587 427.13C801.587 427.06 803.747 427.26 805.097 428.7C806.767 430.49 806.337 433.49 804.877 435.46C803.417 437.43 801.207 438.67 799.177 440.03C797.545 441.004 796.154 442.334 795.107 443.92C794.985 444.14 794.884 444.371 794.807 444.61H782.397C779.629 443.215 777.063 441.452 774.767 439.37Z" fill="#2524E9"/>
<defs>
<linearGradient id="paint0_linear" x1="419.147" y1="338.98" x2="419.147" y2="80.55" gradientUnits="userSpaceOnUse">
<stop stop-color="#808080" stop-opacity="0.25"/>
<stop offset="0.54" stop-color="#808080" stop-opacity="0.12"/>
<stop offset="1" stop-color="#808080" stop-opacity="0.1"/>
</linearGradient>
</defs>
</svg>
