<svg width="744" height="540" viewBox="0 0 744 540" fill="none" xmlns="http://www.w3.org/2000/svg">
<g clip-path="url(#clip0)">
<path d="M474.114 404.286V534.286H148.415C111.306 534.286 81.1141 505.126 81.1141 469.286C81.1141 433.446 111.306 404.286 148.415 404.286H474.114Z" fill="#F2F2F2"/>
<path d="M482.114 533.286C482.114 534.612 481.587 535.884 480.649 536.821C479.712 537.759 478.44 538.286 477.114 538.286H142.614C124.447 538.286 107.024 531.069 94.1773 518.223C81.3311 505.377 74.1141 487.953 74.1141 469.786C74.1141 451.619 81.3311 434.196 94.1773 421.349C107.024 408.503 124.447 401.286 142.614 401.286H477.114C478.44 401.286 479.712 401.813 480.65 402.751C481.587 403.688 482.114 404.96 482.114 406.286C482.114 407.612 481.587 408.884 480.65 409.822C479.712 410.759 478.44 411.286 477.114 411.286H142.614C127.099 411.286 112.219 417.45 101.248 428.42C90.2775 439.391 84.1141 454.271 84.1141 469.786C84.1141 485.301 90.2775 500.181 101.248 511.152C112.219 522.123 127.099 528.286 142.614 528.286H477.114C478.44 528.287 479.712 528.814 480.649 529.751C481.587 530.689 482.114 531.96 482.114 533.286Z" fill="#2524E9"/>
<path d="M474.114 434.286H124.114C123.849 434.286 123.595 434.181 123.407 433.993C123.22 433.806 123.114 433.551 123.114 433.286C123.114 433.021 123.22 432.767 123.407 432.579C123.595 432.392 123.849 432.286 124.114 432.286H474.114C474.379 432.286 474.634 432.392 474.821 432.579C475.009 432.767 475.114 433.021 475.114 433.286C475.114 433.551 475.009 433.806 474.821 433.993C474.634 434.181 474.379 434.286 474.114 434.286Z" fill="#CCCCCC"/>
<path d="M474.114 458.286H124.114C123.849 458.286 123.595 458.181 123.407 457.993C123.22 457.806 123.114 457.551 123.114 457.286C123.114 457.021 123.22 456.767 123.407 456.579C123.595 456.392 123.849 456.286 124.114 456.286H474.114C474.379 456.286 474.634 456.392 474.821 456.579C475.009 456.767 475.114 457.021 475.114 457.286C475.114 457.551 475.009 457.806 474.821 457.993C474.634 458.181 474.379 458.286 474.114 458.286Z" fill="#CCCCCC"/>
<path d="M474.114 482.286H124.114C123.849 482.286 123.595 482.181 123.407 481.993C123.22 481.806 123.114 481.551 123.114 481.286C123.114 481.021 123.22 480.767 123.407 480.579C123.595 480.392 123.849 480.286 124.114 480.286H474.114C474.379 480.286 474.634 480.392 474.821 480.579C475.009 480.767 475.114 481.021 475.114 481.286C475.114 481.551 475.009 481.806 474.821 481.993C474.634 482.181 474.379 482.286 474.114 482.286Z" fill="#CCCCCC"/>
<path d="M474.114 506.286H124.114C123.849 506.286 123.595 506.181 123.407 505.993C123.22 505.806 123.114 505.551 123.114 505.286C123.114 505.021 123.22 504.767 123.407 504.579C123.595 504.392 123.849 504.286 124.114 504.286H474.114C474.379 504.286 474.634 504.392 474.821 504.579C475.009 504.767 475.114 505.021 475.114 505.286C475.114 505.551 475.009 505.806 474.821 505.993C474.634 506.181 474.379 506.286 474.114 506.286Z" fill="#CCCCCC"/>
<path d="M725.832 428.757L644.267 529.985L390.652 325.635C361.756 302.352 356.541 260.703 379.028 232.795C401.515 204.887 443.32 201.124 472.216 224.407L725.832 428.757Z" fill="#F2F2F2"/>
<path d="M651.124 534.226C650.291 535.258 649.083 535.917 647.765 536.059C646.447 536.201 645.126 535.814 644.093 534.982L383.625 325.11C369.478 313.711 360.439 297.16 358.496 279.097C356.553 261.034 361.865 242.938 373.263 228.792C384.662 214.645 401.213 205.606 419.277 203.663C437.34 201.72 455.435 207.032 469.581 218.431L730.05 428.303C730.562 428.715 730.987 429.223 731.302 429.8C731.617 430.376 731.816 431.009 731.886 431.662C731.957 432.315 731.898 432.976 731.713 433.606C731.528 434.236 731.221 434.824 730.809 435.335C730.396 435.847 729.887 436.272 729.311 436.587C728.734 436.902 728.102 437.1 727.448 437.17C726.795 437.24 726.135 437.18 725.505 436.995C724.874 436.81 724.287 436.502 723.776 436.09L463.307 226.217C457.325 221.394 450.452 217.796 443.08 215.629C435.707 213.463 427.98 212.77 420.34 213.59C412.699 214.411 405.295 216.728 398.551 220.411C391.806 224.093 385.854 229.068 381.032 235.052C376.211 241.035 372.616 247.91 370.452 255.283C368.288 262.657 367.599 270.384 368.422 278.024C369.245 285.664 371.566 293.067 375.251 299.81C378.936 306.553 383.913 312.504 389.899 317.323L650.367 527.195C651.4 528.028 652.059 529.236 652.201 530.554C652.343 531.872 651.955 533.193 651.124 534.226V534.226Z" fill="#CCCCCC"/>
<path d="M707.009 452.117L434.471 232.52C434.369 232.438 434.284 232.336 434.221 232.22C434.158 232.105 434.118 231.979 434.104 231.848C434.09 231.718 434.102 231.586 434.139 231.46C434.176 231.334 434.237 231.216 434.32 231.114C434.402 231.012 434.504 230.927 434.619 230.864C434.734 230.801 434.861 230.761 434.991 230.747C435.122 230.733 435.254 230.745 435.38 230.782C435.506 230.819 435.623 230.88 435.726 230.963L708.264 450.56C708.366 450.642 708.451 450.744 708.515 450.859C708.578 450.974 708.617 451.101 708.632 451.232C708.646 451.362 708.634 451.495 708.597 451.621C708.56 451.747 708.498 451.864 708.416 451.967C708.334 452.069 708.232 452.154 708.116 452.217C708.001 452.28 707.874 452.32 707.744 452.334C707.613 452.348 707.481 452.336 707.355 452.299C707.229 452.261 707.111 452.2 707.009 452.117V452.117Z" fill="#CCCCCC"/>
<path d="M691.951 470.805L419.413 251.208C419.207 251.042 419.075 250.8 419.047 250.536C419.019 250.273 419.096 250.009 419.263 249.803C419.429 249.596 419.67 249.464 419.934 249.436C420.197 249.407 420.461 249.485 420.668 249.651L693.206 469.248C693.308 469.33 693.393 469.432 693.456 469.547C693.52 469.663 693.559 469.789 693.573 469.92C693.588 470.051 693.576 470.183 693.539 470.309C693.502 470.435 693.44 470.553 693.358 470.655C693.275 470.757 693.174 470.842 693.058 470.905C692.943 470.968 692.816 471.008 692.686 471.022C692.555 471.036 692.423 471.024 692.297 470.987C692.171 470.95 692.053 470.888 691.951 470.805V470.805Z" fill="#CCCCCC"/>
<path d="M676.893 489.494L404.355 269.897C404.148 269.73 404.016 269.489 403.988 269.225C403.959 268.961 404.037 268.697 404.203 268.491C404.37 268.284 404.611 268.152 404.875 268.124C405.139 268.096 405.403 268.173 405.61 268.339L678.148 487.937C678.25 488.019 678.335 488.121 678.398 488.236C678.461 488.351 678.5 488.478 678.514 488.609C678.528 488.739 678.517 488.871 678.48 488.997C678.443 489.123 678.381 489.241 678.299 489.343C678.216 489.445 678.115 489.53 677.999 489.593C677.884 489.656 677.758 489.696 677.627 489.71C677.497 489.724 677.364 489.712 677.238 489.675C677.112 489.638 676.995 489.577 676.893 489.494V489.494Z" fill="#CCCCCC"/>
<path d="M661.835 508.182L389.297 288.585C389.194 288.502 389.109 288.401 389.046 288.285C388.983 288.17 388.944 288.044 388.93 287.913C388.916 287.783 388.927 287.65 388.964 287.524C389.001 287.398 389.063 287.281 389.145 287.179C389.228 287.076 389.329 286.991 389.445 286.929C389.56 286.866 389.686 286.826 389.817 286.812C389.948 286.798 390.08 286.81 390.206 286.847C390.332 286.884 390.449 286.945 390.551 287.027L663.089 506.625C663.192 506.707 663.277 506.809 663.34 506.924C663.403 507.039 663.443 507.166 663.457 507.297C663.471 507.427 663.46 507.559 663.423 507.686C663.386 507.812 663.324 507.929 663.242 508.032C663.159 508.134 663.057 508.219 662.942 508.282C662.827 508.345 662.7 508.385 662.569 508.399C662.439 508.413 662.307 508.401 662.18 508.363C662.054 508.326 661.937 508.265 661.835 508.182V508.182Z" fill="#CCCCCC"/>
<path d="M743 539.286H1C0.734784 539.286 0.480429 539.181 0.292892 538.993C0.105356 538.806 0 538.551 0 538.286C0 538.021 0.105356 537.767 0.292892 537.579C0.480429 537.392 0.734784 537.286 1 537.286H743C743.265 537.286 743.52 537.392 743.707 537.579C743.895 537.767 744 538.021 744 538.286C744 538.551 743.895 538.806 743.707 538.993C743.52 539.181 743.265 539.286 743 539.286Z" fill="#CCCCCC"/>
<path d="M340.534 124.062C340.144 124.454 339.786 124.877 339.462 125.326L289.9 123.575L284.231 112.944L267.069 119.402L275.275 139.202C275.938 140.801 277.102 142.142 278.592 143.024C280.082 143.905 281.818 144.28 283.538 144.091L339.623 137.933C340.927 139.621 342.713 140.872 344.745 141.52C346.776 142.168 348.957 142.182 350.997 141.56C353.037 140.938 354.839 139.71 356.164 138.038C357.488 136.367 358.273 134.332 358.413 132.204C358.552 130.076 358.041 127.956 356.946 126.126C355.852 124.296 354.226 122.843 352.285 121.959C350.344 121.076 348.18 120.804 346.081 121.181C343.982 121.557 342.047 122.564 340.534 124.067V124.062Z" fill="#FFB8B8"/>
<path d="M245.62 72.4014C261.603 72.4014 274.56 59.4445 274.56 43.4614C274.56 27.4783 261.603 14.5215 245.62 14.5215C229.637 14.5215 216.68 27.4783 216.68 43.4614C216.68 59.4445 229.637 72.4014 245.62 72.4014Z" fill="#2F2E41"/>
<path d="M223.031 27.8579C227.708 23.1813 228.655 16.5468 225.148 13.0394C221.641 9.53193 215.006 10.4797 210.33 15.1563C205.653 19.8329 204.705 26.4674 208.213 29.9748C211.72 33.4822 218.354 32.5344 223.031 27.8579Z" fill="#2F2E41"/>
<path d="M275.783 18.6675C277.732 14.1059 274.381 8.302 268.299 5.70397C262.217 3.10594 255.707 4.69763 253.758 9.25916C251.81 13.8207 255.161 19.6247 261.243 22.2227C267.325 24.8207 273.835 23.229 275.783 18.6675Z" fill="#2F2E41"/>
<path d="M287.726 121.603L265.518 131.534C264.886 131.816 264.201 131.959 263.508 131.953C262.816 131.947 262.134 131.791 261.507 131.498C260.88 131.204 260.324 130.778 259.877 130.25C259.429 129.722 259.101 129.104 258.914 128.437L252.365 105.084C250.941 101.844 250.86 98.1709 252.138 94.8705C253.417 91.5701 255.952 88.9109 259.187 87.4756C262.423 86.0402 266.095 85.9455 269.4 87.2123C272.705 88.4791 275.373 91.0041 276.82 94.2343L289.822 114.616C290.194 115.2 290.436 115.857 290.531 116.543C290.626 117.228 290.573 117.926 290.374 118.589C290.175 119.252 289.836 119.865 289.379 120.385C288.922 120.905 288.358 121.32 287.726 121.603H287.726Z" fill="#CCCCCC"/>
<path d="M185.159 219.313C186.689 218.958 188.122 218.272 189.358 217.303C190.594 216.333 191.602 215.105 192.312 213.704C193.021 212.303 193.415 210.764 193.466 209.194C193.516 207.624 193.222 206.063 192.603 204.619L232.206 115.147L209.551 109.441L177.747 199.183C175.391 200.383 173.556 202.405 172.591 204.867C171.626 207.329 171.598 210.059 172.512 212.54C173.425 215.022 175.217 217.082 177.548 218.33C179.879 219.578 182.587 219.928 185.159 219.313V219.313Z" fill="#FFB8B8"/>
<path d="M174.364 381.49L185.884 385.684L207.545 343.246L190.542 337.056L174.364 381.49Z" fill="#FFB8B8"/>
<path d="M204.206 404.47L168 391.288L173.093 377.299L195.31 385.388C199.02 386.739 202.042 389.509 203.71 393.087C205.378 396.666 205.556 400.76 204.206 404.47V404.47L204.206 404.47Z" fill="#2F2E41"/>
<path d="M201.612 357.067C200.905 357.068 200.207 356.911 199.568 356.609L186.329 350.338C185.244 349.828 184.388 348.931 183.931 347.822C183.474 346.714 183.449 345.474 183.86 344.348L221.224 240.88C221.534 240.023 222.08 239.271 222.799 238.712C223.519 238.153 224.382 237.81 225.289 237.722C226.195 237.634 227.109 237.805 227.922 238.215C228.736 238.625 229.416 239.257 229.885 240.038L249.647 272.975C250.087 273.709 250.324 274.547 250.333 275.402C250.342 276.258 250.123 277.1 249.699 277.843L205.812 354.645C205.387 355.383 204.775 355.995 204.037 356.42C203.3 356.845 202.463 357.069 201.612 357.067V357.067Z" fill="#2F2E41"/>
<path d="M246.538 74.9311C260.103 74.9311 271.099 63.9348 271.099 50.3701C271.099 36.8054 260.103 25.8091 246.538 25.8091C232.973 25.8091 221.977 36.8054 221.977 50.3701C221.977 63.9348 232.973 74.9311 246.538 74.9311Z" fill="#FFB8B8"/>
<path d="M281.285 162.039L237.797 150.08L214.668 103.821C213.556 101.599 213.032 99.1294 213.143 96.6473C213.255 94.1652 213.999 91.7529 215.306 89.6393C216.612 87.5258 218.437 85.7813 220.607 84.5714C222.777 83.3615 225.22 82.7265 227.705 82.7266H262.304C265.896 82.7243 269.361 84.0497 272.035 86.4479C281.316 94.7624 300.815 118.733 281.473 161.621L281.285 162.039Z" fill="#F59B66"/>
<path d="M226.845 131.148L204.811 120.835C204.184 120.541 203.628 120.116 203.18 119.588C202.733 119.061 202.404 118.442 202.216 117.776C202.029 117.11 201.988 116.411 202.095 115.727C202.202 115.043 202.455 114.39 202.837 113.813L216.227 93.5905C217.748 90.3936 220.474 87.9299 223.808 86.7393C227.142 85.5486 230.812 85.728 234.014 87.2383C237.216 88.7485 239.689 91.4664 240.891 94.7964C242.092 98.1264 241.925 101.797 240.426 105.004L233.502 128.167C233.303 128.83 232.964 129.442 232.507 129.963C232.051 130.483 231.488 130.899 230.856 131.182C230.224 131.465 229.539 131.608 228.847 131.602C228.155 131.597 227.472 131.442 226.845 131.148H226.845Z" fill="#F59B66"/>
<path d="M253.502 393.085H265.762L271.595 345.797L253.5 345.798L253.502 393.085Z" fill="#FFB8B8"/>
<path d="M289.406 404.468L250.875 404.47L250.875 389.583L274.518 389.582C278.467 389.582 282.253 391.15 285.045 393.942C287.837 396.734 289.406 400.52 289.406 404.468V404.468V404.468Z" fill="#2F2E41"/>
<path d="M258.131 375.066C257.029 375.067 255.96 374.689 255.104 373.994C254.248 373.299 253.658 372.331 253.434 371.251C249.91 354.647 231.607 269.6 217.322 225.793C202.788 181.222 227.541 160.921 232.65 157.304C233.194 156.92 233.627 156.398 233.903 155.791L237.615 147.625C238 146.782 238.619 146.068 239.399 145.567C240.178 145.065 241.086 144.799 242.012 144.799H242.042C269.871 144.965 279.226 153.737 281.957 157.502C282.359 158.062 282.636 158.704 282.766 159.382C282.896 160.06 282.877 160.758 282.71 161.428L265.103 234.073C264.994 234.523 264.969 234.99 265.03 235.449L282.548 367.349C282.632 367.983 282.589 368.628 282.422 369.245C282.254 369.862 281.966 370.44 281.573 370.944C281.18 371.449 280.69 371.87 280.132 372.183C279.575 372.497 278.961 372.696 278.325 372.769L258.697 375.033C258.509 375.055 258.32 375.066 258.131 375.066Z" fill="#2F2E41"/>
<path d="M220.73 34.9209C226.343 38.7893 233.004 40.848 239.821 40.8207C237.389 42.5067 234.621 43.6455 231.707 44.1587C240.77 46.1028 250.137 46.1554 259.221 44.3133C261.24 43.9895 263.189 43.3203 264.981 42.3351C265.874 41.8364 266.652 41.1553 267.265 40.3361C267.877 39.5169 268.31 38.578 268.536 37.5804C269.14 34.1319 266.453 30.9988 263.66 28.8873C259.385 25.7038 254.455 23.5104 249.228 22.4658C244 21.4213 238.606 21.5517 233.436 22.8476C230.059 23.7203 226.677 25.1949 224.484 27.9063C222.291 30.6177 221.642 34.7978 223.731 37.5898L220.73 34.9209Z" fill="#2F2E41"/>
</g>
<defs>
<clipPath id="clip0">
<rect width="744" height="539.286" fill="white"/>
</clipPath>
</defs>
</svg>
