<svg width="883" height="613" viewBox="0 0 883 613" fill="none" xmlns="http://www.w3.org/2000/svg">
<g clip-path="url(#clip0)">
<path d="M102.896 530.318C102.896 530.318 -9.40991 478.618 30.0431 442.766C69.4961 406.914 102.896 530.318 102.896 530.318Z" fill="#E6E6E6"/>
<path d="M100.941 542.382C100.941 542.382 49.3214 372.775 125.334 380.886C201.346 388.998 100.941 542.382 100.941 542.382Z" fill="#E6E6E6"/>
<path d="M63.3047 527.34L65.4713 555.711L65.5056 556.201C65.5036 560.632 65.7274 565.059 66.1763 569.467C69.1166 598.406 81.7548 611.595 96.5253 611.595C111.296 611.595 123.384 598.406 126.324 569.467C126.773 565.059 126.997 560.632 126.995 556.201L127.012 555.806L127.02 555.711L129.196 527.34H63.3047Z" fill="#E6E6E6"/>
<path d="M127.02 555.711L127.012 555.806L126.995 556.201C126.997 560.632 126.773 565.059 126.324 569.467H66.1763C65.7274 565.059 65.5036 560.632 65.5056 556.201L65.4713 555.711H127.02Z" fill="white"/>
<path d="M835.384 547.669C835.384 547.669 748.435 507.642 778.98 479.885C809.525 452.127 835.384 547.669 835.384 547.669Z" fill="#E6E6E6"/>
<path d="M833.871 557.009C833.871 557.009 793.906 425.697 852.756 431.977C911.606 438.256 833.871 557.009 833.871 557.009Z" fill="#E6E6E6"/>
<path d="M804.732 545.363L806.409 567.329L806.436 567.708C806.434 571.138 806.607 574.566 806.955 577.979C809.231 600.384 819.016 610.595 830.452 610.595C841.887 610.595 851.246 600.384 853.522 577.979C853.87 574.566 854.043 571.138 854.042 567.708L854.055 567.402L854.061 567.329L855.746 545.363H804.732Z" fill="#E6E6E6"/>
<path d="M854.061 567.329L854.055 567.402L854.042 567.708C854.043 571.138 853.87 574.566 853.522 577.979H806.955C806.607 574.566 806.434 571.138 806.436 567.708L806.409 567.329H854.061Z" fill="white"/>
<path d="M292.716 182.587V144H286.716V182.587C284.995 183.283 283.57 184.556 282.684 186.188C281.799 187.82 281.509 189.709 281.863 191.531C282.218 193.354 283.195 194.996 284.628 196.177C286.061 197.357 287.859 198.003 289.716 198.003C291.573 198.003 293.371 197.357 294.804 196.177C296.237 194.996 297.214 193.354 297.569 191.531C297.923 189.709 297.633 187.82 296.748 186.188C295.862 184.556 294.437 183.283 292.716 182.587Z" fill="#E6E6E6"/>
<path d="M306.716 572H265.716V74H249.716V572H208.716C203.857 572 199.046 572.957 194.557 574.816C190.068 576.676 185.989 579.401 182.553 582.837C179.117 586.273 176.392 590.352 174.533 594.841C172.673 599.33 171.716 604.141 171.716 609V609H343.716V609C343.716 604.141 342.759 599.33 340.9 594.841C339.04 590.352 336.315 586.273 332.879 582.837C329.443 579.401 325.364 576.676 320.875 574.816C316.386 572.957 311.575 572 306.716 572V572Z" fill="#E6E6E6"/>
<path d="M171.799 148H343.633L333.125 16.6597C332.741 12.1308 330.676 7.90962 327.337 4.82654C323.997 1.74346 319.624 0.0216936 315.079 0H200.353C195.808 0.0216925 191.435 1.74345 188.096 4.82652C184.756 7.9096 182.691 12.1308 182.307 16.6597L171.799 148Z" fill="#2524E9"/>
<path d="M411.055 378.52C409.439 378.251 407.785 378.306 406.19 378.681C404.595 379.057 403.091 379.746 401.764 380.708C400.438 381.67 399.315 382.885 398.463 384.285C397.61 385.684 397.044 387.239 396.797 388.859L391.959 420.607L408.419 424.973L420.48 395.392C421.181 393.673 421.486 391.819 421.373 389.966C421.259 388.113 420.73 386.31 419.825 384.689C418.92 383.069 417.661 381.673 416.143 380.605C414.625 379.537 412.886 378.824 411.055 378.52Z" fill="#A0616A"/>
<path d="M410.747 420.548C419.882 456.85 415.951 490.054 381.935 516.124C341.136 504.878 314 477.743 297.444 438.306C296.415 435.854 295.893 433.219 295.91 430.56C295.927 427.901 296.483 425.272 297.544 422.834C298.605 420.395 300.149 418.197 302.083 416.372C304.017 414.547 306.301 413.132 308.797 412.214V412.214C312.547 410.835 316.628 410.631 320.496 411.628C324.365 412.625 327.839 414.777 330.455 417.796L370.487 464L389.266 417.411L410.747 420.548Z" fill="#F59B66"/>
<path d="M619.788 611.007C582.535 609.028 559.393 596.237 553.788 570.007L559.788 559.007L628.483 590.301C630.217 591.091 631.677 592.379 632.677 594.001C633.678 595.623 634.173 597.506 634.101 599.41C634.029 601.315 633.391 603.154 632.271 604.696C631.15 606.237 629.596 607.411 627.807 608.067L619.788 611.007Z" fill="#E6E6E6"/>
<path d="M591.003 611.269C571.647 610.683 553.032 610.865 535.394 612.059C532.3 612.271 529.248 611.254 526.899 609.229C524.55 607.204 523.094 604.335 522.847 601.243L521.788 588.007L506.788 564.007L519.788 551.007C541.635 572.766 565.595 591.042 594.051 601.906C594.966 602.533 595.653 603.439 596.009 604.488C596.366 605.538 596.373 606.674 596.03 607.729C595.687 608.783 595.012 609.697 594.106 610.335C593.199 610.974 592.111 611.301 591.003 611.269V611.269Z" fill="#E6E6E6"/>
<path d="M485.788 517.007C461.072 561.233 436.763 591.047 404.788 607.007C365.449 619.991 336.698 602.789 314.288 567.507L379.288 524.507L388.788 534.007L474.886 468.488C476.989 466.497 479.793 465.416 482.689 465.481C485.584 465.545 488.337 466.75 490.35 468.832L563.788 559.007L554.788 574.007L485.788 517.007Z" fill="#2F2E41"/>
<path d="M507.788 569.007L473.788 517.007L481.788 502.007L526.788 549.007L507.788 569.007Z" fill="#2F2E41"/>
<path d="M311.788 403.007C330.566 403.007 345.788 387.785 345.788 369.007C345.788 350.229 330.566 335.007 311.788 335.007C293.01 335.007 277.788 350.229 277.788 369.007C277.788 387.785 293.01 403.007 311.788 403.007Z" fill="#A0616A"/>
<path d="M320.788 432.007L282.788 419.007C288.411 410.071 290.876 399.508 289.788 389.007H320.788C319.025 404.265 318.761 418.736 320.788 432.007Z" fill="#A0616A"/>
<path d="M401.788 523.007C396.091 525.346 395.675 532.93 390.288 535.507C364.248 547.966 336.699 558.075 317.788 576.007C273.595 545.997 232.633 452.789 285.788 412.007C303.932 422.624 320.139 430.222 319.788 412.007L401.788 523.007Z" fill="#F59B66"/>
<path opacity="0.2" d="M378.788 483.007L360.288 476.507L323.788 505.007L307.426 446.104C306.291 442.018 304.452 444.089 301.812 446.927C299.06 444.379 295.637 442.672 291.946 442.006C288.256 441.34 284.452 441.744 280.983 443.169C277.514 444.594 274.525 446.981 272.368 450.049C270.211 453.116 268.976 456.737 268.81 460.483C266.863 503.21 279.748 539.357 311.788 567.007C353.695 558.034 371.48 529.72 378.788 493.007L376.807 491.686C377.537 488.849 378.197 485.956 378.788 483.007Z" fill="black"/>
<path d="M316.363 324.281C327.578 326.843 340.343 330.473 341.059 333.848C352.595 336.755 361.303 343.719 363.081 354.335C363.23 355.252 363.175 356.191 362.922 357.085C362.668 357.98 362.222 358.807 361.613 359.51C361.005 360.213 360.251 360.774 359.402 361.154C358.554 361.534 357.632 361.723 356.703 361.708C350.429 361.627 341.01 361.026 334.791 358.428C316.724 370.07 313.692 400.347 321.582 420.956L309.166 419.818L296.321 382.216L293.04 418.34L264.707 414.594L268.357 368.529C269.478 357.672 273.173 347.239 279.135 338.096C279.754 337.178 280.431 336.3 281.163 335.469C285.473 330.599 291.021 326.988 297.219 325.018C303.417 323.048 310.032 322.793 316.363 324.281V324.281Z" fill="#2F2E41"/>
<path d="M380.285 438.428L411.402 475.011L458.078 419.925L426.54 381.659L380.285 438.428Z" fill="#3F3D56"/>
<path d="M450.088 421.187L413.084 390.91C415.186 385.864 425.279 387.546 425.279 387.546L454.245 416.912C455.254 417.935 456.119 419.09 456.816 420.346V420.346L450.088 421.187Z" fill="#F2F2F2"/>
<path d="M451.77 419.084L409.72 386.285L363.044 456.93L406.987 486.575C411.192 488.257 415.397 485.314 415.397 485.314L458.288 419.715L451.77 419.084Z" fill="#3F3D56"/>
<path d="M414.964 396.522L414.566 397.076L441.48 416.416L441.878 415.863L414.964 396.522Z" fill="#2524E9"/>
<path d="M442.235 423.101L406.912 476.505L407.481 476.881L442.803 423.477L442.235 423.101Z" fill="#2524E9"/>
<path d="M374.603 457.071L374.199 457.62L402.787 478.654L403.191 478.105L374.603 457.071Z" fill="#2524E9"/>
<path d="M409.861 397.444L373.277 450.007L373.836 450.396L410.42 397.833L409.861 397.444Z" fill="#2524E9"/>
<path d="M421.161 387.13L420.877 387.439L454.151 417.977L454.435 417.668L421.161 387.13Z" fill="#B3B3B3"/>
<path d="M418.389 387.391L418.111 387.707L452.887 418.407L453.165 418.092L418.389 387.391Z" fill="#B3B3B3"/>
<path d="M416.214 388.003L415.944 388.326L452.045 418.418L452.314 418.095L416.214 388.003Z" fill="#B3B3B3"/>
<path d="M397.081 449.168C395.736 448.232 394.219 447.573 392.617 447.228C391.015 446.884 389.36 446.861 387.749 447.162C386.139 447.462 384.604 448.08 383.233 448.978C381.863 449.877 380.685 451.039 379.768 452.397L361.788 479.007L374.788 490.007L398.364 468.451C399.734 467.199 400.805 465.654 401.496 463.932C402.188 462.209 402.483 460.353 402.36 458.501C402.237 456.649 401.698 454.848 400.785 453.233C399.871 451.617 398.605 450.228 397.081 449.168V449.168Z" fill="#A0616A"/>
<path d="M378.788 487.007C371.48 523.721 353.695 552.034 311.788 561.007C279.748 533.357 266.863 497.21 268.81 454.484C268.931 451.827 269.589 449.223 270.744 446.827C271.9 444.432 273.529 442.296 275.532 440.548C277.536 438.799 279.874 437.475 282.403 436.655C284.933 435.835 287.603 435.536 290.251 435.776V435.776C294.23 436.138 298.005 437.703 301.073 440.262C304.141 442.821 306.357 446.254 307.426 450.104L323.788 509.007L360.725 474.965L378.788 487.007Z" fill="#F59B66"/>
<path d="M882.556 612.148H0V609.966H882.951L882.556 612.148Z" fill="#3F3D56"/>
<path d="M461.288 91.5068C460.758 91.5074 460.249 91.7182 459.874 92.0932C459.499 92.4682 459.288 92.9766 459.288 93.5068V249.507C459.288 250.037 459.499 250.545 459.874 250.92C460.249 251.295 460.758 251.506 461.288 251.507H591.288C591.818 251.506 592.327 251.295 592.702 250.92C593.076 250.545 593.287 250.037 593.288 249.507V93.5068C593.287 92.9766 593.076 92.4682 592.702 92.0933C592.327 91.7183 591.818 91.5074 591.288 91.5068H461.288Z" fill="#E6E6E6"/>
<path d="M474.788 236.007H577.788V107.007H474.788V236.007Z" fill="white"/>
<path d="M677.721 132.507C677.404 132.507 677.101 132.633 676.877 132.857C676.653 133.081 676.527 133.384 676.527 133.701V211.313C676.527 211.629 676.653 211.933 676.877 212.157C677.101 212.381 677.404 212.506 677.721 212.507H770.855C771.172 212.506 771.475 212.381 771.699 212.157C771.923 211.933 772.049 211.629 772.049 211.313V133.701C772.049 133.384 771.923 133.081 771.699 132.857C771.475 132.633 771.172 132.507 770.855 132.507L677.721 132.507Z" fill="#E6E6E6"/>
<path d="M685.781 141.761V203.253H762.796V141.761H685.781Z" fill="white"/>
<path d="M544.475 102.507H508.102C507.223 102.51 506.358 102.282 505.596 101.844C504.834 101.405 504.201 100.774 503.762 100.013C503.322 99.2513 503.092 98.3875 503.093 97.5084C503.095 96.6294 503.329 95.7664 503.771 95.0069L521.958 63.5069C521.973 63.481 521.988 63.4552 522.003 63.4293C522.401 62.7593 522.951 62.1928 523.609 61.776C524.267 61.3591 525.014 61.1038 525.79 61.0308L525.816 61.0284C525.972 61.0142 526.129 61.0069 526.288 61.0069C527.167 61.0017 528.031 61.2305 528.792 61.6699C529.553 62.1093 530.183 62.7433 530.618 63.5069L548.805 95.0069C549.243 95.767 549.474 96.6292 549.474 97.5069C549.474 98.3845 549.243 99.2467 548.805 100.007C548.366 100.767 547.735 101.398 546.974 101.837C546.214 102.276 545.352 102.507 544.475 102.507V102.507ZM507.098 97.502C507.099 97.6794 507.147 97.8533 507.235 98.0069C507.322 98.1602 507.448 98.2874 507.6 98.3753C507.752 98.4633 507.926 98.5087 508.102 98.5069H544.474C544.65 98.5088 544.824 98.4634 544.976 98.3754C545.128 98.2875 545.254 98.1602 545.341 98.0069C545.429 97.8535 545.477 97.6797 545.478 97.5025C545.477 97.3282 545.43 97.1574 545.341 97.0074L527.154 65.5069C527.066 65.3549 526.94 65.2286 526.788 65.1409C526.636 65.0531 526.464 65.0069 526.288 65.0069C526.112 65.0069 525.94 65.0531 525.788 65.1409C525.636 65.2286 525.51 65.3549 525.422 65.5069L507.235 97.0069C507.146 97.1568 507.099 97.3277 507.098 97.502V97.502Z" fill="#E6E6E6"/>
<path d="M526.288 70.5068C527.945 70.5068 529.288 69.1637 529.288 67.5068C529.288 65.85 527.945 64.5068 526.288 64.5068C524.631 64.5068 523.288 65.85 523.288 67.5068C523.288 69.1637 524.631 70.5068 526.288 70.5068Z" fill="#E6E6E6"/>
<path d="M734.148 135.007H714.428C713.951 135.009 713.483 134.885 713.069 134.647C712.656 134.41 712.313 134.067 712.075 133.655C711.836 133.242 711.711 132.773 711.712 132.297C711.713 131.82 711.84 131.352 712.08 130.941L721.94 113.862L721.965 113.82C722.18 113.457 722.479 113.15 722.835 112.924C723.192 112.698 723.597 112.559 724.018 112.52L724.032 112.519C724.116 112.511 724.202 112.507 724.288 112.507C724.764 112.504 725.233 112.628 725.646 112.866C726.058 113.105 726.4 113.448 726.636 113.862L736.496 130.941C736.734 131.353 736.859 131.82 736.859 132.296C736.859 132.772 736.734 133.239 736.496 133.651C736.258 134.063 735.915 134.406 735.503 134.644C735.091 134.882 734.624 135.007 734.148 135.007V135.007ZM713.883 132.293C713.884 132.39 713.91 132.484 713.958 132.567C714.005 132.65 714.073 132.719 714.156 132.767C714.238 132.815 714.332 132.839 714.428 132.838H734.148C734.243 132.839 734.337 132.815 734.42 132.767C734.503 132.719 734.571 132.65 734.618 132.567C734.666 132.484 734.691 132.39 734.692 132.294C734.692 132.199 734.666 132.107 734.618 132.025L724.758 114.947C724.71 114.864 724.642 114.796 724.559 114.748C724.477 114.701 724.383 114.676 724.288 114.676C724.193 114.676 724.099 114.701 724.017 114.748C723.934 114.796 723.866 114.864 723.818 114.947L713.958 132.025C713.91 132.106 713.884 132.199 713.883 132.293V132.293Z" fill="#E6E6E6"/>
<path d="M724.288 117.658C725.186 117.658 725.914 116.929 725.914 116.031C725.914 115.133 725.186 114.405 724.288 114.405C723.39 114.405 722.661 115.133 722.661 116.031C722.661 116.929 723.39 117.658 724.288 117.658Z" fill="#E6E6E6"/>
<path d="M475.966 186.888C477.403 183.588 479.498 180.616 482.122 178.153C484.746 175.689 487.844 173.787 491.228 172.561C494.747 171.202 498.518 170.62 502.282 170.855C506.047 171.089 509.717 172.134 513.04 173.918C520.844 178.059 527.082 184.571 535.008 188.534C542.714 192.352 551.194 194.35 559.794 194.373C569.531 194.449 579.116 191.961 587.587 187.159C587.916 186.951 588.152 186.624 588.244 186.246C588.336 185.868 588.278 185.468 588.082 185.132C587.885 184.796 587.566 184.55 587.191 184.445C586.816 184.339 586.415 184.384 586.073 184.569C578.396 188.871 569.773 191.207 560.974 191.368C552.175 191.53 543.473 189.512 535.643 185.494C527.692 181.325 521.392 174.594 513.292 170.687C509.853 169.019 506.118 168.049 502.302 167.835C498.486 167.621 494.665 168.166 491.061 169.44C487.055 170.783 483.38 172.963 480.279 175.833C477.178 178.704 474.722 182.2 473.073 186.09C472.345 187.877 475.246 188.655 475.966 186.888V186.888Z" fill="#E6E6E6"/>
<path d="M473.596 214.931C490.244 211.214 507.514 211.274 524.136 215.106C538.903 218.53 554.146 224.691 569.37 220.096C576.172 218.043 582.405 213.938 585.9 207.619C586.835 205.928 584.245 204.413 583.309 206.105C576.73 218.002 561.317 220.009 549.143 218.057C541.009 216.753 533.169 214.138 525.163 212.266C507.95 208.23 490.046 208.152 472.798 212.038C470.915 212.458 471.712 215.351 473.596 214.931V214.931Z" fill="#E6E6E6"/>
<path d="M472.515 147.872C488.478 145.157 504.827 145.739 520.557 149.581C535.252 153.182 549.616 161.407 565.154 159.986C572.348 159.329 579.47 156.683 584.357 151.18C585.635 149.74 583.52 147.611 582.235 149.058C578.02 153.806 571.947 156.266 565.717 156.931C558.535 157.697 551.479 156.209 544.643 154.095C537.077 151.755 529.726 148.791 522.034 146.857C505.577 142.724 488.437 142.085 471.717 144.979C469.818 145.303 470.623 148.195 472.515 147.872V147.872Z" fill="#E6E6E6"/>
<path d="M699.192 140.747C706.089 147.81 710.847 156.681 712.914 166.334C714.504 174.013 714.325 181.954 712.39 189.553C710.455 197.153 706.815 204.212 701.746 210.196C700.503 211.659 702.616 213.791 703.868 212.317C710.773 204.181 715.183 194.225 716.566 183.644C717.575 175.476 716.727 167.186 714.086 159.391C711.445 151.597 707.079 144.499 701.313 138.626C699.959 137.245 697.839 139.367 699.192 140.747Z" fill="#E6E6E6"/>
<path d="M744.203 134.346C735.009 141.089 729.861 151.973 729.137 163.231C728.384 174.944 732.851 186.257 740.045 195.351C744.242 200.588 749.256 205.114 754.893 208.755C756.513 209.815 758.018 207.219 756.407 206.165C747.223 200.155 739.364 191.618 735.19 181.374C733.155 176.508 732.101 171.288 732.086 166.013C732.071 160.739 733.096 155.514 735.103 150.636C737.351 145.201 741.016 140.47 745.717 136.936C747.258 135.806 745.763 133.202 744.203 134.346V134.346Z" fill="#E6E6E6"/>
<path d="M533.288 164.507C541.02 164.507 547.288 158.239 547.288 150.507C547.288 142.775 541.02 136.507 533.288 136.507C525.556 136.507 519.288 142.775 519.288 150.507C519.288 158.239 525.556 164.507 533.288 164.507Z" fill="#E6E6E6"/>
</g>
<defs>
<clipPath id="clip0">
<rect width="882.951" height="612.148" fill="white"/>
</clipPath>
</defs>
</svg>
