<svg width="1022" height="795" viewBox="0 0 1022 795" fill="none" xmlns="http://www.w3.org/2000/svg">
<path opacity="0.1" d="M829 105.37V530.63C829.004 544.468 826.281 558.172 820.987 570.958C815.693 583.744 807.932 595.361 798.147 605.147C788.361 614.932 776.744 622.693 763.958 627.987C751.172 633.281 737.468 636.004 723.63 636H298.37C274.56 636.032 251.446 627.972 232.82 613.14C225.111 606.999 218.292 599.817 212.56 591.8C199.834 573.942 192.997 552.558 193 530.63V105.37C193 102.55 193.11 99.76 193.33 97C193.749 91.6095 194.589 86.26 195.84 81C201.329 57.9343 214.434 37.3929 233.039 22.695C251.643 7.99721 274.66 0.00153477 298.37 0H723.63C747.34 0.00153477 770.357 7.99721 788.961 22.695C807.566 37.3929 820.671 57.9343 826.16 81C827.411 86.26 828.25 91.6095 828.67 97C828.89 99.76 829 102.55 829 105.37Z" fill="#2524E9"/>
<path opacity="0.1" d="M519 335H829V351H519V462H829V478H519V636H503V478H193V462H503V351H193V335H503V224H193V208H503V97H193.33C193.749 91.6095 194.589 86.26 195.84 81H503V0H519V81H826.16C827.411 86.26 828.25 91.6095 828.67 97H519V208H829V224H519V335Z" fill="#2524E9"/>
<path opacity="0.1" d="M511 795C793.218 795 1022 759.107 1022 714.83C1022 670.553 793.218 634.66 511 634.66C228.783 634.66 0 670.553 0 714.83C0 759.107 228.783 795 511 795Z" fill="#2524E9"/>
<path d="M902.7 686.01C916.673 686.01 928 683.83 928 681.14C928 678.45 916.673 676.27 902.7 676.27C888.727 676.27 877.4 678.45 877.4 681.14C877.4 683.83 888.727 686.01 902.7 686.01Z" fill="#2524E9"/>
<path d="M902.28 682.94C903.909 682.94 905.23 681.212 905.23 679.08C905.23 676.948 903.909 675.22 902.28 675.22C900.651 675.22 899.33 676.948 899.33 679.08C899.33 681.212 900.651 682.94 902.28 682.94Z" fill="#3F3D56"/>
<path d="M902.28 678.22C903.909 678.22 905.23 676.492 905.23 674.36C905.23 672.228 903.909 670.5 902.28 670.5C900.651 670.5 899.33 672.228 899.33 674.36C899.33 676.492 900.651 678.22 902.28 678.22Z" fill="#3F3D56"/>
<path d="M902.28 673.51C903.909 673.51 905.23 671.782 905.23 669.65C905.23 667.518 903.909 665.79 902.28 665.79C900.651 665.79 899.33 667.518 899.33 669.65C899.33 671.782 900.651 673.51 902.28 673.51Z" fill="#3F3D56"/>
<path d="M902.28 668.8C903.909 668.8 905.23 667.072 905.23 664.94C905.23 662.808 903.909 661.08 902.28 661.08C900.651 661.08 899.33 662.808 899.33 664.94C899.33 667.072 900.651 668.8 902.28 668.8Z" fill="#3F3D56"/>
<path d="M902.28 664.08C903.909 664.08 905.23 662.352 905.23 660.22C905.23 658.088 903.909 656.36 902.28 656.36C900.651 656.36 899.33 658.088 899.33 660.22C899.33 662.352 900.651 664.08 902.28 664.08Z" fill="#3F3D56"/>
<path d="M902.28 659.37C903.909 659.37 905.23 657.642 905.23 655.51C905.23 653.378 903.909 651.65 902.28 651.65C900.651 651.65 899.33 653.378 899.33 655.51C899.33 657.642 900.651 659.37 902.28 659.37Z" fill="#3F3D56"/>
<path d="M902.28 654.66C903.909 654.66 905.23 652.932 905.23 650.8C905.23 648.668 903.909 646.94 902.28 646.94C900.651 646.94 899.33 648.668 899.33 650.8C899.33 652.932 900.651 654.66 902.28 654.66Z" fill="#3F3D56"/>
<path d="M913.3 618.55C913.705 618.037 914.073 617.496 914.4 616.93L906.66 615.66L915.03 615.72C915.832 613.972 916.269 612.08 916.316 610.158C916.362 608.236 916.016 606.324 915.3 604.54L904.07 610.37L914.43 602.75C913.463 601.064 912.159 599.595 910.599 598.436C909.038 597.277 907.256 596.453 905.362 596.015C903.468 595.577 901.505 595.535 899.594 595.891C897.683 596.247 895.866 596.993 894.257 598.084C892.649 599.174 891.282 600.585 890.244 602.228C889.205 603.871 888.517 605.711 888.223 607.632C887.928 609.554 888.034 611.515 888.532 613.393C889.031 615.272 889.912 617.028 891.12 618.55C890.495 619.348 889.955 620.209 889.51 621.12L899.51 626.34L888.8 622.74C888.045 624.963 887.857 627.339 888.253 629.653C888.649 631.967 889.618 634.145 891.07 635.99C889.433 638.071 888.414 640.571 888.131 643.204C887.848 645.837 888.311 648.496 889.468 650.878C890.625 653.26 892.428 655.268 894.673 656.674C896.917 658.079 899.512 658.824 902.16 658.824C904.808 658.824 907.403 658.079 909.647 656.674C911.892 655.268 913.695 653.26 914.852 650.878C916.009 648.496 916.472 645.837 916.189 643.204C915.906 640.571 914.887 638.071 913.25 635.99C915.206 633.504 916.27 630.433 916.27 627.27C916.27 624.107 915.206 621.036 913.25 618.55H913.3Z" fill="#2524E9"/>
<path opacity="0.1" d="M888.1 627.27C888.09 630.432 889.147 633.504 891.1 635.99C889.463 638.071 888.444 640.571 888.161 643.204C887.878 645.837 888.341 648.496 889.498 650.878C890.655 653.26 892.458 655.269 894.703 656.674C896.947 658.079 899.542 658.824 902.19 658.824C904.838 658.824 907.433 658.079 909.677 656.674C911.922 655.269 913.725 653.26 914.882 650.878C916.039 648.496 916.502 645.837 916.219 643.204C915.936 640.571 914.917 638.071 913.28 635.99C915.19 633.59 888.1 625.69 888.1 627.27Z" fill="black"/>
<path d="M809.5 557H206.5V695.5H809.5V557Z" fill="#46455B"/>
<path d="M210.5 413.5L153.5 456.5L197.5 496.5L222.5 456.5L256.5 413.5H210.5Z" fill="#46455B"/>
<path d="M799.5 465.5L791.5 456.5L740.5 427.5L787.5 426.5L860.5 456.5L830.5 475.5L799.5 465.5Z" fill="#46455B"/>
<path d="M206.5 467.5L256.5 413.5V537.5L222.5 565.5L201.5 536.5L206.5 467.5Z" fill="#46455B"/>
<path d="M800.5 489.5L791.5 456.5L774.5 434.5L740.5 427.5V565.5H809.5L800.5 489.5Z" fill="#46455B"/>
<path d="M267.55 376.5H734.45C738.574 376.5 742.529 378.138 745.445 381.055C748.362 383.971 750 387.926 750 392.05V534.5H252V392.05C252 387.926 253.638 383.971 256.555 381.055C259.471 378.138 263.426 376.5 267.55 376.5V376.5Z" fill="#46455B"/>
<path d="M222.5 565.5L256.5 523.5H740.5L791.5 565.5H222.5Z" fill="#46455B"/>
<path opacity="0.05" d="M222.5 565.5L256.5 523.5H740.5L791.5 565.5H222.5Z" fill="black"/>
<path d="M222.5 456.5H153.5V695.5H222.5V456.5Z" fill="#46455B"/>
<path opacity="0.05" d="M222.5 456.5H153.5V695.5H222.5V456.5Z" fill="white"/>
<path d="M860.5 456.5H791.5V695.5H860.5V456.5Z" fill="#46455B"/>
<path opacity="0.05" d="M860.5 456.5H791.5V695.5H860.5V456.5Z" fill="white"/>
<path d="M440 412C484.183 412 520 364.766 520 306.5C520 248.234 484.183 201 440 201C395.817 201 360 248.234 360 306.5C360 364.766 395.817 412 440 412Z" fill="#2F2E41"/>
<path d="M475 261H386V385H475V261Z" fill="#2F2E41"/>
<path opacity="0.1" d="M475 261H386V385H475V261Z" fill="black"/>
<path d="M392.46 333.72C389.676 337.111 386.081 339.745 382.008 341.378C377.935 343.01 373.516 343.589 369.16 343.06C368.76 349.28 372.98 354.74 376.97 359.53L408.2 397C408.323 397.297 408.525 397.554 408.785 397.744C409.044 397.933 409.351 398.048 409.671 398.075C409.991 398.102 410.312 398.04 410.6 397.896C410.887 397.752 411.129 397.532 411.3 397.26L459 352.01C454.24 354.01 448.61 350.84 446 346.38C443.39 341.92 443.13 336.56 442.89 331.38C442.543 323.647 442.21 315.92 441.89 308.2C441.81 306.48 441.64 304.58 440.37 303.42C439.382 302.676 438.203 302.229 436.97 302.13C429.44 300.84 405.97 294.13 401.62 302.05C399.62 305.66 400.52 312.7 399.62 316.78C398.27 322.83 396.36 328.86 392.46 333.72Z" fill="#FBBEBE"/>
<path opacity="0.1" d="M392.46 333.72C389.676 337.111 386.081 339.745 382.008 341.378C377.935 343.01 373.516 343.589 369.16 343.06C368.76 349.28 372.98 354.74 376.97 359.53L408.2 397C408.323 397.297 408.525 397.554 408.785 397.744C409.044 397.933 409.351 398.048 409.671 398.075C409.991 398.102 410.312 398.04 410.6 397.896C410.887 397.752 411.129 397.532 411.3 397.26L459 352.01C454.24 354.01 448.61 350.84 446 346.38C443.39 341.92 443.13 336.56 442.89 331.38C442.543 323.647 442.21 315.92 441.89 308.2C441.81 306.48 441.64 304.58 440.37 303.42C439.382 302.676 438.203 302.229 436.97 302.13C429.44 300.84 405.97 294.13 401.62 302.05C399.62 305.66 400.52 312.7 399.62 316.78C398.27 322.83 396.36 328.86 392.46 333.72Z" fill="black"/>
<path d="M427 326C452.957 326 474 304.957 474 279C474 253.043 452.957 232 427 232C401.043 232 380 253.043 380 279C380 304.957 401.043 326 427 326Z" fill="#FBBEBE"/>
<path d="M410 373.64L402.46 349.87C399.46 340.35 395.2 329.56 385.7 326.49C379.7 324.57 373.23 326.33 366.98 325.8C354.82 324.75 342.98 315.08 331.61 319.51C317.61 324.95 317.73 346.45 305.3 354.89C305.3 374.98 311.79 393.64 315.3 413.41C318.81 433.18 319.82 454.52 310.66 472.41C306.78 479.99 301.23 486.59 297.09 494.03C290.303 506.299 287.527 520.384 289.15 534.31C342.23 534.977 395.317 535.137 448.41 534.79C447.92 527.91 444.85 521.13 444.35 514.25C444.05 512.173 444.214 510.056 444.83 508.05C446 505.05 448.98 503.26 451.53 501.31C454.946 498.677 457.84 495.428 460.06 491.73C463.6 485.84 465.28 479.05 466.92 472.37L486.8 391.37C489.17 381.72 491.47 371.19 487.35 362.15C482.83 352.22 471.99 347.06 461.98 342.71C455.98 340.08 449.08 337.42 442.98 339.84C437.98 341.84 434.84 346.63 431.68 350.97C425.566 359.518 418.266 367.151 410 373.64V373.64Z" fill="#F59B66"/>
<path opacity="0.1" d="M304.77 362.02C303.21 367.86 304.08 374.1 302.93 380.02C301 389.93 293.77 397.81 288.93 406.65C281.429 420.377 279.53 436.474 283.63 451.57C284.85 455.98 287.02 460.7 291.3 462.32C294.36 463.49 297.78 462.76 301.05 463.05C305.37 463.43 309.86 465.57 313.85 463.87C318.78 461.77 319.76 455.36 320.3 450.03C321.544 437.67 324.205 425.493 328.23 413.74C332.23 401.98 337.72 390.31 337.64 377.88C337.58 369.12 326.36 377.18 319.04 371.99C310.78 366.17 307.48 351.93 304.77 362.02Z" fill="black"/>
<path d="M302.77 361.02C301.21 366.86 302.08 373.1 300.93 379.02C299 388.93 291.77 396.81 286.93 405.65C279.429 419.377 277.53 435.474 281.63 450.57C282.85 454.98 285.02 459.7 289.3 461.32C292.36 462.49 295.78 461.76 299.05 462.05C303.37 462.43 307.86 464.57 311.85 462.87C316.78 460.77 317.76 454.36 318.3 449.03C319.544 436.669 322.205 424.493 326.23 412.74C330.23 400.98 335.72 389.31 335.64 376.88C335.58 368.12 331.73 358.44 324.41 353.25C316.15 347.43 305.48 350.93 302.77 361.02Z" fill="#F59B66"/>
<path d="M371.2 306.03C377.2 302.67 383.11 299.03 389.29 295.91C398.95 291.08 409.81 287.31 417.41 279.91C417.801 279.537 418.282 279.27 418.806 279.135C419.33 279 419.879 279.001 420.402 279.138C420.926 279.275 421.405 279.544 421.795 279.919C422.185 280.294 422.472 280.763 422.63 281.28C425.9 291.93 429.769 302.387 434.22 312.6C438.06 321.4 442.34 330.04 445.22 339.2C447.22 345.57 448.47 352.2 450.96 358.33C454.21 366.33 459.4 373.45 464.55 380.43C466.44 383.01 468.39 385.63 471.04 387.43C474.76 389.96 480.31 391.58 480.7 396.06C475.87 399.55 469.3 398.4 463.35 398.35C457.4 398.3 451.35 399.53 445.47 400.98C438.601 402.547 431.902 404.785 425.47 407.66C419.21 410.61 413.47 414.49 407.67 418.35L354.5 454.02C350.59 449.55 350.74 443.02 349.9 437.1C349.183 432.84 348.154 428.639 346.82 424.53L341.52 406.68C339 398.2 336.52 389.73 333.68 381.34C331.34 374.34 328.74 367.27 324.16 361.49C318.64 354.49 310.7 349.95 303.81 344.32C301.37 342.32 298.96 340.04 298.05 337.02C297.748 336.034 297.663 334.994 297.801 333.972C297.939 332.95 298.297 331.971 298.85 331.1C300.31 328.99 302.4 329.3 304.72 328.93C310.38 328.03 315.993 326.893 321.56 325.52C332.603 322.78 343.397 319.12 353.83 314.58C359.757 312.02 365.547 309.17 371.2 306.03Z" fill="#BBBDC8"/>
<path opacity="0.1" d="M373.38 313.43C378.65 310.51 383.77 307.31 389.16 304.61C397.6 300.39 407.06 297.11 413.69 290.68C414.03 290.351 414.45 290.116 414.907 289.996C415.365 289.876 415.846 289.875 416.304 289.995C416.762 290.114 417.181 290.35 417.522 290.678C417.863 291.006 418.114 291.417 418.25 291.87C421.101 301.16 424.476 310.282 428.36 319.19C431.71 326.87 435.44 334.41 437.93 342.4C439.65 347.95 440.76 353.7 442.93 359.09C445.76 366.09 450.3 372.28 454.78 378.37C456.309 380.708 458.223 382.77 460.44 384.47C463.7 386.68 468.54 388.09 468.87 392.01C464.66 395.01 458.93 394.01 453.74 394.01C448.467 394.116 443.229 394.889 438.15 396.31C432.162 397.674 426.324 399.627 420.72 402.14C415.313 404.862 410.122 407.991 405.19 411.5L358.8 442.57C355.39 438.67 355.53 432.94 354.8 427.8C354.178 424.072 353.283 420.396 352.12 416.8L347.49 401.23C345.29 393.83 343.09 386.44 340.65 379.12C338.65 373.01 336.35 366.85 332.35 361.8C327.53 355.71 320.61 351.74 314.59 346.8C312.47 345.07 310.36 343.07 309.59 340.44C309.326 339.581 309.252 338.674 309.373 337.783C309.494 336.892 309.807 336.038 310.29 335.28C311.56 333.43 313.39 333.7 315.41 333.38C320.35 332.6 325.247 331.6 330.1 330.38C339.735 327.996 349.151 324.805 358.25 320.84C363.417 318.613 368.46 316.143 373.38 313.43Z" fill="black"/>
<path d="M353.97 354.14C356.179 354.14 357.97 352.349 357.97 350.14C357.97 347.931 356.179 346.14 353.97 346.14C351.761 346.14 349.97 347.931 349.97 350.14C349.97 352.349 351.761 354.14 353.97 354.14Z" fill="#BBBDC8"/>
<path d="M396.62 334.39C398.829 334.39 400.62 332.599 400.62 330.39C400.62 328.181 398.829 326.39 396.62 326.39C394.411 326.39 392.62 328.181 392.62 330.39C392.62 332.599 394.411 334.39 396.62 334.39Z" fill="#BBBDC8"/>
<path d="M374.14 397.7C376.349 397.7 378.14 395.909 378.14 393.7C378.14 391.491 376.349 389.7 374.14 389.7C371.931 389.7 370.14 391.491 370.14 393.7C370.14 395.909 371.931 397.7 374.14 397.7Z" fill="#BBBDC8"/>
<path d="M416.79 377.95C418.999 377.95 420.79 376.159 420.79 373.95C420.79 371.741 418.999 369.95 416.79 369.95C414.581 369.95 412.79 371.741 412.79 373.95C412.79 376.159 414.581 377.95 416.79 377.95Z" fill="#BBBDC8"/>
<path d="M312.29 418.84C316.29 417.69 320.5 416.43 323.44 413.48C325.72 411.18 326.99 408.09 328.59 405.27C331.78 399.64 336.83 394.65 343.18 393.41C349.53 392.17 356.99 395.84 358.35 402.17C359.23 406.29 357.51 410.48 355.8 414.34C353.24 420.12 350.35 426.18 345.07 429.67C340.45 432.72 334.56 433.39 330.02 436.56C326.02 439.36 323.5 443.79 320.02 447.24C315.471 451.72 309.453 454.402 303.08 454.79C302.112 454.904 301.131 454.77 300.23 454.4C299.347 453.877 298.605 453.146 298.07 452.27C295.13 448.27 292.15 444.15 290.59 439.42C285.16 422.93 300.53 422.21 312.29 418.84Z" fill="#FBBEBE"/>
<path d="M418.83 421.04C417.48 412.98 417.3 404.19 412.32 397.71C408.15 392.3 401.22 389.56 394.4 389.1C392.4 388.96 390.05 389.16 388.89 390.8C388.23 391.957 387.966 393.299 388.14 394.62C388.562 404.862 392.383 414.671 399 422.5C401.49 425.42 404.38 428.08 406.12 431.5C407.64 434.45 408.2 437.82 409.61 440.82C411.45 444.73 414.61 447.82 417.03 451.42C420.461 456.577 422.24 462.657 422.13 468.85C424.77 464.54 424.45 459.15 424.7 454.1C425.03 446.99 430.01 443.1 426.78 437.3C423.55 431.5 420 428.09 418.83 421.04Z" fill="#FBBEBE"/>
<path opacity="0.1" d="M455.74 413.01C453.21 419.61 451.91 426.67 448.93 433.08C448.144 435.085 446.797 436.821 445.05 438.08C441.85 440.08 437.62 438.84 434.44 436.85C431.26 434.86 428.44 432.12 424.97 430.8C423.41 445.99 410.79 459.36 395.71 461.8C404.71 470.07 414.19 479.26 416.22 491.3C416.6 493.51 416.73 495.86 417.91 497.77C419.81 500.82 423.82 501.82 427.42 501.77C436.57 501.7 444.96 496.87 452.6 491.77C455.18 490.07 457.79 488.25 459.51 485.69C461.23 483.13 461.97 479.88 462.62 476.78C467.04 455.773 471.457 434.757 475.87 413.73C477.07 408.02 476.87 396.8 468.01 397.93C462 398.81 457.6 408.18 455.74 413.01Z" fill="black"/>
<path d="M457.74 413.01C455.21 419.61 453.91 426.67 450.93 433.08C450.144 435.085 448.797 436.821 447.05 438.08C443.85 440.08 439.62 438.84 436.44 436.85C433.26 434.86 430.44 432.12 426.97 430.8C425.41 445.99 412.79 459.36 397.71 461.8C406.71 470.07 416.19 479.26 418.22 491.3C418.6 493.51 418.73 495.86 419.91 497.77C421.81 500.82 425.82 501.82 429.42 501.77C438.57 501.7 446.96 496.87 454.6 491.77C457.18 490.07 459.79 488.25 461.51 485.69C463.23 483.13 463.97 479.88 464.62 476.78C469.04 455.773 473.457 434.757 477.87 413.73C479.07 408.02 478.87 396.8 470.01 397.93C464 398.81 459.6 408.18 457.74 413.01Z" fill="#F59B66"/>
<path d="M311.86 452.01C311.5 453.84 309.69 454.95 308.05 455.83C304.88 457.54 301.43 459.31 297.86 458.83C294.29 458.35 291.3 455.71 288.96 452.91C287.794 451.578 286.788 450.115 285.96 448.55C282.35 441.42 281.96 411.08 296.88 420.98C303.04 425.08 299.57 432.08 300.34 438.11C300.677 441.686 302.105 445.072 304.43 447.81C304.88 448.33 311.63 453.19 311.86 452.01Z" fill="#F59B66"/>
<path d="M439.5 268C464.077 268 484 258.598 484 247C484 235.402 464.077 226 439.5 226C414.923 226 395 235.402 395 247C395 258.598 414.923 268 439.5 268Z" fill="#2F2E41"/>
<path opacity="0.1" d="M441.5 261C417.42 261 397.83 252 397.04 240.7C395.763 242.555 395.066 244.748 395.04 247C395.04 258.6 414.96 268 439.54 268C464.12 268 484.04 258.6 484.04 247C484.04 246.76 484.04 246.53 484.04 246.3C478.29 254.82 461.43 261 441.5 261Z" fill="black"/>
<path d="M635 410C695.751 410 745 365.228 745 310C745 254.772 695.751 210 635 210C574.249 210 525 254.772 525 310C525 365.228 574.249 410 635 410Z" fill="#2F2E41"/>
<path opacity="0.1" d="M635 384C579.29 384 533.25 346.34 526 297.5C525.338 301.97 525.004 306.482 525 311C525 366.23 574.25 411 635 411C695.75 411 745 366.23 745 311C744.996 306.482 744.662 301.97 744 297.5C736.75 346.34 690.71 384 635 384Z" fill="black"/>
<path d="M633 385C662.271 385 686 352.988 686 313.5C686 274.012 662.271 242 633 242C603.729 242 580 274.012 580 313.5C580 352.988 603.729 385 633 385Z" fill="#2F2E41"/>
<path opacity="0.1" d="M633 385C662.271 385 686 352.988 686 313.5C686 274.012 662.271 242 633 242C603.729 242 580 274.012 580 313.5C580 352.988 603.729 385 633 385Z" fill="black"/>
<path d="M608.63 349.74C606.63 354.68 602.63 359.93 596.63 360.31C604.63 366.88 612.73 373.52 622.29 378.31C631.85 383.1 643.17 385.91 654.05 384.19C661.73 382.98 668.71 379.61 675.23 375.92C686.33 369.64 697.23 361.39 700.04 350.21C691.706 350.629 683.353 350.472 675.04 349.74C670.73 349.37 666.32 348.8 662.58 346.92C660.284 345.708 658.254 344.048 656.611 342.039C654.967 340.029 653.743 337.711 653.01 335.22C651.52 330.5 651.55 325.53 651.82 320.64C651.97 317.79 652.08 314.64 649.89 312.46C647.7 310.28 644.08 309.99 640.79 309.92C634.173 309.786 627.555 310.177 621 311.09C617.561 311.447 614.155 312.065 610.81 312.94C606.47 314.26 606.88 313.75 607.93 317.38C611.19 328.5 613.18 338.5 608.63 349.74Z" fill="#A0616A"/>
<path opacity="0.1" d="M608.63 349.74C606.63 354.68 602.63 359.93 596.63 360.31C604.63 366.88 612.73 373.52 622.29 378.31C631.85 383.1 643.17 385.91 654.05 384.19C661.73 382.98 668.71 379.61 675.23 375.92C686.33 369.64 697.23 361.39 700.04 350.21C691.706 350.629 683.353 350.472 675.04 349.74C670.73 349.37 666.32 348.8 662.58 346.92C660.284 345.708 658.254 344.048 656.611 342.039C654.967 340.029 653.743 337.711 653.01 335.22C651.52 330.5 651.55 325.53 651.82 320.64C651.97 317.79 652.08 314.64 649.89 312.46C647.7 310.28 644.08 309.99 640.79 309.92C634.173 309.786 627.555 310.177 621 311.09C617.561 311.447 614.155 312.065 610.81 312.94C606.47 314.26 606.88 313.75 607.93 317.38C611.19 328.5 613.18 338.5 608.63 349.74Z" fill="black"/>
<path d="M631.5 339.5C657.457 339.5 678.5 318.457 678.5 292.5C678.5 266.543 657.457 245.5 631.5 245.5C605.543 245.5 584.5 266.543 584.5 292.5C584.5 318.457 605.543 339.5 631.5 339.5Z" fill="#A0616A"/>
<path d="M615.3 353.88C612.23 350.2 609.07 346.44 604.98 343.94C598.28 339.83 589.98 339.57 582.13 339.44C573.62 339.29 564.37 339.37 557.64 344.58C554.64 346.93 552.34 350.15 550.15 353.31L521.64 394.31C520.53 395.91 519.36 397.72 519.64 399.65C519.959 401.039 520.65 402.315 521.64 403.34L553 442.5C554.79 444.73 556.64 447.08 557.24 449.88C557.84 452.68 557.1 455.62 556.14 458.34C552.35 469.13 545.14 479.34 545.8 490.71C546.27 498.13 550.15 504.95 554.9 510.71C565.8 523.84 581.49 532.38 597.9 537.04C614.31 541.7 631.54 542.72 648.61 542.83C680.79 543.04 714.61 539.53 741.19 521.38L720.3 501.7C716.17 497.8 711.84 493.6 710.41 488.1C709.41 484.4 709.89 480.5 710.34 476.71C711.18 469.78 712.02 462.8 714.26 456.2C720.49 437.81 736.5 424.72 747.18 408.51C748.52 406.51 749.82 404.21 749.67 401.78C749.55 399.73 748.41 397.9 747.3 396.18C742.42 388.61 737.36 381.08 733.82 372.8C731.18 366.64 729.39 360.09 726.12 354.24C722.85 348.39 717.66 343.13 711.12 341.9C702.7 340.32 694.49 345.59 685.94 345.95C679.68 346.22 673.15 343.87 667.3 346.1C660.36 348.75 657.3 356.57 653.41 362.92C650.54 367.65 641.98 380.59 635.27 377.41C631.62 375.67 628.27 369.41 625.65 366.34L615.3 353.88Z" fill="#F59B66"/>
<path d="M652.74 385.67C651.156 384.777 649.316 384.446 647.52 384.73C646.633 384.9 645.827 385.36 645.228 386.036C644.629 386.713 644.271 387.569 644.21 388.47L641.32 388.3C640.986 388.265 640.649 388.282 640.32 388.35C639.902 388.44 639.538 388.693 639.306 389.052C639.074 389.411 638.995 389.847 639.085 390.265C639.175 390.683 639.428 391.048 639.787 391.279C640.146 391.511 640.582 391.59 641 391.5C639.582 392.063 638.317 392.954 637.31 394.1C636.556 395.235 636.279 396.621 636.541 397.958C636.804 399.295 637.583 400.475 638.71 401.24C639.893 401.92 641.283 402.145 642.62 401.872C643.957 401.6 645.148 400.849 645.97 399.76C645.801 400.358 645.849 400.995 646.105 401.561C646.362 402.127 646.81 402.583 647.37 402.85C652.79 405.78 655.55 401.8 656.29 397.19C657.13 392.13 658.21 388.37 652.74 385.67Z" fill="#FFE9B3"/>
<path opacity="0.15" d="M652.74 385.67C651.156 384.777 649.316 384.446 647.52 384.73C646.633 384.9 645.827 385.36 645.228 386.036C644.629 386.713 644.271 387.569 644.21 388.47L641.32 388.3C640.986 388.265 640.649 388.282 640.32 388.35C639.902 388.44 639.538 388.693 639.306 389.052C639.074 389.411 638.995 389.847 639.085 390.265C639.175 390.683 639.428 391.048 639.787 391.279C640.146 391.511 640.582 391.59 641 391.5C639.582 392.063 638.317 392.954 637.31 394.1C636.556 395.235 636.279 396.621 636.541 397.958C636.804 399.295 637.583 400.475 638.71 401.24C639.893 401.92 641.283 402.145 642.62 401.872C643.957 401.6 645.148 400.849 645.97 399.76C645.801 400.358 645.849 400.995 646.105 401.561C646.362 402.127 646.81 402.583 647.37 402.85C652.79 405.78 655.55 401.8 656.29 397.19C657.13 392.13 658.21 388.37 652.74 385.67Z" fill="black"/>
<path d="M667.5 382.27C665.916 381.376 664.075 381.048 662.28 381.34C661.394 381.507 660.588 381.964 659.991 382.639C659.393 383.315 659.038 384.17 658.98 385.07L656.09 384.9C655.756 384.866 655.419 384.882 655.09 384.95C654.699 385.073 654.368 385.336 654.159 385.688C653.95 386.041 653.879 386.458 653.96 386.86C654.066 387.256 654.317 387.598 654.664 387.819C655.01 388.039 655.426 388.121 655.83 388.05C654.413 388.615 653.149 389.505 652.14 390.65C651.388 391.785 651.113 393.171 651.375 394.507C651.637 395.843 652.415 397.023 653.54 397.79C654.723 398.472 656.114 398.698 657.453 398.428C658.791 398.157 659.985 397.408 660.81 396.32C660.641 396.915 660.688 397.55 660.942 398.114C661.197 398.678 661.642 399.133 662.2 399.4C667.63 402.34 670.38 398.4 671.13 393.75C671.9 388.73 673 384.97 667.5 382.27Z" fill="#FFE9B3"/>
<path d="M679.54 383.99C677.959 383.098 676.122 382.77 674.33 383.06C673.442 383.225 672.634 383.681 672.035 384.357C671.435 385.033 671.078 385.889 671.02 386.79L668.13 386.62C667.796 386.585 667.459 386.601 667.13 386.67C666.739 386.793 666.407 387.056 666.199 387.409C665.99 387.761 665.919 388.178 666 388.58C666.106 388.976 666.357 389.319 666.704 389.539C667.05 389.759 667.466 389.842 667.87 389.77C666.45 390.33 665.185 391.221 664.18 392.37C663.425 393.505 663.149 394.891 663.411 396.228C663.673 397.565 664.453 398.745 665.58 399.51C666.761 400.193 668.151 400.421 669.488 400.15C670.826 399.879 672.018 399.129 672.84 398.04C672.672 398.636 672.72 399.273 672.976 399.836C673.232 400.4 673.68 400.855 674.24 401.12C679.66 404.06 682.41 400.07 683.16 395.47C683.94 390.5 685 386.69 679.54 383.99Z" fill="#FFE9B3"/>
<path opacity="0.15" d="M679.54 383.99C677.959 383.098 676.122 382.77 674.33 383.06C673.442 383.225 672.634 383.681 672.035 384.357C671.435 385.033 671.078 385.889 671.02 386.79L668.13 386.62C667.796 386.585 667.459 386.601 667.13 386.67C666.739 386.793 666.407 387.056 666.199 387.409C665.99 387.761 665.919 388.178 666 388.58C666.106 388.976 666.357 389.319 666.704 389.539C667.05 389.759 667.466 389.842 667.87 389.77C666.45 390.33 665.185 391.221 664.18 392.37C663.425 393.505 663.149 394.891 663.411 396.228C663.673 397.565 664.453 398.745 665.58 399.51C666.761 400.193 668.151 400.421 669.488 400.15C670.826 399.879 672.018 399.129 672.84 398.04C672.672 398.636 672.72 399.273 672.976 399.836C673.232 400.4 673.68 400.855 674.24 401.12C679.66 404.06 682.41 400.07 683.16 395.47C683.94 390.5 685 386.69 679.54 383.99Z" fill="black"/>
<path d="M709 391V498.42C708.997 499.103 708.725 499.758 708.241 500.241C707.758 500.725 707.103 500.997 706.42 501H622.58C621.897 500.997 621.242 500.725 620.759 500.241C620.275 499.758 620.003 499.103 620 498.42V391C619.999 390.571 620.105 390.149 620.309 389.772C620.512 389.395 620.806 389.074 621.164 388.839C621.522 388.604 621.934 388.461 622.361 388.425C622.788 388.388 623.217 388.459 623.61 388.63C625.743 389.55 627.873 390.4 630 391.18C633 392.28 636 393.237 639 394.05C642 394.86 645 395.53 648 396.05C651 396.57 654 396.97 657 397.21C660 397.45 663 397.55 666 397.49C669 397.43 672 397.26 675 396.93C678 396.6 681 396.11 684 395.48C687 394.85 690 394.11 693 393.2C695.33 392.49 697.67 391.7 700 390.82C701.8 390.15 703.59 389.42 705.39 388.64C705.782 388.469 706.211 388.399 706.637 388.435C707.063 388.471 707.474 388.612 707.832 388.846C708.19 389.08 708.484 389.399 708.688 389.775C708.892 390.151 708.999 390.572 709 391V391Z" fill="#BBBDC8"/>
<path d="M639 394.05V501.05H630V391.18C633 392.28 636 393.237 639 394.05Z" fill="white"/>
<path d="M657 397.2V501H648V396C651 396.58 654 396.96 657 397.2Z" fill="white"/>
<path d="M675 396.92V501H666V397.5C669 397.447 672 397.253 675 396.92Z" fill="white"/>
<path d="M693 393.19V501H684V395.5C687 394.873 690 394.103 693 393.19Z" fill="white"/>
<path opacity="0.1" d="M709 391V498.42C708.997 499.103 708.725 499.758 708.241 500.241C707.758 500.725 707.103 500.997 706.42 501H700V390.81C701.8 390.14 703.59 389.41 705.39 388.63C705.783 388.459 706.212 388.388 706.639 388.425C707.066 388.461 707.478 388.604 707.836 388.839C708.194 389.074 708.488 389.395 708.691 389.772C708.895 390.149 709.001 390.571 709 391Z" fill="black"/>
<path d="M643.41 380.55C641.829 379.658 639.992 379.33 638.2 379.62C637.312 379.785 636.504 380.241 635.905 380.917C635.305 381.592 634.948 382.449 634.89 383.35L632 383.18C631.666 383.144 631.329 383.161 631 383.23C630.609 383.353 630.278 383.616 630.069 383.968C629.86 384.321 629.79 384.738 629.87 385.14C629.976 385.536 630.227 385.878 630.574 386.099C630.92 386.319 631.336 386.401 631.74 386.33C630.32 386.89 629.055 387.781 628.05 388.93C627.296 390.064 627.019 391.451 627.281 392.788C627.544 394.125 628.323 395.304 629.45 396.07C630.632 396.751 632.021 396.977 633.358 396.707C634.695 396.436 635.887 395.687 636.71 394.6C636.542 395.196 636.59 395.832 636.846 396.396C637.103 396.96 637.55 397.415 638.11 397.68C643.53 400.61 646.28 396.63 647.03 392.03C647.81 387.01 648.89 383.25 643.41 380.55Z" fill="#FFE9B3"/>
<path d="M658.41 363.55C656.829 362.658 654.992 362.33 653.2 362.62C652.312 362.785 651.504 363.241 650.905 363.917C650.305 364.592 649.948 365.449 649.89 366.35L647 366.18C646.666 366.144 646.329 366.161 646 366.23C645.609 366.353 645.278 366.616 645.069 366.968C644.86 367.321 644.79 367.738 644.87 368.14C644.976 368.536 645.227 368.878 645.574 369.099C645.92 369.319 646.336 369.401 646.74 369.33C645.32 369.89 644.055 370.781 643.05 371.93C642.296 373.064 642.019 374.451 642.281 375.788C642.544 377.125 643.323 378.304 644.45 379.07C645.632 379.751 647.021 379.977 648.358 379.707C649.695 379.436 650.887 378.687 651.71 377.6C651.542 378.196 651.59 378.832 651.846 379.396C652.103 379.96 652.55 380.415 653.11 380.68C658.53 383.61 661.28 379.63 662.03 375.03C662.81 370.01 663.89 366.25 658.41 363.55Z" fill="#FFE9B3"/>
<path d="M668.6 386.64C669.786 385.261 670.467 383.518 670.53 381.7C670.548 380.794 670.262 379.908 669.719 379.183C669.175 378.459 668.405 377.936 667.53 377.7L668.26 374.9C668.366 374.578 668.417 374.239 668.41 373.9C668.394 373.478 668.211 373.08 667.902 372.793C667.592 372.506 667.182 372.354 666.76 372.37C666.338 372.386 665.94 372.569 665.653 372.878C665.366 373.188 665.214 373.598 665.23 374.02C664.957 372.521 664.329 371.108 663.4 369.9C662.431 368.942 661.123 368.406 659.76 368.406C658.397 368.406 657.09 368.942 656.12 369.9C655.217 370.923 654.719 372.241 654.719 373.605C654.719 374.969 655.217 376.287 656.12 377.31C655.566 377.03 654.931 376.954 654.328 377.097C653.724 377.24 653.19 377.592 652.82 378.09C648.89 382.83 652.26 386.31 656.63 387.94C661.41 389.7 664.89 391.5 668.6 386.64Z" fill="#FFE9B3"/>
<path d="M681.6 386.64C682.786 385.261 683.467 383.518 683.53 381.7C683.548 380.794 683.262 379.908 682.719 379.183C682.175 378.459 681.405 377.936 680.53 377.7L681.26 374.9C681.366 374.578 681.417 374.239 681.41 373.9C681.394 373.478 681.211 373.08 680.902 372.793C680.592 372.506 680.182 372.354 679.76 372.37C679.338 372.386 678.94 372.569 678.653 372.878C678.366 373.188 678.214 373.598 678.23 374.02C677.957 372.521 677.329 371.108 676.4 369.9C675.431 368.942 674.123 368.406 672.76 368.406C671.397 368.406 670.09 368.942 669.12 369.9C668.217 370.923 667.719 372.241 667.719 373.605C667.719 374.969 668.217 376.287 669.12 377.31C668.566 377.03 667.931 376.954 667.328 377.097C666.724 377.24 666.19 377.592 665.82 378.09C661.89 382.83 665.26 386.31 669.63 387.94C674.41 389.7 677.89 391.5 681.6 386.64Z" fill="#FFE9B3"/>
<path d="M689.74 395.19C690.656 393.618 691.009 391.78 690.74 389.98C690.583 389.09 690.134 388.278 689.464 387.671C688.794 387.065 687.941 386.698 687.04 386.63L687.25 383.75C687.301 383.419 687.301 383.081 687.25 382.75C687.156 382.339 686.902 381.982 686.545 381.758C686.188 381.534 685.756 381.461 685.345 381.555C684.934 381.649 684.577 381.903 684.353 382.26C684.129 382.617 684.056 383.049 684.15 383.46C683.6 382.036 682.723 380.762 681.59 379.74C680.463 378.974 679.079 378.683 677.739 378.93C676.399 379.177 675.21 379.942 674.43 381.06C673.736 382.235 673.495 383.624 673.753 384.965C674.011 386.305 674.749 387.506 675.83 388.34C675.235 388.166 674.597 388.208 674.03 388.459C673.463 388.71 673.002 389.153 672.73 389.71C669.73 395.1 673.73 397.9 678.29 398.71C683.24 399.5 687 400.63 689.74 395.19Z" fill="#FFE9B3"/>
<path d="M649.74 379.19C650.656 377.618 651.009 375.78 650.74 373.98C650.583 373.09 650.134 372.278 649.464 371.671C648.794 371.065 647.941 370.698 647.04 370.63L647.25 367.75C647.301 367.419 647.301 367.081 647.25 366.75C647.156 366.339 646.902 365.982 646.545 365.758C646.188 365.534 645.756 365.461 645.345 365.555C644.934 365.649 644.577 365.903 644.353 366.26C644.129 366.617 644.056 367.049 644.15 367.46C643.6 366.036 642.723 364.762 641.59 363.74C640.463 362.974 639.079 362.683 637.739 362.93C636.399 363.177 635.21 363.942 634.43 365.06C633.736 366.235 633.495 367.624 633.753 368.965C634.011 370.305 634.749 371.506 635.83 372.34C635.235 372.166 634.597 372.208 634.03 372.459C633.463 372.71 633.002 373.153 632.73 373.71C629.73 379.1 633.73 381.9 638.29 382.71C643.24 383.5 647 384.63 649.74 379.19Z" fill="#FFE9B3"/>
<path d="M653.74 373.67C652.156 372.777 650.316 372.446 648.52 372.73C647.633 372.9 646.827 373.36 646.228 374.036C645.629 374.713 645.271 375.569 645.21 376.47L642.32 376.3C641.986 376.265 641.649 376.282 641.32 376.35C640.902 376.44 640.538 376.693 640.306 377.052C640.074 377.411 639.995 377.847 640.085 378.265C640.175 378.683 640.428 379.048 640.787 379.279C641.146 379.511 641.582 379.59 642 379.5C640.582 380.063 639.317 380.954 638.31 382.1C637.556 383.235 637.279 384.621 637.541 385.958C637.804 387.295 638.583 388.475 639.71 389.24C640.893 389.92 642.283 390.145 643.62 389.872C644.957 389.6 646.148 388.849 646.97 387.76C646.801 388.358 646.849 388.995 647.105 389.561C647.362 390.127 647.81 390.583 648.37 390.85C653.79 393.78 656.55 389.8 657.29 385.19C658.13 380.13 659.21 376.37 653.74 373.67Z" fill="#FFE9B3"/>
<path opacity="0.15" d="M653.74 373.67C652.156 372.777 650.316 372.446 648.52 372.73C647.633 372.9 646.827 373.36 646.228 374.036C645.629 374.713 645.271 375.569 645.21 376.47L642.32 376.3C641.986 376.265 641.649 376.282 641.32 376.35C640.902 376.44 640.538 376.693 640.306 377.052C640.074 377.411 639.995 377.847 640.085 378.265C640.175 378.683 640.428 379.048 640.787 379.279C641.146 379.511 641.582 379.59 642 379.5C640.582 380.063 639.317 380.954 638.31 382.1C637.556 383.235 637.279 384.621 637.541 385.958C637.804 387.295 638.583 388.475 639.71 389.24C640.893 389.92 642.283 390.145 643.62 389.872C644.957 389.6 646.148 388.849 646.97 387.76C646.801 388.358 646.849 388.995 647.105 389.561C647.362 390.127 647.81 390.583 648.37 390.85C653.79 393.78 656.55 389.8 657.29 385.19C658.13 380.13 659.21 376.37 653.74 373.67Z" fill="black"/>
<path d="M696.75 377.11C695.166 376.216 693.325 375.888 691.53 376.18C690.643 376.347 689.836 376.803 689.237 377.479C688.638 378.154 688.28 379.009 688.22 379.91L685.34 379.74C685.006 379.705 684.669 379.722 684.34 379.79C683.949 379.913 683.618 380.176 683.409 380.528C683.2 380.881 683.129 381.298 683.21 381.7C683.316 382.096 683.567 382.438 683.914 382.659C684.26 382.879 684.676 382.962 685.08 382.89C683.663 383.455 682.399 384.345 681.39 385.49C680.638 386.625 680.363 388.011 680.625 389.347C680.887 390.683 681.665 391.863 682.79 392.63C683.972 393.311 685.361 393.537 686.698 393.267C688.034 392.996 689.226 392.247 690.05 391.16C689.882 391.756 689.93 392.392 690.186 392.956C690.443 393.52 690.89 393.975 691.45 394.24C696.87 397.17 699.63 393.19 700.37 388.58C701.14 383.57 702.22 379.81 696.75 377.11Z" fill="#FFE9B3"/>
<path opacity="0.15" d="M696.75 377.11C695.166 376.216 693.325 375.888 691.53 376.18C690.643 376.347 689.836 376.803 689.237 377.479C688.638 378.154 688.28 379.009 688.22 379.91L685.34 379.74C685.006 379.705 684.669 379.722 684.34 379.79C683.949 379.913 683.618 380.176 683.409 380.528C683.2 380.881 683.129 381.298 683.21 381.7C683.316 382.096 683.567 382.438 683.914 382.659C684.26 382.879 684.676 382.962 685.08 382.89C683.663 383.455 682.399 384.345 681.39 385.49C680.638 386.625 680.363 388.011 680.625 389.347C680.887 390.683 681.665 391.863 682.79 392.63C683.972 393.311 685.361 393.537 686.698 393.267C688.034 392.996 689.226 392.247 690.05 391.16C689.882 391.756 689.93 392.392 690.186 392.956C690.443 393.52 690.89 393.975 691.45 394.24C696.87 397.17 699.63 393.19 700.37 388.58C701.14 383.57 702.22 379.81 696.75 377.11Z" fill="black"/>
<path d="M670.75 360.11C669.166 359.216 667.325 358.888 665.53 359.18C664.643 359.347 663.836 359.803 663.237 360.479C662.638 361.154 662.28 362.009 662.22 362.91L659.34 362.74C659.006 362.705 658.669 362.722 658.34 362.79C657.949 362.913 657.618 363.176 657.409 363.528C657.2 363.881 657.129 364.298 657.21 364.7C657.316 365.096 657.567 365.438 657.914 365.659C658.26 365.879 658.676 365.962 659.08 365.89C657.663 366.455 656.399 367.345 655.39 368.49C654.638 369.625 654.363 371.011 654.625 372.347C654.887 373.683 655.665 374.863 656.79 375.63C657.972 376.311 659.361 376.537 660.698 376.267C662.034 375.996 663.226 375.247 664.05 374.16C663.882 374.756 663.93 375.392 664.186 375.956C664.443 376.52 664.89 376.975 665.45 377.24C670.87 380.17 673.63 376.19 674.37 371.58C675.14 366.57 676.22 362.81 670.75 360.11Z" fill="#FFE9B3"/>
<path opacity="0.15" d="M670.75 360.11C669.166 359.216 667.325 358.888 665.53 359.18C664.643 359.347 663.836 359.803 663.237 360.479C662.638 361.154 662.28 362.009 662.22 362.91L659.34 362.74C659.006 362.705 658.669 362.722 658.34 362.79C657.949 362.913 657.618 363.176 657.409 363.528C657.2 363.881 657.129 364.298 657.21 364.7C657.316 365.096 657.567 365.438 657.914 365.659C658.26 365.879 658.676 365.962 659.08 365.89C657.663 366.455 656.399 367.345 655.39 368.49C654.638 369.625 654.363 371.011 654.625 372.347C654.887 373.683 655.665 374.863 656.79 375.63C657.972 376.311 659.361 376.537 660.698 376.267C662.034 375.996 663.226 375.247 664.05 374.16C663.882 374.756 663.93 375.392 664.186 375.956C664.443 376.52 664.89 376.975 665.45 377.24C670.87 380.17 673.63 376.19 674.37 371.58C675.14 366.57 676.22 362.81 670.75 360.11Z" fill="black"/>
<path d="M650.75 354.11C649.166 353.216 647.325 352.888 645.53 353.18C644.643 353.347 643.836 353.803 643.237 354.479C642.638 355.154 642.28 356.009 642.22 356.91L639.34 356.74C639.006 356.705 638.669 356.722 638.34 356.79C637.949 356.913 637.618 357.176 637.409 357.528C637.2 357.881 637.129 358.298 637.21 358.7C637.316 359.096 637.567 359.438 637.914 359.659C638.26 359.879 638.676 359.962 639.08 359.89C637.663 360.455 636.399 361.345 635.39 362.49C634.638 363.625 634.363 365.011 634.625 366.347C634.887 367.683 635.665 368.863 636.79 369.63C637.972 370.311 639.361 370.537 640.698 370.267C642.034 369.996 643.226 369.247 644.05 368.16C643.882 368.756 643.93 369.392 644.186 369.956C644.443 370.52 644.89 370.975 645.45 371.24C650.87 374.17 653.63 370.19 654.37 365.58C655.14 360.57 656.22 356.81 650.75 354.11Z" fill="#FFE9B3"/>
<path opacity="0.15" d="M650.75 354.11C649.166 353.216 647.325 352.888 645.53 353.18C644.643 353.347 643.836 353.803 643.237 354.479C642.638 355.154 642.28 356.009 642.22 356.91L639.34 356.74C639.006 356.705 638.669 356.722 638.34 356.79C637.949 356.913 637.618 357.176 637.409 357.528C637.2 357.881 637.129 358.298 637.21 358.7C637.316 359.096 637.567 359.438 637.914 359.659C638.26 359.879 638.676 359.962 639.08 359.89C637.663 360.455 636.399 361.345 635.39 362.49C634.638 363.625 634.363 365.011 634.625 366.347C634.887 367.683 635.665 368.863 636.79 369.63C637.972 370.311 639.361 370.537 640.698 370.267C642.034 369.996 643.226 369.247 644.05 368.16C643.882 368.756 643.93 369.392 644.186 369.956C644.443 370.52 644.89 370.975 645.45 371.24C650.87 374.17 653.63 370.19 654.37 365.58C655.14 360.57 656.22 356.81 650.75 354.11Z" fill="black"/>
<path d="M672.75 350.11C671.166 349.216 669.325 348.888 667.53 349.18C666.643 349.347 665.836 349.803 665.237 350.479C664.638 351.154 664.28 352.009 664.22 352.91L661.34 352.74C661.006 352.705 660.669 352.722 660.34 352.79C659.949 352.913 659.618 353.176 659.409 353.528C659.2 353.881 659.129 354.298 659.21 354.7C659.316 355.096 659.567 355.438 659.914 355.659C660.26 355.879 660.676 355.962 661.08 355.89C659.663 356.455 658.399 357.345 657.39 358.49C656.638 359.625 656.363 361.011 656.625 362.347C656.887 363.683 657.665 364.863 658.79 365.63C659.972 366.311 661.361 366.537 662.698 366.267C664.034 365.996 665.226 365.247 666.05 364.16C665.882 364.756 665.93 365.392 666.186 365.956C666.443 366.52 666.89 366.975 667.45 367.24C672.87 370.17 675.63 366.19 676.37 361.58C677.14 356.57 678.22 352.81 672.75 350.11Z" fill="#FFE9B3"/>
<path opacity="0.15" d="M672.75 350.11C671.166 349.216 669.325 348.888 667.53 349.18C666.643 349.347 665.836 349.803 665.237 350.479C664.638 351.154 664.28 352.009 664.22 352.91L661.34 352.74C661.006 352.705 660.669 352.722 660.34 352.79C659.949 352.913 659.618 353.176 659.409 353.528C659.2 353.881 659.129 354.298 659.21 354.7C659.316 355.096 659.567 355.438 659.914 355.659C660.26 355.879 660.676 355.962 661.08 355.89C659.663 356.455 658.399 357.345 657.39 358.49C656.638 359.625 656.363 361.011 656.625 362.347C656.887 363.683 657.665 364.863 658.79 365.63C659.972 366.311 661.361 366.537 662.698 366.267C664.034 365.996 665.226 365.247 666.05 364.16C665.882 364.756 665.93 365.392 666.186 365.956C666.443 366.52 666.89 366.975 667.45 367.24C672.87 370.17 675.63 366.19 676.37 361.58C677.14 356.57 678.22 352.81 672.75 350.11Z" fill="black"/>
<path d="M680.75 356.11C679.166 355.216 677.325 354.888 675.53 355.18C674.643 355.347 673.836 355.803 673.237 356.479C672.638 357.154 672.28 358.009 672.22 358.91L669.34 358.74C669.006 358.705 668.669 358.722 668.34 358.79C667.949 358.913 667.618 359.176 667.409 359.528C667.2 359.881 667.129 360.298 667.21 360.7C667.316 361.096 667.567 361.438 667.914 361.659C668.26 361.879 668.676 361.962 669.08 361.89C667.663 362.455 666.399 363.345 665.39 364.49C664.638 365.625 664.363 367.011 664.625 368.347C664.887 369.683 665.665 370.863 666.79 371.63C667.972 372.311 669.361 372.537 670.698 372.267C672.034 371.996 673.226 371.247 674.05 370.16C673.882 370.756 673.93 371.392 674.186 371.956C674.443 372.52 674.89 372.975 675.45 373.24C680.87 376.17 683.63 372.19 684.37 367.58C685.14 362.57 686.22 358.81 680.75 356.11Z" fill="#FFE9B3"/>
<path opacity="0.15" d="M680.75 356.11C679.166 355.216 677.325 354.888 675.53 355.18C674.643 355.347 673.836 355.803 673.237 356.479C672.638 357.154 672.28 358.009 672.22 358.91L669.34 358.74C669.006 358.705 668.669 358.722 668.34 358.79C667.949 358.913 667.618 359.176 667.409 359.528C667.2 359.881 667.129 360.298 667.21 360.7C667.316 361.096 667.567 361.438 667.914 361.659C668.26 361.879 668.676 361.962 669.08 361.89C667.663 362.455 666.399 363.345 665.39 364.49C664.638 365.625 664.363 367.011 664.625 368.347C664.887 369.683 665.665 370.863 666.79 371.63C667.972 372.311 669.361 372.537 670.698 372.267C672.034 371.996 673.226 371.247 674.05 370.16C673.882 370.756 673.93 371.392 674.186 371.956C674.443 372.52 674.89 372.975 675.45 373.24C680.87 376.17 683.63 372.19 684.37 367.58C685.14 362.57 686.22 358.81 680.75 356.11Z" fill="black"/>
<path d="M631.75 377.11C630.166 376.216 628.325 375.888 626.53 376.18C625.643 376.347 624.836 376.803 624.237 377.479C623.638 378.154 623.28 379.009 623.22 379.91L620.34 379.74C620.006 379.705 619.669 379.722 619.34 379.79C618.949 379.913 618.618 380.176 618.409 380.528C618.2 380.881 618.129 381.298 618.21 381.7C618.316 382.096 618.567 382.438 618.914 382.659C619.26 382.879 619.676 382.962 620.08 382.89C618.663 383.455 617.399 384.345 616.39 385.49C615.638 386.625 615.363 388.011 615.625 389.347C615.887 390.683 616.665 391.863 617.79 392.63C618.972 393.311 620.361 393.537 621.698 393.267C623.034 392.996 624.226 392.247 625.05 391.16C624.882 391.756 624.93 392.392 625.186 392.956C625.443 393.52 625.89 393.975 626.45 394.24C631.87 397.17 634.63 393.19 635.37 388.58C636.14 383.57 637.22 379.81 631.75 377.11Z" fill="#FFE9B3"/>
<path opacity="0.15" d="M631.75 377.11C630.166 376.216 628.325 375.888 626.53 376.18C625.643 376.347 624.836 376.803 624.237 377.479C623.638 378.154 623.28 379.009 623.22 379.91L620.34 379.74C620.006 379.705 619.669 379.722 619.34 379.79C618.949 379.913 618.618 380.176 618.409 380.528C618.2 380.881 618.129 381.298 618.21 381.7C618.316 382.096 618.567 382.438 618.914 382.659C619.26 382.879 619.676 382.962 620.08 382.89C618.663 383.455 617.399 384.345 616.39 385.49C615.638 386.625 615.363 388.011 615.625 389.347C615.887 390.683 616.665 391.863 617.79 392.63C618.972 393.311 620.361 393.537 621.698 393.267C623.034 392.996 624.226 392.247 625.05 391.16C624.882 391.756 624.93 392.392 625.186 392.956C625.443 393.52 625.89 393.975 626.45 394.24C631.87 397.17 634.63 393.19 635.37 388.58C636.14 383.57 637.22 379.81 631.75 377.11Z" fill="black"/>
<path d="M689.75 363.11C688.166 362.216 686.325 361.888 684.53 362.18C683.643 362.347 682.836 362.803 682.237 363.479C681.638 364.154 681.28 365.009 681.22 365.91L678.34 365.74C678.006 365.705 677.669 365.722 677.34 365.79C676.949 365.913 676.618 366.176 676.409 366.528C676.2 366.881 676.129 367.298 676.21 367.7C676.316 368.096 676.567 368.438 676.914 368.659C677.26 368.879 677.676 368.962 678.08 368.89C676.663 369.455 675.399 370.345 674.39 371.49C673.638 372.625 673.363 374.011 673.625 375.347C673.887 376.683 674.665 377.863 675.79 378.63C676.972 379.311 678.361 379.537 679.698 379.267C681.034 378.996 682.226 378.247 683.05 377.16C682.882 377.756 682.93 378.392 683.186 378.956C683.443 379.52 683.89 379.975 684.45 380.24C689.87 383.17 692.63 379.19 693.37 374.58C694.14 369.57 695.22 365.81 689.75 363.11Z" fill="#FFE9B3"/>
<path opacity="0.15" d="M689.75 363.11C688.166 362.216 686.325 361.888 684.53 362.18C683.643 362.347 682.836 362.803 682.237 363.479C681.638 364.154 681.28 365.009 681.22 365.91L678.34 365.74C678.006 365.705 677.669 365.722 677.34 365.79C676.949 365.913 676.618 366.176 676.409 366.528C676.2 366.881 676.129 367.298 676.21 367.7C676.316 368.096 676.567 368.438 676.914 368.659C677.26 368.879 677.676 368.962 678.08 368.89C676.663 369.455 675.399 370.345 674.39 371.49C673.638 372.625 673.363 374.011 673.625 375.347C673.887 376.683 674.665 377.863 675.79 378.63C676.972 379.311 678.361 379.537 679.698 379.267C681.034 378.996 682.226 378.247 683.05 377.16C682.882 377.756 682.93 378.392 683.186 378.956C683.443 379.52 683.89 379.975 684.45 380.24C689.87 383.17 692.63 379.19 693.37 374.58C694.14 369.57 695.22 365.81 689.75 363.11Z" fill="black"/>
<path d="M708.75 373.11C707.166 372.216 705.325 371.888 703.53 372.18C702.643 372.347 701.836 372.803 701.237 373.479C700.638 374.154 700.28 375.009 700.22 375.91L697.34 375.74C697.006 375.705 696.669 375.722 696.34 375.79C695.949 375.913 695.618 376.176 695.409 376.528C695.2 376.881 695.129 377.298 695.21 377.7C695.316 378.096 695.567 378.438 695.914 378.659C696.26 378.879 696.676 378.962 697.08 378.89C695.663 379.455 694.399 380.345 693.39 381.49C692.638 382.625 692.363 384.011 692.625 385.347C692.887 386.683 693.665 387.863 694.79 388.63C695.972 389.311 697.361 389.537 698.698 389.267C700.034 388.996 701.226 388.247 702.05 387.16C701.882 387.756 701.93 388.392 702.186 388.956C702.443 389.52 702.89 389.975 703.45 390.24C708.87 393.17 711.63 389.19 712.37 384.58C713.14 379.57 714.22 375.81 708.75 373.11Z" fill="#FFE9B3"/>
<path opacity="0.15" d="M708.75 373.11C707.166 372.216 705.325 371.888 703.53 372.18C702.643 372.347 701.836 372.803 701.237 373.479C700.638 374.154 700.28 375.009 700.22 375.91L697.34 375.74C697.006 375.705 696.669 375.722 696.34 375.79C695.949 375.913 695.618 376.176 695.409 376.528C695.2 376.881 695.129 377.298 695.21 377.7C695.316 378.096 695.567 378.438 695.914 378.659C696.26 378.879 696.676 378.962 697.08 378.89C695.663 379.455 694.399 380.345 693.39 381.49C692.638 382.625 692.363 384.011 692.625 385.347C692.887 386.683 693.665 387.863 694.79 388.63C695.972 389.311 697.361 389.537 698.698 389.267C700.034 388.996 701.226 388.247 702.05 387.16C701.882 387.756 701.93 388.392 702.186 388.956C702.443 389.52 702.89 389.975 703.45 390.24C708.87 393.17 711.63 389.19 712.37 384.58C713.14 379.57 714.22 375.81 708.75 373.11Z" fill="black"/>
<path d="M692.75 351.11C691.166 350.216 689.325 349.888 687.53 350.18C686.643 350.347 685.836 350.803 685.237 351.479C684.638 352.154 684.28 353.009 684.22 353.91L681.34 353.74C681.006 353.705 680.669 353.722 680.34 353.79C679.949 353.913 679.618 354.176 679.409 354.528C679.2 354.881 679.129 355.298 679.21 355.7C679.316 356.096 679.567 356.438 679.914 356.659C680.26 356.879 680.676 356.962 681.08 356.89C679.663 357.455 678.399 358.345 677.39 359.49C676.638 360.625 676.363 362.011 676.625 363.347C676.887 364.683 677.665 365.863 678.79 366.63C679.972 367.311 681.361 367.537 682.698 367.267C684.034 366.996 685.226 366.247 686.05 365.16C685.882 365.756 685.93 366.392 686.186 366.956C686.443 367.52 686.89 367.975 687.45 368.24C692.87 371.17 695.63 367.19 696.37 362.58C697.14 357.57 698.22 353.81 692.75 351.11Z" fill="#FFE9B3"/>
<path opacity="0.15" d="M692.75 351.11C691.166 350.216 689.325 349.888 687.53 350.18C686.643 350.347 685.836 350.803 685.237 351.479C684.638 352.154 684.28 353.009 684.22 353.91L681.34 353.74C681.006 353.705 680.669 353.722 680.34 353.79C679.949 353.913 679.618 354.176 679.409 354.528C679.2 354.881 679.129 355.298 679.21 355.7C679.316 356.096 679.567 356.438 679.914 356.659C680.26 356.879 680.676 356.962 681.08 356.89C679.663 357.455 678.399 358.345 677.39 359.49C676.638 360.625 676.363 362.011 676.625 363.347C676.887 364.683 677.665 365.863 678.79 366.63C679.972 367.311 681.361 367.537 682.698 367.267C684.034 366.996 685.226 366.247 686.05 365.16C685.882 365.756 685.93 366.392 686.186 366.956C686.443 367.52 686.89 367.975 687.45 368.24C692.87 371.17 695.63 367.19 696.37 362.58C697.14 357.57 698.22 353.81 692.75 351.11Z" fill="black"/>
<path d="M706.74 375.19C707.656 373.618 708.009 371.78 707.74 369.98C707.583 369.09 707.134 368.278 706.464 367.671C705.794 367.065 704.941 366.698 704.04 366.63L704.25 363.75C704.301 363.419 704.301 363.081 704.25 362.75C704.203 362.546 704.117 362.354 703.996 362.184C703.875 362.014 703.722 361.869 703.545 361.758C703.368 361.647 703.171 361.572 702.965 361.537C702.759 361.502 702.549 361.508 702.345 361.555C702.141 361.602 701.949 361.688 701.779 361.809C701.609 361.93 701.464 362.083 701.353 362.26C701.242 362.437 701.167 362.634 701.132 362.84C701.097 363.046 701.103 363.256 701.15 363.46C700.6 362.036 699.723 360.762 698.59 359.74C697.463 358.974 696.079 358.683 694.739 358.93C693.399 359.177 692.21 359.942 691.43 361.06C690.736 362.235 690.495 363.624 690.753 364.965C691.011 366.305 691.749 367.506 692.83 368.34C692.235 368.166 691.597 368.208 691.03 368.459C690.463 368.71 690.002 369.153 689.73 369.71C686.73 375.1 690.73 377.9 695.29 378.71C700.24 379.5 704 380.63 706.74 375.19Z" fill="#FFE9B3"/>
<path d="M706.74 359.19C707.656 357.618 708.009 355.78 707.74 353.98C707.583 353.09 707.134 352.278 706.464 351.671C705.794 351.065 704.941 350.698 704.04 350.63L704.25 347.75C704.301 347.419 704.301 347.081 704.25 346.75C704.156 346.339 703.902 345.982 703.545 345.758C703.188 345.534 702.756 345.461 702.345 345.555C701.934 345.649 701.577 345.903 701.353 346.26C701.129 346.617 701.056 347.049 701.15 347.46C700.6 346.036 699.723 344.762 698.59 343.74C697.463 342.974 696.079 342.683 694.739 342.93C693.399 343.177 692.21 343.942 691.43 345.06C690.736 346.235 690.495 347.624 690.753 348.965C691.011 350.305 691.749 351.506 692.83 352.34C692.235 352.166 691.597 352.208 691.03 352.459C690.463 352.71 690.002 353.153 689.73 353.71C686.73 359.1 690.73 361.9 695.29 362.71C700.24 363.5 704 364.63 706.74 359.19Z" fill="#FFE9B3"/>
<path d="M689.74 380.19C690.656 378.618 691.009 376.78 690.74 374.98C690.583 374.09 690.134 373.278 689.464 372.671C688.794 372.065 687.941 371.698 687.04 371.63L687.25 368.75C687.301 368.419 687.301 368.081 687.25 367.75C687.156 367.339 686.902 366.982 686.545 366.758C686.188 366.534 685.756 366.461 685.345 366.555C684.934 366.649 684.577 366.903 684.353 367.26C684.129 367.617 684.056 368.049 684.15 368.46C683.6 367.036 682.723 365.762 681.59 364.74C680.463 363.974 679.079 363.683 677.739 363.93C676.399 364.177 675.21 364.942 674.43 366.06C673.736 367.235 673.495 368.624 673.753 369.965C674.011 371.305 674.749 372.506 675.83 373.34C675.235 373.166 674.597 373.208 674.03 373.459C673.463 373.71 673.002 374.153 672.73 374.71C669.73 380.1 673.73 382.9 678.29 383.71C683.24 384.5 687 385.63 689.74 380.19Z" fill="#FFE9B3"/>
<path d="M708.74 398.19C709.656 396.618 710.009 394.78 709.74 392.98C709.583 392.09 709.134 391.278 708.464 390.671C707.794 390.065 706.941 389.698 706.04 389.63L706.25 386.75C706.301 386.419 706.301 386.081 706.25 385.75C706.156 385.339 705.902 384.982 705.545 384.758C705.188 384.534 704.756 384.461 704.345 384.555C703.934 384.649 703.577 384.903 703.353 385.26C703.129 385.617 703.056 386.049 703.15 386.46C702.6 385.036 701.723 383.762 700.59 382.74C699.463 381.974 698.079 381.683 696.739 381.93C695.399 382.177 694.21 382.942 693.43 384.06C692.736 385.235 692.495 386.624 692.753 387.965C693.011 389.305 693.749 390.506 694.83 391.34C694.235 391.166 693.597 391.208 693.03 391.459C692.463 391.71 692.002 392.153 691.73 392.71C688.73 398.1 692.73 400.9 697.29 401.71C702.24 402.5 706 403.63 708.74 398.19Z" fill="#FFE9B3"/>
<path d="M672.74 405.19C673.656 403.618 674.009 401.78 673.74 399.98C673.583 399.09 673.134 398.278 672.464 397.671C671.794 397.065 670.941 396.698 670.04 396.63L670.25 393.75C670.301 393.419 670.301 393.081 670.25 392.75C670.156 392.339 669.902 391.982 669.545 391.758C669.188 391.534 668.756 391.461 668.345 391.555C667.934 391.649 667.577 391.903 667.353 392.26C667.129 392.617 667.056 393.049 667.15 393.46C666.6 392.036 665.723 390.762 664.59 389.74C663.463 388.974 662.079 388.683 660.739 388.93C659.399 389.177 658.21 389.942 657.43 391.06C656.736 392.235 656.495 393.624 656.753 394.965C657.011 396.305 657.749 397.506 658.83 398.34C658.235 398.166 657.597 398.208 657.03 398.459C656.463 398.71 656.002 399.153 655.73 399.71C652.73 405.1 656.73 407.9 661.29 408.71C666.24 409.5 670 410.63 672.74 405.19Z" fill="#FFE9B3"/>
<path d="M664.74 364.19C665.656 362.618 666.009 360.78 665.74 358.98C665.583 358.09 665.134 357.278 664.464 356.671C663.794 356.065 662.941 355.698 662.04 355.63L662.25 352.75C662.301 352.419 662.301 352.081 662.25 351.75C662.156 351.339 661.902 350.982 661.545 350.758C661.188 350.534 660.756 350.461 660.345 350.555C659.934 350.649 659.577 350.903 659.353 351.26C659.129 351.617 659.056 352.049 659.15 352.46C658.6 351.036 657.723 349.762 656.59 348.74C655.463 347.974 654.079 347.683 652.739 347.93C651.399 348.177 650.21 348.942 649.43 350.06C648.736 351.235 648.495 352.624 648.753 353.965C649.011 355.305 649.749 356.506 650.83 357.34C650.235 357.166 649.597 357.208 649.03 357.459C648.463 357.71 648.002 358.153 647.73 358.71C644.73 364.1 648.73 366.9 653.29 367.71C658.24 368.5 662 369.63 664.74 364.19Z" fill="#FFE9B3"/>
<path d="M685.74 359.19C686.656 357.618 687.009 355.78 686.74 353.98C686.583 353.09 686.134 352.278 685.464 351.671C684.794 351.065 683.941 350.698 683.04 350.63L683.25 347.75C683.301 347.419 683.301 347.081 683.25 346.75C683.156 346.339 682.902 345.982 682.545 345.758C682.188 345.534 681.756 345.461 681.345 345.555C680.934 345.649 680.577 345.903 680.353 346.26C680.129 346.617 680.056 347.049 680.15 347.46C679.6 346.036 678.723 344.762 677.59 343.74C676.463 342.974 675.079 342.683 673.739 342.93C672.399 343.177 671.21 343.942 670.43 345.06C669.736 346.235 669.495 347.624 669.753 348.965C670.011 350.305 670.749 351.506 671.83 352.34C671.235 352.166 670.597 352.208 670.03 352.459C669.463 352.71 669.002 353.153 668.73 353.71C665.73 359.1 669.73 361.9 674.29 362.71C679.24 363.5 683 364.63 685.74 359.19Z" fill="#FFE9B3"/>
<path d="M643.74 378.19C644.656 376.618 645.009 374.78 644.74 372.98C644.583 372.09 644.134 371.278 643.464 370.671C642.794 370.065 641.941 369.698 641.04 369.63L641.25 366.75C641.301 366.419 641.301 366.081 641.25 365.75C641.156 365.339 640.902 364.982 640.545 364.758C640.188 364.534 639.756 364.461 639.345 364.555C638.934 364.649 638.577 364.903 638.353 365.26C638.129 365.617 638.056 366.049 638.15 366.46C637.6 365.036 636.723 363.762 635.59 362.74C634.463 361.974 633.079 361.683 631.739 361.93C630.399 362.177 629.21 362.942 628.43 364.06C627.736 365.235 627.495 366.624 627.753 367.965C628.011 369.305 628.749 370.506 629.83 371.34C629.235 371.166 628.597 371.208 628.03 371.459C627.463 371.71 627.002 372.153 626.73 372.71C623.73 378.1 627.73 380.9 632.29 381.71C637.24 382.5 641 383.63 643.74 378.19Z" fill="#FFE9B3"/>
<path d="M627.81 424.06C633.01 423.64 638.14 422.31 643.36 422.38C650.19 422.47 656.76 424.94 662.98 427.76C664.807 428.465 666.483 429.51 667.92 430.84C668.945 432.022 669.692 433.419 670.104 434.929C670.516 436.438 670.583 438.021 670.3 439.56C669.715 442.637 668.496 445.559 666.72 448.14C664.9 451.03 662.65 453.88 659.48 455.14C657.707 455.752 655.846 456.073 653.97 456.09C646.14 456.52 638.16 456.09 630.73 453.58C626.92 452.28 623.31 450.46 619.58 448.92C607.69 444 594.83 442.06 582.2 439.58C581.558 439.504 580.946 439.266 580.42 438.89C577.79 436.62 583.5 428.44 584.84 426.15C587.1 422.26 589.15 421.84 593.73 421.73C605.17 421.44 616.34 424.77 627.81 424.06Z" fill="#A0616A"/>
<path d="M716.78 451.73C713.16 449.95 709.91 447.49 706.32 445.64C701.799 443.315 696.829 441.995 691.75 441.77C688.46 441.62 684.88 442.06 682.49 444.33C679.08 447.57 679.49 453.08 680.61 457.65C682.31 464.5 685.73 471.75 692.3 474.34C694.881 475.204 697.579 475.666 700.3 475.71C712.47 476.55 725.14 477.31 736.42 472.71C737.247 472.453 737.955 471.911 738.42 471.18C738.91 470.18 738.42 468.98 737.92 467.97C736.12 464.35 733.27 456.76 729.79 454.5C726.55 452.33 720.82 453.71 716.78 451.73Z" fill="#A0616A"/>
<path opacity="0.1" d="M745.38 397.27C752.046 407.845 757.526 419.124 761.72 430.9C762.893 433.796 763.569 436.869 763.72 439.99C763.72 443.46 762.51 446.82 761.24 450.1C757.194 460.595 752.498 470.828 747.18 480.74C745.58 483.74 743.75 486.87 740.58 488.52C737.25 490.26 733.15 489.99 729.34 489.52C719.793 488.475 710.325 486.798 701 484.5C706.87 484.69 712.17 480.29 714.88 475.5C717.59 470.71 718.19 465.23 718.64 459.88C719.052 456.999 718.93 454.067 718.28 451.23C717.9 449.766 717.173 448.415 716.16 447.292C715.147 446.169 713.877 445.308 712.46 444.78C712.19 442.17 714.68 439.98 717.25 438.78C719.82 437.58 722.74 436.91 724.83 435.11C727.91 432.47 728.35 428.06 727.34 424.32C726.33 420.58 724.13 417.2 722.57 413.61C720.38 408.61 731.68 403.35 732.13 397.95C732.23 396.73 731.37 398.95 732.13 397.95C732.89 396.95 737.61 400.42 738.68 399.95C745.71 396.91 741.49 391.09 745.38 397.27Z" fill="black"/>
<path d="M747.56 397.27C754.225 407.847 759.708 419.125 763.91 430.9C765.088 433.794 765.764 436.868 765.91 439.99C765.91 443.46 764.7 446.82 763.44 450.1C759.389 460.593 754.694 470.826 749.38 480.74C747.78 483.74 745.95 486.87 742.78 488.52C739.45 490.26 735.34 489.99 731.54 489.52C721.989 488.477 712.518 486.8 703.19 484.5C709.05 484.69 714.36 480.29 717.06 475.5C719.76 470.71 720.38 465.23 720.83 459.88C721.237 456.999 721.115 454.067 720.47 451.23C720.087 449.767 719.359 448.418 718.346 447.296C717.333 446.173 716.066 445.31 714.65 444.78C714.37 442.17 716.87 439.98 719.44 438.78C722.01 437.58 724.93 436.91 727.02 435.11C730.09 432.47 730.53 428.06 729.52 424.32C728.51 420.58 726.31 417.2 724.75 413.61C722.568 408.603 721.654 403.135 722.09 397.69C722.111 396.444 722.478 395.229 723.15 394.18C723.895 393.288 724.855 392.599 725.94 392.18C733 389.18 743.67 391.09 747.56 397.27Z" fill="#F59B66"/>
<path opacity="0.1" d="M533.8 387.35C527.31 393.35 520.61 399.69 517.45 407.96C515.73 412.47 515.16 417.33 514.6 422.13C513.66 430.31 512.81 439.07 516.6 446.37C520.8 454.37 529.6 458.66 537.86 462.29C540.716 463.632 543.676 464.742 546.71 465.61C550.685 466.498 554.738 466.994 558.81 467.09L600.5 469.41C595.06 463.93 591.58 455.35 592.32 447.66C592.99 440.79 596.32 434.49 599.67 428.48C601.41 425.38 603.38 422.12 606.59 420.59C593.007 417.588 579.041 416.711 565.19 417.99C564.26 418.07 563.19 418.1 562.58 417.36C562.276 416.896 562.135 416.343 562.18 415.79C562.18 409.58 566.82 404.42 568.74 398.52C571.81 389.06 561.36 394.25 551.96 391C542.56 387.75 535.72 377.59 533.8 387.35Z" fill="black"/>
<path d="M530.8 387.35C524.31 393.35 517.61 399.69 514.45 407.96C512.73 412.47 512.16 417.33 511.6 422.13C510.66 430.31 509.81 439.07 513.6 446.37C517.8 454.37 526.6 458.66 534.86 462.29C537.716 463.631 540.676 464.742 543.71 465.61C547.685 466.498 551.738 466.994 555.81 467.09L597.5 469.41C592.06 463.93 588.58 455.35 589.32 447.66C589.99 440.79 593.32 434.49 596.67 428.48C598.41 425.38 600.38 422.12 603.59 420.59C590.007 417.588 576.041 416.711 562.19 417.99C561.26 418.07 560.19 418.1 559.58 417.36C559.276 416.895 559.135 416.343 559.18 415.79C559.18 409.58 563.82 404.42 565.74 398.52C568.81 389.06 563.47 377.52 554.06 374.25C544.65 370.98 532.72 377.59 530.8 387.35Z" fill="#F59B66"/>
<path d="M635.5 280C663.39 280 686 270.598 686 259C686 247.402 663.39 238 635.5 238C607.61 238 585 247.402 585 259C585 270.598 607.61 280 635.5 280Z" fill="#2F2E41"/>
<path opacity="0.1" d="M634.5 271C610.33 271 590.13 263.93 585.17 254.5C584.418 255.882 584.016 257.427 584 259C584 270.6 606.61 280 634.5 280C662.39 280 685 270.6 685 259C684.984 257.427 684.582 255.882 683.83 254.5C678.87 263.93 658.67 271 634.5 271Z" fill="black"/>
<path d="M702.75 273.11C701.166 272.216 699.325 271.888 697.53 272.18C696.643 272.347 695.836 272.803 695.237 273.479C694.638 274.154 694.28 275.009 694.22 275.91L691.34 275.74C691.006 275.705 690.669 275.722 690.34 275.79C689.949 275.913 689.618 276.176 689.409 276.528C689.2 276.881 689.129 277.298 689.21 277.7C689.316 278.096 689.567 278.438 689.914 278.659C690.26 278.879 690.676 278.962 691.08 278.89C689.663 279.455 688.399 280.345 687.39 281.49C686.638 282.625 686.363 284.011 686.625 285.347C686.887 286.683 687.665 287.863 688.79 288.63C689.972 289.311 691.361 289.537 692.698 289.267C694.034 288.996 695.226 288.247 696.05 287.16C695.882 287.756 695.93 288.392 696.186 288.956C696.443 289.52 696.89 289.975 697.45 290.24C702.87 293.17 705.63 289.19 706.37 284.58C707.14 279.57 708.22 275.81 702.75 273.11Z" fill="#FFE9B3"/>
<path opacity="0.15" d="M702.75 273.11C701.166 272.216 699.325 271.888 697.53 272.18C696.643 272.347 695.836 272.803 695.237 273.479C694.638 274.154 694.28 275.009 694.22 275.91L691.34 275.74C691.006 275.705 690.669 275.722 690.34 275.79C689.949 275.913 689.618 276.176 689.409 276.528C689.2 276.881 689.129 277.298 689.21 277.7C689.316 278.096 689.567 278.438 689.914 278.659C690.26 278.879 690.676 278.962 691.08 278.89C689.663 279.455 688.399 280.345 687.39 281.49C686.638 282.625 686.363 284.011 686.625 285.347C686.887 286.683 687.665 287.863 688.79 288.63C689.972 289.311 691.361 289.537 692.698 289.267C694.034 288.996 695.226 288.247 696.05 287.16C695.882 287.756 695.93 288.392 696.186 288.956C696.443 289.52 696.89 289.975 697.45 290.24C702.87 293.17 705.63 289.19 706.37 284.58C707.14 279.57 708.22 275.81 702.75 273.11Z" fill="black"/>
<path d="M750.75 349.11C749.166 348.216 747.325 347.888 745.53 348.18C744.643 348.347 743.836 348.803 743.237 349.479C742.638 350.154 742.28 351.009 742.22 351.91L739.34 351.74C739.006 351.705 738.669 351.722 738.34 351.79C737.949 351.913 737.618 352.176 737.409 352.528C737.2 352.881 737.129 353.298 737.21 353.7C737.316 354.096 737.567 354.438 737.914 354.659C738.26 354.879 738.676 354.962 739.08 354.89C737.663 355.455 736.399 356.345 735.39 357.49C734.638 358.625 734.363 360.011 734.625 361.347C734.887 362.683 735.665 363.863 736.79 364.63C737.972 365.311 739.361 365.537 740.698 365.267C742.034 364.996 743.226 364.247 744.05 363.16C743.882 363.756 743.93 364.392 744.186 364.956C744.443 365.52 744.89 365.975 745.45 366.24C750.87 369.17 753.63 365.19 754.37 360.58C755.14 355.57 756.22 351.81 750.75 349.11Z" fill="#FFE9B3"/>
<path opacity="0.15" d="M750.75 349.11C749.166 348.216 747.325 347.888 745.53 348.18C744.643 348.347 743.836 348.803 743.237 349.479C742.638 350.154 742.28 351.009 742.22 351.91L739.34 351.74C739.006 351.705 738.669 351.722 738.34 351.79C737.949 351.913 737.618 352.176 737.409 352.528C737.2 352.881 737.129 353.298 737.21 353.7C737.316 354.096 737.567 354.438 737.914 354.659C738.26 354.879 738.676 354.962 739.08 354.89C737.663 355.455 736.399 356.345 735.39 357.49C734.638 358.625 734.363 360.011 734.625 361.347C734.887 362.683 735.665 363.863 736.79 364.63C737.972 365.311 739.361 365.537 740.698 365.267C742.034 364.996 743.226 364.247 744.05 363.16C743.882 363.756 743.93 364.392 744.186 364.956C744.443 365.52 744.89 365.975 745.45 366.24C750.87 369.17 753.63 365.19 754.37 360.58C755.14 355.57 756.22 351.81 750.75 349.11Z" fill="black"/>
<path d="M806.75 430.11C805.166 429.216 803.325 428.888 801.53 429.18C800.643 429.347 799.836 429.803 799.237 430.479C798.638 431.154 798.28 432.009 798.22 432.91L795.34 432.74C795.006 432.705 794.669 432.722 794.34 432.79C793.949 432.913 793.618 433.176 793.409 433.528C793.2 433.881 793.129 434.298 793.21 434.7C793.316 435.096 793.567 435.438 793.914 435.659C794.26 435.879 794.676 435.962 795.08 435.89C793.663 436.455 792.399 437.345 791.39 438.49C790.638 439.625 790.363 441.011 790.625 442.347C790.887 443.683 791.665 444.863 792.79 445.63C793.972 446.311 795.361 446.537 796.698 446.267C798.034 445.996 799.226 445.247 800.05 444.16C799.882 444.756 799.93 445.392 800.186 445.956C800.443 446.52 800.89 446.975 801.45 447.24C806.87 450.17 809.63 446.19 810.37 441.58C811.14 436.57 812.22 432.81 806.75 430.11Z" fill="#FFE9B3"/>
<path opacity="0.15" d="M806.75 430.11C805.166 429.216 803.325 428.888 801.53 429.18C800.643 429.347 799.836 429.803 799.237 430.479C798.638 431.154 798.28 432.009 798.22 432.91L795.34 432.74C795.006 432.705 794.669 432.722 794.34 432.79C793.949 432.913 793.618 433.176 793.409 433.528C793.2 433.881 793.129 434.298 793.21 434.7C793.316 435.096 793.567 435.438 793.914 435.659C794.26 435.879 794.676 435.962 795.08 435.89C793.663 436.455 792.399 437.345 791.39 438.49C790.638 439.625 790.363 441.011 790.625 442.347C790.887 443.683 791.665 444.863 792.79 445.63C793.972 446.311 795.361 446.537 796.698 446.267C798.034 445.996 799.226 445.247 800.05 444.16C799.882 444.756 799.93 445.392 800.186 445.956C800.443 446.52 800.89 446.975 801.45 447.24C806.87 450.17 809.63 446.19 810.37 441.58C811.14 436.57 812.22 432.81 806.75 430.11Z" fill="black"/>
<path d="M720.74 251.19C721.656 249.618 722.009 247.78 721.74 245.98C721.583 245.09 721.134 244.278 720.464 243.671C719.794 243.065 718.941 242.698 718.04 242.63L718.25 239.75C718.301 239.419 718.301 239.081 718.25 238.75C718.156 238.339 717.902 237.982 717.545 237.758C717.188 237.534 716.756 237.461 716.345 237.555C715.934 237.649 715.577 237.903 715.353 238.26C715.129 238.617 715.056 239.049 715.15 239.46C714.6 238.036 713.723 236.762 712.59 235.74C711.463 234.974 710.079 234.683 708.739 234.93C707.399 235.177 706.21 235.942 705.43 237.06C704.736 238.235 704.495 239.624 704.753 240.965C705.011 242.305 705.749 243.506 706.83 244.34C706.235 244.166 705.597 244.208 705.03 244.459C704.463 244.71 704.002 245.153 703.73 245.71C700.73 251.1 704.73 253.9 709.29 254.71C714.24 255.5 718 256.63 720.74 251.19Z" fill="#FFE9B3"/>
<path d="M714.74 216.19C715.656 214.618 716.009 212.78 715.74 210.98C715.583 210.09 715.134 209.278 714.464 208.671C713.794 208.065 712.941 207.698 712.04 207.63L712.25 204.75C712.301 204.419 712.301 204.081 712.25 203.75C712.156 203.339 711.902 202.982 711.545 202.758C711.188 202.534 710.756 202.461 710.345 202.555C709.934 202.649 709.577 202.903 709.353 203.26C709.129 203.617 709.056 204.049 709.15 204.46C708.6 203.036 707.723 201.762 706.59 200.74C705.463 199.974 704.079 199.683 702.739 199.93C701.399 200.177 700.21 200.942 699.43 202.06C698.736 203.235 698.495 204.624 698.753 205.965C699.011 207.305 699.749 208.506 700.83 209.34C700.235 209.166 699.597 209.208 699.03 209.459C698.463 209.71 698.002 210.153 697.73 210.71C694.73 216.1 698.73 218.9 703.29 219.71C708.24 220.5 712 221.63 714.74 216.19Z" fill="#FFE9B3"/>
<path d="M564.75 504.11C563.166 503.216 561.325 502.888 559.53 503.18C558.643 503.347 557.836 503.803 557.237 504.479C556.638 505.154 556.28 506.009 556.22 506.91L553.34 506.74C553.009 506.689 552.671 506.689 552.34 506.74C551.949 506.863 551.618 507.126 551.409 507.478C551.2 507.831 551.129 508.248 551.21 508.65C551.316 509.046 551.567 509.388 551.914 509.609C552.26 509.829 552.676 509.912 553.08 509.84C551.663 510.405 550.399 511.296 549.39 512.44C548.638 513.575 548.363 514.961 548.625 516.297C548.887 517.633 549.665 518.813 550.79 519.58C551.972 520.261 553.361 520.487 554.698 520.217C556.034 519.946 557.226 519.197 558.05 518.11C557.882 518.706 557.93 519.342 558.186 519.906C558.443 520.47 558.89 520.925 559.45 521.19C564.87 524.12 567.63 520.19 568.37 515.53C569.14 510.57 570.22 506.81 564.75 504.11Z" fill="#FFE9B3"/>
<path opacity="0.15" d="M564.75 504.11C563.166 503.216 561.325 502.888 559.53 503.18C558.643 503.347 557.836 503.803 557.237 504.479C556.638 505.154 556.28 506.009 556.22 506.91L553.34 506.74C553.009 506.689 552.671 506.689 552.34 506.74C551.949 506.863 551.618 507.126 551.409 507.478C551.2 507.831 551.129 508.248 551.21 508.65C551.316 509.046 551.567 509.388 551.914 509.609C552.26 509.829 552.676 509.912 553.08 509.84C551.663 510.405 550.399 511.296 549.39 512.44C548.638 513.575 548.363 514.961 548.625 516.297C548.887 517.633 549.665 518.813 550.79 519.58C551.972 520.261 553.361 520.487 554.698 520.217C556.034 519.946 557.226 519.197 558.05 518.11C557.882 518.706 557.93 519.342 558.186 519.906C558.443 520.47 558.89 520.925 559.45 521.19C564.87 524.12 567.63 520.19 568.37 515.53C569.14 510.57 570.22 506.81 564.75 504.11Z" fill="black"/>
<path d="M528.74 502.19C529.656 500.618 530.009 498.78 529.74 496.98C529.583 496.09 529.134 495.278 528.464 494.671C527.794 494.065 526.941 493.698 526.04 493.63L526.25 490.75C526.301 490.419 526.301 490.081 526.25 489.75C526.156 489.339 525.902 488.982 525.545 488.758C525.188 488.534 524.756 488.461 524.345 488.555C523.934 488.649 523.577 488.903 523.353 489.26C523.129 489.617 523.056 490.049 523.15 490.46C522.6 489.036 521.723 487.762 520.59 486.74C519.463 485.974 518.079 485.683 516.739 485.93C515.399 486.177 514.21 486.942 513.43 488.06C512.736 489.235 512.495 490.624 512.753 491.965C513.011 493.305 513.749 494.506 514.83 495.34C514.235 495.166 513.597 495.208 513.03 495.459C512.463 495.71 512.002 496.153 511.73 496.71C508.73 502.1 512.73 504.9 517.29 505.71C522.24 506.5 526 507.63 528.74 502.19Z" fill="#FFE9B3"/>
<path d="M576.74 447.19C577.656 445.618 578.009 443.78 577.74 441.98C577.583 441.09 577.134 440.278 576.464 439.671C575.794 439.065 574.941 438.698 574.04 438.63L574.25 435.75C574.301 435.419 574.301 435.081 574.25 434.75C574.156 434.339 573.902 433.982 573.545 433.758C573.188 433.534 572.756 433.461 572.345 433.555C571.934 433.649 571.577 433.903 571.353 434.26C571.129 434.617 571.056 435.049 571.15 435.46C570.6 434.036 569.723 432.762 568.59 431.74C567.463 430.974 566.079 430.683 564.739 430.93C563.399 431.177 562.21 431.942 561.43 433.06C560.736 434.235 560.495 435.624 560.753 436.965C561.011 438.305 561.749 439.506 562.83 440.34C562.235 440.166 561.597 440.208 561.03 440.459C560.463 440.71 560.002 441.153 559.73 441.71C556.73 447.1 560.73 449.9 565.29 450.71C570.24 451.5 574 452.63 576.74 447.19Z" fill="#FFE9B3"/>
<path d="M499.91 465.35C490.17 462.86 480.03 460.35 470.19 462.35C465.81 463.24 461.67 465 457.41 466.35C446.92 469.601 435.833 470.446 424.971 468.824C414.109 467.202 403.753 463.154 394.67 456.98C384.47 449.93 373.87 439.65 361.79 442.44C358.54 443.2 355.53 444.9 352.21 445.27C345.98 445.98 340.21 441.94 334.03 440.99C323.39 439.36 313.72 446.82 305.54 453.82L262.41 490.73C259.14 493.53 255.54 497.23 256.41 501.43C257.74 507.6 267.19 508.43 269.62 514.28C271.38 518.47 268.47 523.35 264.62 525.74C260.77 528.13 256.11 528.74 251.79 530.19C245.263 532.377 239.412 536.215 234.807 541.332C230.202 546.448 227 552.669 225.51 559.39C224.75 562.97 224.51 566.69 223.1 570.07C221.58 573.75 218.83 576.77 216.8 580.19C207.92 595.09 213.75 614.86 207.01 630.84C203.44 639.32 196.29 647.52 198.55 656.43C200.61 664.51 209.48 668.64 217.55 670.78C218.5 676.28 216.55 680.16 212.55 684.11C246.1 697.9 282.11 711.98 317.7 704.93C329.91 702.52 341.8 697.63 354.24 697.83C363.07 697.97 371.8 700.69 380.61 700.07C399.2 698.76 416.27 682.87 434.28 687.64C428.85 688.01 426.84 695.95 430.04 700.36C433.24 704.77 439.13 706.18 444.55 706.7C449.97 707.22 455.71 707.26 460.41 710.02C456.85 717.43 444.1 720.02 445.33 728.17C445.78 731.11 448.16 733.34 450.52 735.17C474.77 753.74 508.17 751.96 538.52 755.17C560.9 757.51 582.84 762.98 605.15 765.9C640.79 770.55 676.92 768.65 712.8 766.73C719.31 766.38 726.61 765.66 730.8 760.66C736.36 754 733.27 744.13 732.57 735.49C729.85 701.68 766.83 678.41 777.19 646.11C781.19 633.5 781.02 619.95 780.3 606.72C778.69 576.88 774.02 545.4 755 522.36C739.34 503.36 715.93 492.66 692.62 484.82C677.78 479.82 662.23 475.71 646.62 477.18C620.42 479.65 593.95 497.54 569.76 487.18C563.36 484.44 557.91 479.91 551.83 476.53C535.85 467.5 517.72 469.9 499.91 465.35Z" fill="#2524E9"/>
<g opacity="0.1">
<path opacity="0.1" d="M635.21 739.86C612.9 736.94 591 731.5 568.58 729.13C538.2 725.95 504.8 727.73 480.58 709.13C478.22 707.32 475.84 705.13 475.39 702.13C474.16 694 486.91 691.39 490.47 683.98C485.77 681.22 480.04 681.19 474.61 680.66C469.18 680.13 463.3 678.73 460.1 674.32C456.9 669.91 458.91 661.97 464.34 661.6C446.34 656.83 429.26 672.72 410.67 674.03C401.86 674.65 393.13 671.93 384.3 671.79C371.86 671.59 359.97 676.48 347.76 678.89C312.17 685.89 276.17 671.89 242.61 658.07C246.56 654.07 248.53 650.24 247.61 644.74C239.56 642.6 230.69 638.47 228.61 630.39C226.35 621.48 233.5 613.28 237.07 604.8C243.81 588.8 237.98 569.05 246.86 554.15C248.86 550.73 251.64 547.71 253.16 544.03C254.55 540.65 254.81 536.93 255.57 533.35C255.898 531.782 256.332 530.239 256.87 528.73C255.19 529.19 253.49 529.61 251.87 530.15C245.343 532.337 239.492 536.175 234.887 541.292C230.282 546.408 227.079 552.629 225.59 559.35C224.83 562.93 224.59 566.65 223.18 570.03C221.66 573.71 218.91 576.73 216.88 580.15C208 595.05 213.83 614.82 207.09 630.8C203.52 639.28 196.37 647.48 198.63 656.39C200.69 664.47 209.56 668.6 217.63 670.74C218.58 676.24 216.63 680.12 212.63 684.07C246.19 697.86 282.19 711.94 317.78 704.89C329.99 702.48 341.88 697.59 354.32 697.79C363.15 697.93 371.88 700.65 380.69 700.03C399.28 698.72 416.35 682.83 434.36 687.6C428.93 687.97 426.92 695.91 430.12 700.32C433.32 704.73 439.21 706.14 444.63 706.66C450.05 707.18 455.79 707.22 460.49 709.98C456.93 717.39 444.18 719.98 445.41 728.13C445.86 731.07 448.24 733.3 450.6 735.13C474.85 753.7 508.25 751.92 538.6 755.13C560.98 757.47 582.92 762.94 605.23 765.86C640.87 770.51 677 768.61 712.88 766.69C719.39 766.34 726.69 765.62 730.88 760.62C735.23 755.4 734.28 748.22 733.33 741.19C700.57 742.89 667.68 744.1 635.21 739.86Z" fill="black"/>
<path opacity="0.1" d="M268.18 512.04C272.137 508.518 276.777 505.85 281.81 504.2C286.13 502.8 290.81 502.13 294.64 499.75C298.47 497.37 301.41 492.48 299.64 488.29C297.21 482.48 287.76 481.61 286.43 475.44C285.82 472.6 287.27 469.99 289.29 467.73L262.4 490.73C259.13 493.53 255.53 497.23 256.4 501.43C257.57 506.71 264.63 508.12 268.18 512.04Z" fill="black"/>
</g>
<path d="M358.74 492.19C359.656 490.618 360.009 488.78 359.74 486.98C359.583 486.09 359.134 485.278 358.464 484.671C357.794 484.065 356.941 483.698 356.04 483.63L356.25 480.75C356.284 480.416 356.268 480.079 356.2 479.75C356.106 479.339 355.852 478.982 355.495 478.758C355.138 478.534 354.706 478.461 354.295 478.555C353.884 478.649 353.527 478.903 353.303 479.26C353.079 479.617 353.006 480.049 353.1 480.46C352.55 479.036 351.673 477.762 350.54 476.74C349.413 475.974 348.029 475.683 346.689 475.93C345.349 476.177 344.16 476.942 343.38 478.06C342.686 479.235 342.445 480.624 342.703 481.965C342.961 483.305 343.699 484.506 344.78 485.34C344.185 485.166 343.547 485.208 342.98 485.459C342.413 485.71 341.952 486.153 341.68 486.71C338.68 492.1 342.68 494.9 347.24 495.71C352.24 496.5 356 497.63 358.74 492.19Z" fill="#FFE9B3"/>
<path d="M504.74 686.19C505.656 684.618 506.009 682.78 505.74 680.98C505.583 680.09 505.134 679.278 504.464 678.671C503.794 678.065 502.941 677.698 502.04 677.63L502.25 674.75C502.301 674.419 502.301 674.081 502.25 673.75C502.156 673.339 501.902 672.982 501.545 672.758C501.188 672.534 500.756 672.461 500.345 672.555C499.934 672.649 499.577 672.903 499.353 673.26C499.129 673.617 499.056 674.049 499.15 674.46C498.6 673.036 497.723 671.762 496.59 670.74C495.463 669.974 494.079 669.683 492.739 669.93C491.399 670.177 490.21 670.942 489.43 672.06C488.736 673.235 488.495 674.624 488.753 675.965C489.011 677.305 489.749 678.506 490.83 679.34C490.235 679.166 489.597 679.208 489.03 679.459C488.463 679.71 488.002 680.153 487.73 680.71C484.73 686.1 488.73 688.9 493.29 689.71C498.24 690.5 502 691.63 504.74 686.19Z" fill="#FFE9B3"/>
<path d="M604.74 495.19C605.656 493.618 606.009 491.78 605.74 489.98C605.583 489.09 605.134 488.278 604.464 487.671C603.794 487.065 602.941 486.698 602.04 486.63L602.25 483.75C602.301 483.419 602.301 483.081 602.25 482.75C602.156 482.339 601.902 481.982 601.545 481.758C601.188 481.534 600.756 481.461 600.345 481.555C599.934 481.649 599.577 481.903 599.353 482.26C599.129 482.617 599.056 483.049 599.15 483.46C598.6 482.036 597.723 480.762 596.59 479.74C595.463 478.974 594.079 478.683 592.739 478.93C591.399 479.177 590.21 479.942 589.43 481.06C588.736 482.235 588.495 483.624 588.753 484.965C589.011 486.305 589.749 487.506 590.83 488.34C590.235 488.166 589.597 488.208 589.03 488.459C588.463 488.71 588.002 489.153 587.73 489.71C584.73 495.1 588.73 497.9 593.29 498.71C598.24 499.5 602 500.63 604.74 495.19Z" fill="#FFE9B3"/>
<path d="M623.55 492.99C625.212 492.254 626.573 490.973 627.41 489.36C627.809 488.551 627.927 487.632 627.746 486.749C627.565 485.865 627.095 485.067 626.41 484.48L628.26 482.26C628.498 482.006 628.694 481.716 628.84 481.4C629.006 481.011 629.01 480.573 628.853 480.181C628.695 479.789 628.389 479.476 628 479.31C627.611 479.144 627.173 479.14 626.781 479.297C626.389 479.455 626.076 479.761 625.91 480.15C626.3 478.676 626.338 477.131 626.02 475.64C625.556 474.357 624.605 473.309 623.373 472.722C622.141 472.136 620.728 472.06 619.44 472.51C618.19 473.054 617.181 474.037 616.605 475.273C616.028 476.508 615.923 477.912 616.31 479.22C615.93 478.731 615.391 478.391 614.786 478.259C614.181 478.128 613.549 478.213 613 478.5C607.42 481.11 609 485.69 612.24 489.03C615.74 492.68 618.12 495.79 623.55 492.99Z" fill="#FFE9B3"/>
<path d="M406.75 498.11C405.166 497.216 403.325 496.888 401.53 497.18C400.643 497.347 399.836 497.803 399.237 498.479C398.638 499.154 398.28 500.009 398.22 500.91L395.34 500.74C395.009 500.689 394.671 500.689 394.34 500.74C393.949 500.863 393.618 501.126 393.409 501.478C393.2 501.831 393.129 502.248 393.21 502.65C393.316 503.046 393.567 503.388 393.914 503.609C394.26 503.829 394.676 503.912 395.08 503.84C393.663 504.405 392.399 505.296 391.39 506.44C390.638 507.575 390.363 508.961 390.625 510.297C390.887 511.633 391.665 512.813 392.79 513.58C393.972 514.261 395.361 514.487 396.698 514.217C398.034 513.946 399.226 513.197 400.05 512.11C399.882 512.706 399.93 513.342 400.186 513.906C400.443 514.47 400.89 514.925 401.45 515.19C406.87 518.12 409.63 514.19 410.37 509.53C411.14 504.57 412.22 500.81 406.75 498.11Z" fill="#FFE9B3"/>
<path opacity="0.15" d="M406.75 498.11C405.166 497.216 403.325 496.888 401.53 497.18C400.643 497.347 399.836 497.803 399.237 498.479C398.638 499.154 398.28 500.009 398.22 500.91L395.34 500.74C395.009 500.689 394.671 500.689 394.34 500.74C393.949 500.863 393.618 501.126 393.409 501.478C393.2 501.831 393.129 502.248 393.21 502.65C393.316 503.046 393.567 503.388 393.914 503.609C394.26 503.829 394.676 503.912 395.08 503.84C393.663 504.405 392.399 505.296 391.39 506.44C390.638 507.575 390.363 508.961 390.625 510.297C390.887 511.633 391.665 512.813 392.79 513.58C393.972 514.261 395.361 514.487 396.698 514.217C398.034 513.946 399.226 513.197 400.05 512.11C399.882 512.706 399.93 513.342 400.186 513.906C400.443 514.47 400.89 514.925 401.45 515.19C406.87 518.12 409.63 514.19 410.37 509.53C411.14 504.57 412.22 500.81 406.75 498.11Z" fill="black"/>
<path d="M495.79 572.5C496.097 570.71 495.794 568.868 494.93 567.27C494.477 566.487 493.775 565.878 492.936 565.539C492.098 565.2 491.17 565.151 490.3 565.4L489.5 562.62C489.421 562.267 489.286 561.93 489.1 561.62C488.869 561.266 488.507 561.018 488.094 560.931C487.68 560.844 487.249 560.924 486.895 561.155C486.541 561.386 486.293 561.748 486.206 562.161C486.119 562.575 486.199 563.006 486.43 563.36C485.428 562.208 484.167 561.31 482.75 560.74C481.427 560.411 480.028 560.616 478.855 561.31C477.681 562.004 476.828 563.132 476.48 564.45C476.234 565.792 476.486 567.178 477.189 568.347C477.893 569.517 478.999 570.389 480.3 570.8C479.682 570.841 479.098 571.1 478.651 571.53C478.205 571.96 477.925 572.534 477.86 573.15C476.86 579.24 481.58 580.51 486.17 579.67C491.17 578.76 495.07 578.5 495.79 572.5Z" fill="#FFE9B3"/>
<path opacity="0.15" d="M495.79 572.5C496.097 570.71 495.794 568.868 494.93 567.27C494.477 566.487 493.775 565.878 492.936 565.539C492.098 565.2 491.17 565.151 490.3 565.4L489.5 562.62C489.421 562.267 489.286 561.93 489.1 561.62C488.869 561.266 488.507 561.018 488.094 560.931C487.68 560.844 487.249 560.924 486.895 561.155C486.541 561.386 486.293 561.748 486.206 562.161C486.119 562.575 486.199 563.006 486.43 563.36C485.428 562.208 484.167 561.31 482.75 560.74C481.427 560.411 480.028 560.616 478.855 561.31C477.681 562.004 476.828 563.132 476.48 564.45C476.234 565.792 476.486 567.178 477.189 568.347C477.893 569.517 478.999 570.389 480.3 570.8C479.682 570.841 479.098 571.1 478.651 571.53C478.205 571.96 477.925 572.534 477.86 573.15C476.86 579.24 481.58 580.51 486.17 579.67C491.17 578.76 495.07 578.5 495.79 572.5Z" fill="black"/>
<path d="M615.79 481.5C616.097 479.71 615.794 477.868 614.93 476.27C614.477 475.487 613.775 474.878 612.936 474.539C612.098 474.2 611.17 474.151 610.3 474.4L609.5 471.62C609.421 471.267 609.286 470.93 609.1 470.62C608.986 470.445 608.838 470.294 608.665 470.175C608.493 470.057 608.299 469.974 608.094 469.931C607.889 469.888 607.678 469.885 607.472 469.924C607.266 469.962 607.07 470.041 606.895 470.155C606.72 470.269 606.569 470.417 606.45 470.59C606.332 470.762 606.249 470.957 606.206 471.161C606.163 471.366 606.16 471.577 606.199 471.783C606.237 471.989 606.316 472.185 606.43 472.36C605.428 471.208 604.167 470.31 602.75 469.74C601.427 469.411 600.028 469.616 598.855 470.31C597.681 471.004 596.828 472.132 596.48 473.45C596.234 474.792 596.486 476.178 597.189 477.347C597.893 478.517 598.999 479.389 600.3 479.8C599.682 479.841 599.098 480.1 598.651 480.53C598.205 480.96 597.925 481.534 597.86 482.15C596.86 488.24 601.58 489.51 606.17 488.67C611.17 487.76 615.07 487.5 615.79 481.5Z" fill="#FFE9B3"/>
<path opacity="0.15" d="M615.79 481.5C616.097 479.71 615.794 477.868 614.93 476.27C614.477 475.487 613.775 474.878 612.936 474.539C612.098 474.2 611.17 474.151 610.3 474.4L609.5 471.62C609.421 471.267 609.286 470.93 609.1 470.62C608.986 470.445 608.838 470.294 608.665 470.175C608.493 470.057 608.299 469.974 608.094 469.931C607.889 469.888 607.678 469.885 607.472 469.924C607.266 469.962 607.07 470.041 606.895 470.155C606.72 470.269 606.569 470.417 606.45 470.59C606.332 470.762 606.249 470.957 606.206 471.161C606.163 471.366 606.16 471.577 606.199 471.783C606.237 471.989 606.316 472.185 606.43 472.36C605.428 471.208 604.167 470.31 602.75 469.74C601.427 469.411 600.028 469.616 598.855 470.31C597.681 471.004 596.828 472.132 596.48 473.45C596.234 474.792 596.486 476.178 597.189 477.347C597.893 478.517 598.999 479.389 600.3 479.8C599.682 479.841 599.098 480.1 598.651 480.53C598.205 480.96 597.925 481.534 597.86 482.15C596.86 488.24 601.58 489.51 606.17 488.67C611.17 487.76 615.07 487.5 615.79 481.5Z" fill="black"/>
</svg>
