<svg width="854" height="726" viewBox="0 0 854 726" fill="none" xmlns="http://www.w3.org/2000/svg">
<g clip-path="url(#clip0)">
<path d="M284.98 726C437.963 726 561.98 701.823 561.98 672C561.98 642.177 437.963 618 284.98 618C131.997 618 7.97998 642.177 7.97998 672C7.97998 701.823 131.997 726 284.98 726Z" fill="#3F3D56"/>
<path d="M63.2499 659C63.2499 659 11.8899 645.19 2.19991 646.21C-7.49009 647.23 16.8799 598.85 33.1099 604.75C49.3399 610.65 70.9799 626.17 83.3499 604.25C95.7199 582.33 102.66 570.53 117.73 571.71C132.8 572.89 153.67 562.28 168.73 571.71C183.79 581.14 194.37 592.77 215.17 592.27C235.97 591.77 255.69 544.58 271.89 563.46C288.09 582.34 307.52 599.61 322.75 593.33C337.98 587.05 355.36 596.49 369.27 607.11C383.18 617.73 407.53 613.01 416.8 604.75C426.07 596.49 433.04 590.59 452.74 591.75C472.44 592.91 535.05 607.09 558.24 624.75C581.43 642.41 528.1 664.87 502.59 664.87C477.08 664.87 472.45 671.95 450.42 682.57C428.39 693.19 392.42 676.67 366.95 694.37C341.48 712.07 308.95 684.93 264.95 694.37C220.95 703.81 230.17 716.78 204.66 707.37C179.15 697.96 188.43 694.37 151.33 692.03C114.23 689.69 73.6599 697.93 70.1799 682.59C66.6999 667.25 43.5399 663.71 29.6199 658.99C15.6999 654.27 63.2499 659 63.2499 659Z" fill="#3F3D56"/>
<path d="M457.97 669.56C457.97 669.56 423.36 660.4 416.84 661.07C410.32 661.74 426.73 629.73 437.66 633.63C448.59 637.53 463.18 647.81 471.51 633.3C479.84 618.79 484.51 610.98 494.68 611.76C504.85 612.54 518.89 605.51 529.04 611.76C539.19 618.01 546.31 625.7 560.33 625.37C574.35 625.04 587.62 593.8 598.55 606.29C609.48 618.78 622.55 630.23 632.81 626.07C643.07 621.91 654.81 628.16 664.16 635.19C673.51 642.22 689.93 639.1 696.16 633.63C702.39 628.16 707.1 624.26 720.38 625.04C733.66 625.82 775.83 635.19 791.45 646.91C807.07 658.63 771.14 673.46 753.96 673.46C736.78 673.46 733.65 678.15 718.81 685.18C703.97 692.21 679.76 681.27 662.58 692.99C645.4 704.71 623.53 686.74 593.85 692.99C564.17 699.24 570.42 707.83 553.23 701.58C536.04 695.33 542.3 692.99 517.31 691.43C492.32 689.87 464.98 695.33 462.63 685.18C460.28 675.03 444.63 672.68 435.3 669.56C425.97 666.44 457.97 669.56 457.97 669.56Z" fill="#3F3D56"/>
<path d="M744.61 561.58L731.21 602.65L730.63 604.44L708.2 673.2L669.8 699.15L483.33 620.74L501 549.28L501.94 545.52L511.4 507.27L511.42 507.18L568.82 500L744.61 561.58Z" fill="#F8CE6D"/>
<path opacity="0.1" d="M744.61 561.58L708.2 673.2L669.8 699.15L705.05 577.34L511.4 507.27L511.42 507.18L568.82 500L744.61 561.58Z" fill="black"/>
<path opacity="0.1" d="M553.24 514.93L550.15 513.05L581.13 509.8L713.85 556.72L710.11 558.68L579.18 512.51L553.24 514.93Z" fill="black"/>
<path opacity="0.1" d="M731.21 602.65L692.45 620.88L501.94 545.52L501 549.28L691.68 623.56L730.63 604.44" fill="black"/>
<path d="M524.949 534.249C526.042 530.731 523.849 526.923 520.051 525.744C516.253 524.565 512.289 526.461 511.197 529.979C510.105 533.497 512.298 537.305 516.095 538.484C519.893 539.663 523.857 537.767 524.949 534.249Z" fill="#3F3D56"/>
<path d="M692.86 599.264C693.952 595.745 691.759 591.938 687.962 590.758C684.164 589.579 680.2 591.475 679.108 594.993C678.015 598.511 680.208 602.319 684.006 603.498C687.803 604.678 691.767 602.782 692.86 599.264Z" fill="#3F3D56"/>
<path d="M666.324 680.008C667.416 676.49 665.223 672.682 661.426 671.503C657.628 670.324 653.664 672.22 652.572 675.738C651.479 679.256 653.672 683.064 657.47 684.243C661.267 685.422 665.232 683.526 666.324 680.008Z" fill="#3F3D56"/>
<path d="M504.406 612.262C505.498 608.744 503.305 604.936 499.508 603.756C495.71 602.577 491.746 604.473 490.654 607.991C489.561 611.509 491.754 615.317 495.552 616.496C499.35 617.676 503.314 615.78 504.406 612.262Z" fill="#3F3D56"/>
<path d="M534.11 511.38C533.71 512.68 530.5 511.38 526.42 510.1C522.34 508.82 519.16 507.42 519.56 506.1C519.96 504.78 523.8 504.1 527.88 505.37C531.96 506.64 534.52 510.08 534.11 511.38Z" fill="#3F3D56"/>
<path d="M554.652 506.695C555.055 505.397 552.38 503.414 548.677 502.264C544.975 501.114 541.647 501.234 541.244 502.531C540.841 503.829 543.516 505.813 547.218 506.963C550.921 508.112 554.249 507.992 554.652 506.695Z" fill="#3F3D56"/>
<path d="M620.47 543C620.07 544.3 616.06 543.1 612.17 541.89C608.28 540.68 605.25 539.33 605.65 538.03C606.05 536.73 609.74 536.03 613.65 537.2C617.56 538.37 620.89 541.68 620.47 543Z" fill="#3F3D56"/>
<path d="M703.43 572.79C702.98 574.25 698.72 572.98 694.59 571.7C690.46 570.42 687.25 568.95 687.7 567.49C688.15 566.03 692.1 565.14 696.23 566.42C700.36 567.7 703.89 571.33 703.43 572.79Z" fill="#3F3D56"/>
<path d="M727.69 569.29C727.23 570.75 722.98 569.48 718.85 568.2C714.72 566.92 711.5 565.45 711.96 563.99C712.42 562.53 716.36 561.64 720.49 562.92C724.62 564.2 728.14 567.83 727.69 569.29Z" fill="#3F3D56"/>
<path d="M739.65 562.16C739.19 563.62 735.65 562.58 732.27 561.52C728.89 560.46 726.27 559.18 726.68 557.72C727.09 556.26 730.5 555.18 733.91 556.24C737.32 557.3 740.1 560.7 739.65 562.16Z" fill="#3F3D56"/>
<path d="M659.54 532.94C659.18 534.1 655.54 533.03 652.08 531.94C648.62 530.85 645.85 529.63 646.22 528.47C646.59 527.31 649.89 526.64 653.39 527.72C656.89 528.8 659.89 531.77 659.54 532.94Z" fill="#3F3D56"/>
<path d="M581.683 505.526C582.086 504.229 579.822 502.373 576.625 501.38C573.429 500.388 570.511 500.635 570.108 501.932C569.706 503.23 571.97 505.086 575.166 506.079C578.363 507.071 581.28 506.824 581.683 505.526Z" fill="#3F3D56"/>
<path opacity="0.1" d="M617.89 582.25C618.316 580.877 618.261 579.399 617.734 578.06C617.207 576.722 616.239 575.604 614.99 574.89C615.585 574.214 616.032 573.42 616.3 572.56C616.625 571.516 616.673 570.406 616.44 569.338C616.207 568.27 615.701 567.281 614.972 566.467C614.242 565.653 613.314 565.042 612.278 564.693C611.242 564.345 610.133 564.272 609.06 564.48C609.482 563.029 609.369 561.474 608.743 560.099C608.116 558.723 607.018 557.617 605.646 556.982C604.274 556.347 602.721 556.225 601.267 556.637C599.812 557.05 598.554 557.97 597.72 559.23C596.907 558.642 595.966 558.256 594.974 558.104C593.982 557.952 592.968 558.039 592.016 558.356C591.065 558.674 590.202 559.214 589.5 559.931C588.798 560.648 588.277 561.522 587.98 562.48C587.98 562.62 587.91 562.75 587.88 562.88L587.66 562.99C586.958 562.358 586.123 561.891 585.217 561.624C584.311 561.357 583.356 561.297 582.424 561.447C581.491 561.598 580.604 561.955 579.828 562.494C579.052 563.033 578.406 563.738 577.939 564.559C577.471 565.38 577.194 566.295 577.127 567.238C577.06 568.18 577.205 569.125 577.551 570.004C577.898 570.883 578.437 571.673 579.129 572.316C579.821 572.959 580.648 573.439 581.55 573.72C581.876 573.824 582.211 573.897 582.55 573.94L582.63 576.26L612.89 588.63L612.69 586.63C613.883 586.469 615.006 585.972 615.927 585.196C616.848 584.421 617.529 583.399 617.89 582.25V582.25Z" fill="black"/>
<path opacity="0.1" d="M610.82 602.11C610.173 603.395 609.107 604.421 607.798 605.019C606.489 605.617 605.015 605.752 603.62 605.4C603.587 606.298 603.358 607.179 602.95 607.98C602.577 608.722 602.062 609.384 601.434 609.927C600.805 610.47 600.076 610.884 599.288 611.145C598.499 611.406 597.667 611.509 596.838 611.448C596.01 611.387 595.202 611.163 594.46 610.79C593.533 610.321 592.734 609.635 592.13 608.79C591.423 610.121 590.263 611.155 588.86 611.706C587.457 612.257 585.904 612.289 584.48 611.795C583.055 611.302 581.855 610.315 581.094 609.014C580.333 607.713 580.062 606.183 580.33 604.7C579.634 604.604 578.958 604.395 578.33 604.08C576.834 603.327 575.697 602.012 575.17 600.421C574.643 598.831 574.769 597.097 575.52 595.6L575.72 595.23L575.64 595C574.725 594.972 573.827 594.743 573.01 594.33C571.508 593.569 570.369 592.242 569.845 590.641C569.321 589.041 569.454 587.297 570.215 585.795C570.976 584.292 572.303 583.154 573.904 582.63C575.504 582.106 577.248 582.239 578.75 583C579.046 583.148 579.33 583.319 579.6 583.51L581.26 581.9L611.7 594.07L610.17 595.37C610.907 596.316 611.359 597.452 611.474 598.646C611.589 599.839 611.362 601.04 610.82 602.11Z" fill="black"/>
<path opacity="0.1" d="M592.24 568.64L584.89 592.46C584.348 594.206 584.494 596.094 585.299 597.736C586.104 599.378 587.507 600.65 589.22 601.29V601.29C590.131 601.629 591.101 601.778 592.072 601.729C593.043 601.68 593.993 601.434 594.865 601.005C595.738 600.577 596.514 599.975 597.145 599.236C597.777 598.498 598.252 597.638 598.54 596.71L605.89 572.88C606.171 571.956 606.262 570.984 606.157 570.023C606.051 569.063 605.752 568.134 605.277 567.292C604.802 566.451 604.161 565.715 603.393 565.128C602.626 564.542 601.747 564.117 600.81 563.88C599.044 563.43 597.172 563.672 595.579 564.557C593.986 565.442 592.791 566.903 592.24 568.64V568.64Z" fill="black"/>
<path d="M592.56 570.09L585.89 591.45C585.401 593.016 585.532 594.709 586.256 596.181C586.98 597.653 588.241 598.791 589.78 599.36C590.597 599.663 591.466 599.796 592.336 599.751C593.206 599.707 594.057 599.485 594.839 599.101C595.62 598.716 596.315 598.176 596.881 597.514C597.447 596.852 597.872 596.082 598.13 595.25L604.76 573.88C605.017 573.047 605.102 572.171 605.01 571.305C604.918 570.439 604.651 569.6 604.224 568.84C603.797 568.081 603.221 567.416 602.529 566.886C601.837 566.357 601.045 565.973 600.2 565.76V565.76C598.615 565.376 596.943 565.61 595.524 566.414C594.105 567.218 593.045 568.533 592.56 570.09V570.09Z" fill="#3F3D56"/>
<path d="M505.61 680.49C505.61 680.49 471 671.33 464.48 672.01C457.96 672.69 474.37 640.66 485.3 644.57C496.23 648.48 510.82 658.74 519.15 644.23C527.48 629.72 532.15 621.92 542.32 622.7C552.49 623.48 566.53 616.45 576.68 622.7C586.83 628.95 593.95 636.63 607.97 636.3C621.99 635.97 635.26 604.73 646.2 617.23C657.14 629.73 670.2 641.16 680.46 637.01C690.72 632.86 702.46 639.1 711.8 646.13C721.14 653.16 737.58 650.03 743.8 644.57C750.02 639.11 754.73 635.19 768.01 635.97C781.29 636.75 823.46 646.13 839.08 657.84C854.7 669.55 818.78 684.4 801.59 684.4C784.4 684.4 781.29 689.08 766.45 696.11C751.61 703.14 727.39 692.21 710.21 703.92C693.03 715.63 671.16 697.68 641.48 703.92C611.8 710.16 618.05 718.76 600.87 712.52C583.69 706.28 589.93 703.92 564.94 702.36C539.95 700.8 512.61 706.27 510.27 696.11C507.93 685.95 492.32 683.62 482.94 680.49C473.56 677.36 505.61 680.49 505.61 680.49Z" fill="#3F3D56"/>
<path d="M205.2 179.18C205.128 178.452 205.235 177.717 205.51 177.04C206.32 175.6 208.44 175.99 210.04 176.4C216.48 178.02 223.26 176.55 229.88 176.93C236.5 177.31 243.97 180.62 245.3 187.12C250.11 183.712 254.255 179.452 257.53 174.55C259.37 171.8 260.97 168.65 260.72 165.35C260.36 160.59 256.37 157.03 252.67 154.01L241.67 145.01C240.223 143.677 238.55 142.614 236.73 141.87C234.19 141 231.41 141.41 228.73 141.41C220.73 141.41 212.16 137.77 205.02 141.41C202.02 142.94 199.8 145.56 197.64 148.12L187.8 159.77C187.057 160.511 186.516 161.43 186.23 162.44C185.95 163.86 186.68 165.26 186.93 166.69C187.4 169.29 186.27 172.06 187.14 174.56C188.57 178.71 193.6 179.3 196.68 181.67C197.83 182.56 199.63 185.56 200.99 185.53C203.43 185.5 205.13 181.09 205.2 179.18Z" fill="#3F3D56"/>
<path d="M206.82 207C206.71 210.24 204.82 213.12 203 215.81C200.57 219.39 198 223.11 194.16 225.11C213.459 235.3 235.94 237.67 256.94 231.73C260.31 230.73 264.29 228.65 264.09 225.14C260.09 224.05 255.95 222.92 252.55 220.51C248.49 217.63 245.81 213.15 244.08 208.51C242.35 203.87 241.47 198.91 240.26 194.08C240.181 193.585 239.966 193.121 239.64 192.74C239.089 192.346 238.413 192.168 237.74 192.24L224.42 192C218.95 192 213.01 191.87 207.93 194.19C201.61 197.09 207 201.62 206.82 207Z" fill="#FFC0C6"/>
<path opacity="0.1" d="M206.82 207C206.71 210.24 204.82 213.12 203 215.81C200.57 219.39 198 223.11 194.16 225.11C213.459 235.3 235.94 237.67 256.94 231.73C260.31 230.73 264.29 228.65 264.09 225.14C260.09 224.05 255.95 222.92 252.55 220.51C248.49 217.63 245.81 213.15 244.08 208.51C242.35 203.87 241.47 198.91 240.26 194.08C240.181 193.585 239.966 193.121 239.64 192.74C239.089 192.346 238.413 192.168 237.74 192.24L224.42 192C218.95 192 213.01 191.87 207.93 194.19C201.61 197.09 207 201.62 206.82 207Z" fill="black"/>
<path d="M195.23 663.24C191.95 668.24 187.66 672.47 184.06 677.24C180.46 682.01 177.45 687.57 177.41 693.54C177.362 693.919 177.399 694.304 177.519 694.667C177.638 695.031 177.837 695.363 178.1 695.64C178.51 695.904 178.983 696.053 179.47 696.07L193.37 697.85C195.483 698.217 197.637 698.292 199.77 698.07C202.067 697.616 204.28 696.81 206.33 695.68C207.897 695.066 209.261 694.027 210.27 692.68C210.94 691.58 211.12 690.23 211.76 689.11C213.69 685.72 218.55 685.87 222.41 686.46C223.52 676.15 220.67 665.87 217.84 655.89C217.718 655.277 217.454 654.702 217.07 654.21C216.565 653.724 215.941 653.379 215.26 653.21C211.93 652.12 203.88 647.85 201.08 649.85C199.03 651.33 196.89 660.59 195.23 663.24Z" fill="#575A88"/>
<path d="M262.25 683.57C264.92 682.32 267.77 680.71 270.65 681.37C274.71 682.28 276.52 687.08 279.97 689.37C282.09 690.8 284.71 691.22 287.24 691.55C295.032 692.558 302.884 693.022 310.74 692.94C313.25 692.94 316.41 692.34 317.02 689.94C317.63 687.54 315.32 685.63 313.27 684.38C308.82 681.651 304.182 679.241 299.39 677.17C297.035 676.301 294.808 675.117 292.77 673.65C289.34 670.88 287.67 666.54 286.14 662.41C284.91 659.09 283.78 651.92 281.26 649.41C278.5 646.7 274.79 648.5 271.33 649.26C265.95 650.44 259.65 651.26 256.19 656.09C251.13 663.16 247.24 690.52 262.25 683.57Z" fill="#575A88"/>
<path d="M182.74 364.46C178.146 375.765 175.62 387.802 175.28 400C175.04 409.11 176.02 418.19 177.01 427.25C178.59 441.917 180.177 456.583 181.77 471.25C182.279 477.349 183.238 483.402 184.64 489.36C186.37 496.01 189.18 502.36 191.19 508.9C197.41 529.28 195.64 551.26 191.53 572.17C190.983 574.464 190.695 576.812 190.67 579.17C190.79 582.7 192.15 586.06 193.03 589.48C198.41 610.33 186.03 633.48 194.11 653.48C194.315 654.194 194.765 654.814 195.38 655.23C195.786 655.382 196.218 655.451 196.651 655.432C197.084 655.413 197.509 655.307 197.9 655.12C200.202 654.319 202.411 653.273 204.49 652C208.843 657.268 214.467 661.339 220.83 663.83C225.57 662.66 226.46 656.9 228.01 652.27C229.192 648.981 230.154 645.617 230.89 642.2C231.576 638.008 231.927 633.768 231.94 629.52L236.04 485.17L235.74 529.22C235.597 532.787 235.821 536.359 236.41 539.88C237.01 542.81 238.11 545.62 238.74 548.55C239.63 552.74 239.52 557.08 239.48 561.37C239.231 586.813 241.559 612.216 246.43 637.19C248.03 645.37 249.95 653.63 254.04 660.88C254.175 661.213 254.376 661.514 254.633 661.765C254.889 662.017 255.195 662.212 255.53 662.34C256.4 662.53 257.2 661.84 257.86 661.23C261.811 657.738 266.747 655.556 271.99 654.987C277.232 654.417 282.522 655.488 287.13 658.05C286.25 653.81 290.29 648.88 287.4 645.66C286.57 644.73 285.33 644.28 284.4 643.47C282.56 641.9 282.12 639.26 281.86 636.85C280.725 626.123 280.725 615.307 281.86 604.58C283.27 591.17 286.44 577.65 284.1 564.38C282.4 554.75 277.82 545.38 278.73 535.69C279.33 529.19 282.35 523.2 284.43 517.01C293.51 489.95 284.43 459.79 291 432.01C292.51 425.63 294.79 418.73 292.05 412.78L296.22 411.51L287.56 391.74C285.72 387.53 283.8 383.2 280.56 379.96C275.12 374.55 266.99 373.1 259.4 371.96L197.66 362.33C192.19 361.44 184.81 359.38 182.74 364.46Z" fill="#4D8AF0"/>
<path d="M221.61 206.86C236.207 206.86 248.04 195.027 248.04 180.43C248.04 165.833 236.207 154 221.61 154C207.013 154 195.18 165.833 195.18 180.43C195.18 195.027 207.013 206.86 221.61 206.86Z" fill="#FFC0C6"/>
<path d="M207.2 211.9C205.918 211.141 204.404 210.875 202.94 211.15C202.22 211.406 201.545 211.774 200.94 212.24L188.44 221C186.648 222.113 185.05 223.511 183.71 225.14C181.57 228.05 181.23 231.92 181.51 235.52C182.13 243.64 185.41 251.3 187.19 259.24C188.97 267.18 188.97 276.24 183.85 282.6C182.969 283.512 182.234 284.554 181.67 285.69C181.365 286.66 181.226 287.674 181.26 288.69C181.075 292.491 181.155 296.3 181.5 300.09C182.06 304.98 183.5 309.73 184.28 314.58C185.65 322.84 185.28 331.31 186.34 339.58C186.293 340.133 186.361 340.69 186.541 341.215C186.721 341.74 187.008 342.223 187.384 342.631C187.761 343.039 188.218 343.364 188.727 343.586C189.235 343.808 189.785 343.922 190.34 343.92C196.521 344.824 202.764 345.236 209.01 345.15C216.24 345.15 223.46 344.75 230.68 344.37L263.54 342.64C264.008 342.7 264.484 342.657 264.933 342.514C265.383 342.372 265.796 342.132 266.144 341.813C266.491 341.494 266.765 341.103 266.946 340.667C267.127 340.231 267.21 339.761 267.19 339.29C270.07 325.47 272.97 311.4 271.61 297.36C270.73 288.29 268.09 279.5 265.61 270.74C263.61 263.64 261.69 256.19 263.19 248.96C264.19 244.19 266.62 239.78 267.25 234.96C267.614 232.451 267.396 229.893 266.612 227.482C265.828 225.072 264.5 222.874 262.73 221.06C259.05 217.53 253.68 216.19 250.01 212.65C249.002 211.505 247.905 210.442 246.73 209.47C246.13 208.992 245.409 208.691 244.647 208.603C243.885 208.515 243.113 208.642 242.42 208.97C241.744 209.45 241.183 210.075 240.78 210.8C237.58 215.66 232.78 223.67 226.03 222.41C218.73 221.1 213.63 215 207.2 211.9Z" fill="#2524E9"/>
<path d="M273.24 390.58C270.9 392.33 269.16 395.44 270.24 398.15C273.419 398.717 276.696 398.262 279.6 396.85C281.47 395.94 283.8 394.66 285.42 395.98C285.945 396.485 286.351 397.099 286.61 397.78C288.362 401.495 290.486 405.023 292.95 408.31C294.73 407.47 296.6 406.55 297.67 404.9C298.316 403.776 298.734 402.536 298.9 401.25C299.527 398.032 299.991 394.785 300.29 391.52C300.5 389.15 300.54 386.52 298.92 384.76C291.97 377.26 279.01 386.27 273.24 390.58Z" fill="#FFC0C6"/>
<path d="M203.55 169.26C203.479 168.535 203.585 167.804 203.86 167.13C204.67 165.69 206.79 166.13 208.39 166.48C214.83 168.11 221.61 166.64 228.23 167.02C234.85 167.4 242.32 170.71 243.65 177.21C248.462 173.8 252.61 169.54 255.89 164.64C257.73 161.89 259.33 158.74 259.08 155.44C258.72 150.68 254.73 147.12 251.03 144.1L240.03 135.1C238.583 133.77 236.91 132.71 235.09 131.97C232.55 131.1 229.77 131.51 227.09 131.51C219.09 131.51 210.52 127.87 203.38 131.51C200.38 133.05 198.16 135.67 195.99 138.23L186.16 149.88C185.417 150.619 184.874 151.534 184.58 152.54C184.3 153.96 185.03 155.37 185.29 156.79C185.75 159.39 184.63 162.17 185.49 164.67C186.92 168.82 191.96 169.4 195.04 171.78C196.19 172.67 197.98 175.67 199.35 175.63C201.78 175.59 203.48 171.18 203.55 169.26Z" fill="#3F3D56"/>
<path d="M268.82 222.87C271.587 222.217 274.46 222.146 277.256 222.662C280.051 223.179 282.709 224.271 285.06 225.87C292.62 231.05 295.73 240.51 298.36 249.29L304.25 268.98C306.83 277.61 309.43 286.32 310.03 295.31C310.58 303.48 309.46 311.66 308.34 319.77C306.79 331 310.44 343.31 310.49 354.64C310.49 367.64 310.41 381.43 303.79 392.64C303.515 391.659 303.008 390.759 302.312 390.016C301.616 389.273 300.751 388.708 299.79 388.37C297.874 387.716 295.865 387.378 293.84 387.37L276.24 386.24C277.74 383.706 279.031 381.054 280.1 378.31C286.85 360.97 284.26 341.59 281.57 323.19C281.358 321.436 281.024 319.698 280.57 317.99C278.796 311.426 278.391 304.567 279.38 297.84C279.783 294.798 279.887 291.723 279.69 288.66C279.66 287.367 279.385 286.091 278.88 284.9C278.362 283.92 277.709 283.018 276.94 282.22L273.38 278.22C273.09 266.12 271.19 253.93 269.31 241.97C268.398 235.645 268.233 229.234 268.82 222.87V222.87Z" fill="#2524E9"/>
<path d="M234.24 276.3C217.145 263.035 205.757 243.746 202.4 222.37C201.82 218.58 200.31 213.63 196.48 213.76C195.32 213.883 194.204 214.273 193.22 214.9L179.34 222.34C178.348 222.743 177.503 223.441 176.92 224.34C176.01 226.12 177.3 228.17 178.41 229.83C185.88 241.13 186.41 255.48 186.71 269.02C186.8 273.02 186.83 277.23 184.9 280.73C183.33 283.56 180.6 285.64 179.16 288.55C177.81 291.28 177.75 294.44 177.71 297.49C177.43 319.25 177.15 341.04 178.29 362.78C178.46 366.06 178.72 369.5 180.47 372.28C182.1 374.85 184.79 376.51 187.39 378.08L208.44 390.8C212.44 393.23 216.6 395.7 221.23 396.48C225.86 397.26 231.15 395.94 233.81 392.07C235.1 390.19 235.67 387.9 236.91 385.99C238.15 384.08 240.52 382.53 242.63 383.38C244.13 383.98 244.95 385.55 245.63 387C246.97 389.77 248.37 392.61 250.56 394.78C252.75 396.95 255.92 398.41 258.93 397.78C261.53 397.21 263.56 395.24 265.43 393.36C271.21 387.57 277.05 381.7 281.3 374.69C281.912 373.875 282.229 372.878 282.2 371.86C281.927 370.869 281.392 369.971 280.65 369.26C277.99 366 276.94 361.73 276.15 357.59C268.24 315.99 279.41 272.75 273.26 230.85C272.56 226.05 271.02 221.64 267.42 218.39C263.82 215.14 259.34 213.07 254.93 211.05C253.48 210.39 251.82 209.71 250.34 210.31C247.89 211.31 247.88 214.68 248.06 217.31C248.268 222.7 248.001 228.097 247.26 233.44L245.11 253.23C244.905 256.253 244.341 259.24 243.43 262.13C241.539 267.518 238.388 272.376 234.24 276.3V276.3Z" fill="#4D8AF0"/>
<path d="M111.63 119.07C111.63 119.07 104 125.27 94.9899 109.01C85.9799 92.75 42.4699 53.67 42.4699 53.67C42.4699 53.67 36.8399 48.52 58.2299 39.94C79.6199 31.36 108.83 0 108.83 0C108.83 0 157.57 43.33 162.34 64.79C167.11 86.25 156.67 89.89 138.75 101.29C120.83 112.69 111.63 119.07 111.63 119.07Z" fill="#F59B66"/>
<path d="M251.32 326.59L128.32 104.92L138.76 101.29L259.68 322C259.984 322.559 260.174 323.174 260.238 323.807C260.302 324.441 260.239 325.081 260.053 325.69C259.867 326.299 259.561 326.865 259.154 327.354C258.746 327.843 258.245 328.247 257.68 328.54C256.575 329.107 255.292 329.221 254.104 328.857C252.916 328.492 251.917 327.679 251.32 326.59V326.59Z" fill="#F59B66"/>
<path d="M200.81 270C204.03 263.11 200.73 255.16 198.53 247.88C196.777 242.094 195.733 236.117 195.42 230.08C195.21 228.181 195.422 226.258 196.04 224.45C196.367 223.553 196.944 222.769 197.702 222.19C198.461 221.61 199.369 221.26 200.32 221.18C203.192 225.476 204.338 230.697 203.53 235.8C205.393 235.32 207.283 234.949 209.19 234.69C211.662 234.358 214.172 234.909 216.278 236.246C218.384 237.584 219.95 239.621 220.7 242C223.87 252.16 224.95 263 220.53 272.5C219.121 275.312 217.486 278.004 215.64 280.55L206 294.63C205.34 295.63 204.53 296.63 203.37 296.8C202.21 296.97 201 295.92 200.15 294.95C197.22 291.64 192.02 286.82 192.59 282.26C193.16 277.7 198.89 274.05 200.81 270Z" fill="#FFC0C6"/>
<path d="M178.53 227.53C168.74 226.42 157.53 229.07 152.41 237.53C149.84 241.8 149.2 246.92 148.75 251.88C148.12 258.83 147.75 265.8 147.4 272.76L145.51 309.4C145.28 313.78 145.06 318.17 144.98 322.55C144.752 325.974 145.121 329.412 146.07 332.71C147.28 336.26 149.68 339.26 152.07 342.18C154.46 345.1 157.45 348.11 160.96 347.26C162.396 346.786 163.701 345.981 164.77 344.91L172.77 337.99C178.21 333.32 183.71 328.58 187.85 322.72C189.85 319.9 191.49 316.85 193.51 314.05C199.45 305.81 208.59 299.56 211.72 289.9C208.72 289.74 204.36 288.75 202.98 286.09C202.25 284.68 202.15 283 201.34 281.65C200.11 279.59 197.34 278.47 196.93 276.11C189.07 282.44 182.49 289.79 176.21 297.68L178.76 287.77C178.938 286.839 179.325 285.961 179.89 285.2C180.785 284.417 181.797 283.779 182.89 283.31C186 281.43 187.18 277.54 187.81 273.96C190.621 257.868 187.311 241.306 178.53 227.53Z" fill="#2524E9"/>
</g>
<defs>
<clipPath id="clip0">
<rect width="853.78" height="726" fill="white"/>
</clipPath>
</defs>
</svg>
