
      <svg
        width="117"
        height="35"
        viewBox="0 0 117 35"
        fill="none"
        xmlns="http://www.w3.org/2000/svg"
      >
        <path
          d="M14.55 9.43C16.8 9.43 18.84 9.955 20.67 11.005C22.53 12.025 23.985 13.48 25.035 15.37C26.085 17.23 26.61 19.405 26.61 21.895C26.61 24.385 26.085 26.575 25.035 28.465C23.985 30.325 22.53 31.78 20.67 32.83C18.84 33.85 16.8 34.36 14.55 34.36C11.22 34.36 8.685 33.31 6.945 31.21V34H0.24V0.609998H7.26V12.355C9.03 10.405 11.46 9.43 14.55 9.43ZM13.335 28.6C15.135 28.6 16.605 28 17.745 26.8C18.915 25.57 19.5 23.935 19.5 21.895C19.5 19.855 18.915 18.235 17.745 17.035C16.605 15.805 15.135 15.19 13.335 15.19C11.535 15.19 10.05 15.805 8.88 17.035C7.74 18.235 7.17 19.855 7.17 21.895C7.17 23.935 7.74 25.57 8.88 26.8C10.05 28 11.535 28.6 13.335 28.6ZM100.679 24.505L97.3039 27.835V34H90.2839V0.609998H97.3039V19.51L107.564 9.79H115.934L105.854 20.05L116.834 34H108.329L100.679 24.505Z"
          fill="black"
        />
        <path
          d="M42.8293 34.36C40.2793 34.36 37.9843 33.835 35.9443 32.785C33.9343 31.705 32.3593 30.22 31.2193 28.33C30.0793 26.44 29.5093 24.295 29.5093 21.895C29.5093 19.495 30.0793 17.35 31.2193 15.46C32.3593 13.57 33.9343 12.1 35.9443 11.05C37.9843 9.97 40.2793 9.43 42.8293 9.43C45.3793 9.43 47.6593 9.97 49.6693 11.05C51.6793 12.1 53.2543 13.57 54.3943 15.46C55.5343 17.35 56.1043 19.495 56.1043 21.895C56.1043 24.295 55.5343 26.44 54.3943 28.33C53.2543 30.22 51.6793 31.705 49.6693 32.785C47.6593 33.835 45.3793 34.36 42.8293 34.36ZM42.8293 28.6C44.6293 28.6 46.0993 28 47.2393 26.8C48.4093 25.57 48.9943 23.935 48.9943 21.895C48.9943 19.855 48.4093 18.235 47.2393 17.035C46.0993 15.805 44.6293 15.19 42.8293 15.19C41.0293 15.19 39.5443 15.805 38.3743 17.035C37.2043 18.235 36.6193 19.855 36.6193 21.895C36.6193 23.935 37.2043 25.57 38.3743 26.8C39.5443 28 41.0293 28.6 42.8293 28.6ZM72.3166 34.36C69.7666 34.36 67.4716 33.835 65.4316 32.785C63.4216 31.705 61.8466 30.22 60.7066 28.33C59.5666 26.44 58.9966 24.295 58.9966 21.895C58.9966 19.495 59.5666 17.35 60.7066 15.46C61.8466 13.57 63.4216 12.1 65.4316 11.05C67.4716 9.97 69.7666 9.43 72.3166 9.43C74.8666 9.43 77.1466 9.97 79.1566 11.05C81.1666 12.1 82.7416 13.57 83.8816 15.46C85.0216 17.35 85.5916 19.495 85.5916 21.895C85.5916 24.295 85.0216 26.44 83.8816 28.33C82.7416 30.22 81.1666 31.705 79.1566 32.785C77.1466 33.835 74.8666 34.36 72.3166 34.36ZM72.3166 28.6C74.1166 28.6 75.5866 28 76.7266 26.8C77.8966 25.57 78.4816 23.935 78.4816 21.895C78.4816 19.855 77.8966 18.235 76.7266 17.035C75.5866 15.805 74.1166 15.19 72.3166 15.19C70.5166 15.19 69.0316 15.805 67.8616 17.035C66.6916 18.235 66.1066 19.855 66.1066 21.895C66.1066 23.935 66.6916 25.57 67.8616 26.8C69.0316 28 70.5166 28.6 72.3166 28.6Z"
          fill="#2524E9"
        />
      </svg>