
      <svg
        width="87"
        height="87"
        viewBox="0 0 87 87"
        fill="none"
        xmlns="http://www.w3.org/2000/svg"
      >
        <g clip-path="url(#clip0)">
          <path
            d="M84.5833 62.8333C84.5833 65.3971 83.5649 67.8558 81.752 69.6687C79.9392 71.4816 77.4804 72.5 74.9167 72.5H12.0833C9.51958 72.5 7.06082 71.4816 5.24797 69.6687C3.43512 67.8558 2.41667 65.3971 2.41667 62.8333L2.41667 15.2564C2.41667 9.918 16.4116 0 21.75 0L71.5938 0C79.0709 0 84.5833 5.58733 84.5833 12.9896V62.8333Z"
            fill="#1C1BD5"
          />
          <path
            d="M79.75 72.5C79.75 75.0637 78.7316 77.5225 76.9187 79.3353C75.1059 81.1482 72.6471 82.1666 70.0833 82.1666H16.9167C14.3529 82.1666 11.8942 81.1482 10.0813 79.3353C8.26845 77.5225 7.25 75.0637 7.25 72.5L7.25 14.5C7.25 4.54573 7.19925 4.83332 19.3333 4.83332L70.0833 4.83332C72.6471 4.83332 75.1059 5.85177 76.9187 7.66462C78.7316 9.47747 79.75 11.9362 79.75 14.5V72.5Z"
            fill="#CCD6DD"
          />
          <path
            d="M74.9167 74.9167C74.9167 76.8395 74.1528 78.6836 72.7932 80.0432C71.4336 81.4028 69.5895 82.1667 67.6667 82.1667H9.66667C7.74385 82.1667 5.89979 81.4028 4.54015 80.0432C3.18051 78.6836 2.41667 76.8395 2.41667 74.9167L2.41667 16.9167C2.41667 14.9939 3.18051 13.1498 4.54015 11.7902C5.89979 10.4305 7.74385 9.66669 9.66667 9.66669L67.6667 9.66669C69.5895 9.66669 71.4336 10.4305 72.7932 11.7902C74.1528 13.1498 74.9167 14.9939 74.9167 16.9167V74.9167Z"
            fill="#E1E8ED"
          />
          <path
            d="M74.9167 77.3333C74.9167 79.8971 73.8982 82.3558 72.0854 84.1687C70.2725 85.9816 67.8138 87 65.25 87H14.5C11.9362 87 9.47748 85.9816 7.66463 84.1687C5.85178 82.3558 4.83333 79.8971 4.83333 77.3333L4.83333 24.1667C4.83333 21.6029 5.85178 19.1442 7.66463 17.3313C9.47748 15.5184 11.9362 14.5 14.5 14.5L65.25 14.5C67.8138 14.5 70.2725 15.5184 72.0854 17.3313C73.8982 19.1442 74.9167 21.6029 74.9167 24.1667V77.3333Z"
            fill="#2524E9"
          />
          <path
            d="M70.0833 77.3333C70.0833 79.8971 69.0649 82.3558 67.252 84.1687C65.4392 85.9815 62.9804 87 60.4167 87H14.5C11.9362 87 9.47748 85.9815 7.66463 84.1687C5.85178 82.3558 4.83333 79.8971 4.83333 77.3333L4.83333 29C4.83333 26.4362 5.85178 23.9775 7.66463 22.1646C9.47748 20.3518 11.9362 19.3333 14.5 19.3333L61.2263 19.3333C66.5647 19.3333 70.0833 22.852 70.0833 28.1904V77.3333Z"
            fill="#2524E9"
          />
          <path
            d="M14.5 14.5C10.4207 14.5 10.3168 9.85517 12.0833 7.85417C14.094 5.58008 17.2188 4.83333 22.8085 4.83333L26.5833 4.83333V0L20.0124 0C10.4207 0 2.41667 6.04167 2.41667 12.9896L2.41667 77.3333C2.41667 79.8971 3.43512 82.3558 5.24797 84.1687C7.06082 85.9816 9.51958 87 12.0833 87H16.9167L16.9167 14.5H14.5Z"
            fill="#1C1BD5"
          />
          <path
            d="M56.895 63.0981L49.9117 55.9311C51.593 53.634 52.5006 50.838 52.4975 47.965C52.4975 40.6266 46.6802 34.6562 39.53 34.6562C32.3798 34.6562 26.5625 40.6266 26.5625 47.965C26.5625 55.3034 32.3798 61.2738 39.53 61.2738C42.3293 61.2769 45.0536 60.3454 47.2918 58.6199L54.275 65.7869C54.6285 66.1112 55.0896 66.2844 55.5635 66.2707C56.0375 66.2571 56.4884 66.0578 56.8236 65.7137C57.1589 65.3696 57.3531 64.9069 57.3664 64.4205C57.3796 63.934 57.211 63.4609 56.895 63.0981V63.0981ZM30.2675 47.965C30.2675 46.0848 30.8107 44.2469 31.8285 42.6836C32.8463 41.1203 34.2929 39.9019 35.9854 39.1824C37.6779 38.4629 39.5403 38.2746 41.337 38.6414C43.1338 39.0082 44.7842 39.9136 46.0796 41.2431C47.375 42.5725 48.2571 44.2664 48.6145 46.1104C48.9719 47.9545 48.7885 49.8658 48.0874 51.6029C47.3864 53.3399 46.1992 54.8246 44.676 55.8692C43.1528 56.9137 41.3619 57.4712 39.53 57.4712C37.0743 57.4682 34.7201 56.4657 32.9837 54.6836C31.2473 52.9015 30.2704 50.4853 30.2675 47.965V47.965Z"
            fill="white"
          />
        </g>
        <defs>
          <clipPath id="clip0">
            <rect width="87" height="87" fill="white" />
          </clipPath>
        </defs>
      </svg>
