 <svg
        width="199"
        height="19"
        viewBox="0 0 199 19"
        fill="none"
        xmlns="http://www.w3.org/2000/svg"
      >
        <path
          d="M6.675 18.15C5.375 18.15 4.125 17.9417 2.925 17.525C1.74167 17.1083 0.825 16.5583 0.175 15.875L0.9 14.45C1.53333 15.0833 2.375 15.6 3.425 16C4.475 16.3833 5.55833 16.575 6.675 16.575C8.24167 16.575 9.41667 16.2917 10.2 15.725C10.9833 15.1417 11.375 14.3917 11.375 13.475C11.375 12.775 11.1583 12.2167 10.725 11.8C10.3083 11.3833 9.79167 11.0667 9.175 10.85C8.55833 10.6167 7.7 10.3667 6.6 10.1C5.28333 9.76667 4.23333 9.45 3.45 9.15C2.66667 8.83333 1.99167 8.35833 1.425 7.725C0.875 7.09167 0.6 6.23333 0.6 5.15C0.6 4.26667 0.833333 3.46667 1.3 2.75C1.76667 2.01667 2.48333 1.43333 3.45 1C4.41667 0.566666 5.61667 0.349999 7.05 0.349999C8.05 0.349999 9.025 0.491666 9.975 0.775C10.9417 1.04167 11.775 1.41667 12.475 1.9L11.85 3.375C11.1167 2.89167 10.3333 2.53333 9.5 2.3C8.66667 2.05 7.85 1.925 7.05 1.925C5.51667 1.925 4.35833 2.225 3.575 2.825C2.80833 3.40833 2.425 4.16667 2.425 5.1C2.425 5.8 2.63333 6.36667 3.05 6.8C3.48333 7.21667 4.01667 7.54167 4.65 7.775C5.3 7.99167 6.16667 8.23333 7.25 8.5C8.53333 8.81667 9.56667 9.13333 10.35 9.45C11.15 9.75 11.825 10.2167 12.375 10.85C12.925 11.4667 13.2 12.3083 13.2 13.375C13.2 14.2583 12.9583 15.0667 12.475 15.8C12.0083 16.5167 11.2833 17.0917 10.3 17.525C9.31667 17.9417 8.10833 18.15 6.675 18.15ZM38.1059 16.4V18H25.7309V0.499999H37.7309V2.1H27.5809V8.325H36.6309V9.9H27.5809V16.4H38.1059ZM61.9295 13.325H52.1795L50.0795 18H48.1545L56.1545 0.499999H57.9795L65.9795 18H64.0295L61.9295 13.325ZM61.2545 11.825L57.0545 2.425L52.8545 11.825H61.2545ZM89.3244 18L85.3244 12.375C84.8744 12.425 84.4077 12.45 83.9244 12.45H79.2244V18H77.3744V0.499999H83.9244C86.1577 0.499999 87.9077 1.03333 89.1744 2.1C90.4411 3.16667 91.0744 4.63333 91.0744 6.5C91.0744 7.86667 90.7244 9.025 90.0244 9.975C89.3411 10.9083 88.3577 11.5833 87.0744 12L91.3494 18H89.3244ZM83.8744 10.875C85.6077 10.875 86.9327 10.4917 87.8494 9.725C88.7661 8.95833 89.2244 7.88333 89.2244 6.5C89.2244 5.08333 88.7661 4 87.8494 3.25C86.9327 2.48333 85.6077 2.1 83.8744 2.1H79.2244V10.875H83.8744ZM111.541 18.15C109.807 18.15 108.241 17.7667 106.841 17C105.457 16.2333 104.366 15.175 103.566 13.825C102.782 12.4583 102.391 10.9333 102.391 9.25C102.391 7.56667 102.782 6.05 103.566 4.7C104.366 3.33333 105.466 2.26667 106.866 1.5C108.266 0.733333 109.832 0.349999 111.566 0.349999C112.866 0.349999 114.066 0.566666 115.166 1C116.266 1.43333 117.199 2.06667 117.966 2.9L116.791 4.075C115.424 2.69167 113.699 2 111.616 2C110.232 2 108.974 2.31667 107.841 2.95C106.707 3.58333 105.816 4.45 105.166 5.55C104.532 6.65 104.216 7.88333 104.216 9.25C104.216 10.6167 104.532 11.85 105.166 12.95C105.816 14.05 106.707 14.9167 107.841 15.55C108.974 16.1833 110.232 16.5 111.616 16.5C113.716 16.5 115.441 15.8 116.791 14.4L117.966 15.575C117.199 16.4083 116.257 17.05 115.141 17.5C114.041 17.9333 112.841 18.15 111.541 18.15ZM145.035 0.499999V18H143.21V9.925H132.26V18H130.41V0.499999H132.26V8.3H143.21V0.499999H145.035ZM171.621 16.4V18H159.246V0.499999H171.246V2.1H161.096V8.325H170.146V9.9H161.096V16.4H171.621ZM196.42 18L192.42 12.375C191.97 12.425 191.503 12.45 191.02 12.45H186.32V18H184.47V0.499999H191.02C193.253 0.499999 195.003 1.03333 196.27 2.1C197.537 3.16667 198.17 4.63333 198.17 6.5C198.17 7.86667 197.82 9.025 197.12 9.975C196.437 10.9083 195.453 11.5833 194.17 12L198.445 18H196.42ZM190.97 10.875C192.703 10.875 194.028 10.4917 194.945 9.725C195.862 8.95833 196.32 7.88333 196.32 6.5C196.32 5.08333 195.862 4 194.945 3.25C194.028 2.48333 192.703 2.1 190.97 2.1H186.32V10.875H190.97Z"
          fill="black"
        />
      </svg>