<svg width="56" height="56" viewBox="0 0 56 56" fill="none" xmlns="http://www.w3.org/2000/svg">
<path d="M28 0C12.5375 0 0 12.5375 0 28C0 43.4625 12.5375 56 28 56C43.4625 56 56 43.4625 56 28C56 12.5375 43.4625 0 28 0ZM28 51.25C15.1625 51.25 4.75 40.8375 4.75 28C4.75 15.1625 15.1625 4.75 28 4.75C40.8375 4.75 51.25 15.1625 51.25 28C51.25 40.8375 40.8375 51.25 28 51.25Z" fill="white"/>
<path d="M25 17C25 17.7956 25.3161 18.5587 25.8787 19.1213C26.4413 19.6839 27.2044 20 28 20C28.7956 20 29.5587 19.6839 30.1213 19.1213C30.6839 18.5587 31 17.7956 31 17C31 16.2044 30.6839 15.4413 30.1213 14.8787C29.5587 14.3161 28.7956 14 28 14C27.2044 14 26.4413 14.3161 25.8787 14.8787C25.3161 15.4413 25 16.2044 25 17V17ZM29.5 24H26.5C26.225 24 26 24.225 26 24.5V41.5C26 41.775 26.225 42 26.5 42H29.5C29.775 42 30 41.775 30 41.5V24.5C30 24.225 29.775 24 29.5 24Z" fill="white"/>
</svg>
