<svg width="65" height="65" viewBox="0 0 329 329" fill="none" xmlns="http://www.w3.org/2000/svg">
<g clip-path="url(#clip0)">
<path d="M164.5 20.5625C85.0131 20.5625 20.5625 85.0131 20.5625 164.5C20.5625 243.987 85.0131 308.438 164.5 308.438C243.987 308.438 308.438 243.987 308.438 164.5C308.438 85.0131 243.987 20.5625 164.5 20.5625ZM174.781 233.898C174.781 235.312 173.625 236.469 172.211 236.469H156.789C155.375 236.469 154.219 235.312 154.219 233.898V146.508C154.219 145.094 155.375 143.938 156.789 143.938H172.211C173.625 143.938 174.781 145.094 174.781 146.508V233.898ZM164.5 123.375C160.464 123.293 156.622 121.632 153.797 118.748C150.972 115.865 149.39 111.99 149.39 107.953C149.39 103.917 150.972 100.041 153.797 97.1578C156.622 94.2746 160.464 92.6136 164.5 92.5312C168.536 92.6136 172.378 94.2746 175.203 97.1578C178.028 100.041 179.61 103.917 179.61 107.953C179.61 111.99 178.028 115.865 175.203 118.748C172.378 121.632 168.536 123.293 164.5 123.375Z" fill="#0466c8"/>
</g>
<defs>
<clipPath id="clip0">
<rect width="329" height="329" fill="white"/>
</clipPath>
</defs>
</svg>
