<svg width="53" height="53" viewBox="0 0 50 50" fill="none" xmlns="http://www.w3.org/2000/svg">
<path d="M25 0C38.8075 0 50 11.195 50 25C50 38.805 38.8075 50 25 50C11.1925 50 0 38.805 0 25C0 11.195 11.1925 0 25 0ZM25 4.1675C13.5125 4.1675 4.1675 13.5125 4.1675 25C4.1675 36.4875 13.5125 45.8325 25 45.8325C36.4875 45.8325 45.8325 36.4875 45.8325 25C45.8325 13.5125 36.4875 4.1675 25 4.1675V4.1675ZM25 33.75C25.663 33.75 26.2989 34.0134 26.7678 34.4822C27.2366 34.9511 27.5 35.587 27.5 36.25C27.5 36.913 27.2366 37.5489 26.7678 38.0178C26.2989 38.4866 25.663 38.75 25 38.75C24.337 38.75 23.7011 38.4866 23.2322 38.0178C22.7634 37.5489 22.5 36.913 22.5 36.25C22.5 35.587 22.7634 34.9511 23.2322 34.4822C23.7011 34.0134 24.337 33.75 25 33.75V33.75ZM25 11.875C26.8234 11.875 28.5721 12.5993 29.8614 13.8886C31.1507 15.178 31.875 16.9266 31.875 18.75C31.875 21.275 31.1325 22.685 29.2475 24.6475L28.825 25.075C27.27 26.63 26.875 27.29 26.875 28.75C26.875 29.2473 26.6775 29.7242 26.3258 30.0758C25.9742 30.4275 25.4973 30.625 25 30.625C24.5027 30.625 24.0258 30.4275 23.6742 30.0758C23.3225 29.7242 23.125 29.2473 23.125 28.75C23.125 26.225 23.8675 24.815 25.7525 22.8525L26.175 22.425C27.73 20.87 28.125 20.21 28.125 18.75C28.1224 17.9507 27.8136 17.1828 27.2622 16.6041C26.7107 16.0255 25.9585 15.6802 25.1603 15.6392C24.362 15.5982 23.5784 15.8647 22.9706 16.3838C22.3627 16.9029 21.9769 17.6352 21.8925 18.43L21.875 18.75C21.875 19.2473 21.6775 19.7242 21.3258 20.0758C20.9742 20.4275 20.4973 20.625 20 20.625C19.5027 20.625 19.0258 20.4275 18.6742 20.0758C18.3225 19.7242 18.125 19.2473 18.125 18.75C18.125 16.9266 18.8493 15.178 20.1386 13.8886C21.428 12.5993 23.1766 11.875 25 11.875V11.875Z" fill="white"/>
</svg>
