<svg width="57" height="57" viewBox="0 0 51 51" fill="none" xmlns="http://www.w3.org/2000/svg">
<path d="M25.3333 0C20.3229 0 15.4249 1.48577 11.2589 4.26944C7.09285 7.0531 3.84582 11.0096 1.9284 15.6387C0.0109765 20.2677 -0.490708 25.3614 0.486784 30.2756C1.46428 35.1898 3.87704 39.7038 7.41997 43.2467C10.9629 46.7896 15.4769 49.2024 20.3911 50.1799C25.3052 51.1574 30.3989 50.6557 35.028 48.7383C39.6571 46.8209 43.6136 43.5738 46.3972 39.4078C49.1809 35.2417 50.6667 30.3438 50.6667 25.3333C50.6667 18.6145 47.9976 12.1709 43.2467 7.41996C38.4958 2.66904 32.0522 0 25.3333 0V0ZM25.3333 47.5C20.9492 47.5 16.6635 46.2 13.0182 43.7642C9.37292 41.3285 6.53176 37.8666 4.85402 33.8162C3.17627 29.7657 2.7373 25.3087 3.5926 21.0088C4.44791 16.7089 6.55908 12.7592 9.65914 9.65913C12.7592 6.55907 16.7089 4.4479 21.0088 3.59259C25.3088 2.73729 29.7657 3.17626 33.8162 4.854C37.8666 6.53175 41.3286 9.3729 43.7643 13.0182C46.2 16.6635 47.5 20.9492 47.5 25.3333C47.5 31.2123 45.1646 36.8505 41.0075 41.0075C36.8505 45.1646 31.2123 47.5 25.3333 47.5Z" fill="white"/>
<path d="M41.1668 15.9916C40.8701 15.6967 40.4688 15.5312 40.0505 15.5312C39.6322 15.5312 39.2309 15.6967 38.9343 15.9916L21.3593 33.4874L11.8593 23.9874C11.5695 23.6746 11.1674 23.4897 10.7413 23.4733C10.3152 23.457 9.90003 23.6106 9.58719 23.9004C9.27434 24.1901 9.08941 24.5923 9.07308 25.0184C9.05675 25.4445 9.21035 25.8596 9.5001 26.1724L21.3593 37.9999L41.1668 18.2399C41.3152 18.0928 41.433 17.9176 41.5133 17.7247C41.5937 17.5317 41.6351 17.3248 41.6351 17.1158C41.6351 16.9068 41.5937 16.6998 41.5133 16.5069C41.433 16.3139 41.3152 16.1388 41.1668 15.9916Z" fill="white"/>
</svg>
