<svg width="59" height="54" viewBox="0 0 59 54" fill="none" xmlns="http://www.w3.org/2000/svg">
<path d="M26.0079 0.821358C27.4592 0.0177555 29.161 -0.206373 30.7709 0.194069C32.3808 0.594511 33.7793 1.58981 34.685 2.97969L34.9271 3.38219L57.5575 44.2418C58.0918 45.2074 58.3739 46.2921 58.3778 47.3957C58.3818 48.4993 58.1073 49.586 57.5799 50.5554C57.0525 51.5248 56.2891 52.3455 55.3604 52.9416C54.4317 53.5377 53.3676 53.8901 52.2667 53.9659L51.8175 53.9834H6.56249C5.46011 53.9834 4.37549 53.7057 3.40875 53.176C2.44201 52.6462 1.6243 51.8814 1.03111 50.9522C0.437912 50.0231 0.0883453 48.9594 0.0146728 47.8595C-0.0589996 46.7596 0.145597 45.6588 0.609577 44.6589L0.819577 44.2418L23.4442 3.38219C24.0407 2.30528 24.9281 1.41787 26.005 0.821358H26.0079ZM53.7308 46.3593L31.0975 5.50261C30.9207 5.18426 30.6672 4.91509 30.36 4.71952C30.0528 4.52395 29.7016 4.40817 29.3383 4.38268C28.9751 4.35719 28.6112 4.42279 28.2797 4.57354C27.9482 4.72429 27.6596 4.95541 27.44 5.24594L27.2737 5.50261L4.64916 46.3593C4.4757 46.6718 4.38144 47.022 4.37464 47.3793C4.36784 47.7367 4.44869 48.0902 4.61014 48.4091C4.77159 48.728 5.0087 49.0024 5.30075 49.2084C5.59279 49.4145 5.93087 49.5458 6.28541 49.5909L6.56249 49.6084H51.8175C52.1747 49.6082 52.5264 49.5204 52.8418 49.3529C53.1573 49.1854 53.427 48.9431 53.6272 48.6473C53.8275 48.3516 53.9522 48.0112 53.9906 47.6561C54.029 47.301 53.9799 46.9419 53.8475 46.6101L53.7308 46.3593L31.0975 5.50261L53.7308 46.3593V46.3593ZM29.1871 39.3797C29.5773 39.3673 29.966 39.4335 30.3301 39.5743C30.6942 39.7151 31.0264 39.9277 31.3067 40.1993C31.5871 40.471 31.8101 40.7962 31.9623 41.1557C32.1146 41.5152 32.193 41.9016 32.193 42.292C32.193 42.6824 32.1146 43.0688 31.9623 43.4283C31.8101 43.7878 31.5871 44.113 31.3067 44.3846C31.0264 44.6563 30.6942 44.8688 30.3301 45.0096C29.966 45.1504 29.5773 45.2166 29.1871 45.2043C28.4306 45.1803 27.7132 44.863 27.1866 44.3195C26.66 43.7759 26.3655 43.0488 26.3655 42.292C26.3655 41.5352 26.66 40.808 27.1866 40.2645C27.7132 39.721 28.4306 39.4036 29.1871 39.3797V39.3797ZM29.1725 17.4989C29.7012 17.4981 30.2122 17.6888 30.6112 18.0357C31.0101 18.3826 31.2699 18.8623 31.3425 19.3859L31.3629 19.6834L31.3746 32.8143C31.3811 33.3727 31.1737 33.9126 30.795 34.323C30.4163 34.7335 29.8949 34.9836 29.3377 35.022C28.7805 35.0604 28.2297 34.8843 27.7982 34.5296C27.3668 34.175 27.0873 33.6688 27.0171 33.1147L26.9996 32.8172L26.9879 19.6864C26.9879 19.1062 27.2184 18.5498 27.6286 18.1396C28.0389 17.7293 28.5953 17.4989 29.1754 17.4989H29.1725Z" fill="white"/>
</svg>
