<svg
            width="30"
            height="30"
            viewBox="0 0 24 24"
            fill="none"
            xmlns="http://www.w3.org/2000/svg"
          >
            <path
              d="M6.22499 4.81099C6.03639 4.62883 5.78378 4.52803 5.52159 4.53031C5.25939 4.53259 5.00858 4.63776 4.82317 4.82317C4.63776 5.00858 4.53259 5.25939 4.53031 5.52158C4.52804 5.78378 4.62883 6.03638 4.81099 6.22499L10.586 12L4.80999 17.775C4.71448 17.8672 4.6383 17.9776 4.58589 18.0996C4.53348 18.2216 4.50589 18.3528 4.50474 18.4856C4.50358 18.6184 4.52889 18.75 4.57917 18.8729C4.62945 18.9958 4.7037 19.1075 4.79759 19.2014C4.89149 19.2953 5.00314 19.3695 5.12603 19.4198C5.24893 19.4701 5.38061 19.4954 5.51339 19.4942C5.64617 19.4931 5.77739 19.4655 5.89939 19.4131C6.0214 19.3607 6.13174 19.2845 6.22399 19.189L12 13.414L17.775 19.189C17.9636 19.3711 18.2162 19.4719 18.4784 19.4697C18.7406 19.4674 18.9914 19.3622 19.1768 19.1768C19.3622 18.9914 19.4674 18.7406 19.4697 18.4784C19.4719 18.2162 19.3711 17.9636 19.189 17.775L13.414 12L19.189 6.22499C19.3711 6.03638 19.4719 5.78378 19.4697 5.52158C19.4674 5.25939 19.3622 5.00858 19.1768 4.82317C18.9914 4.63776 18.7406 4.53259 18.4784 4.53031C18.2162 4.52803 17.9636 4.62883 17.775 4.81099L12 10.586L6.22499 4.80999V4.81099Z"
              fill="#bebebe"
            />
                      </svg>
