<svg width="32" height="32" viewBox="0 0 32 32" fill="none" xmlns="http://www.w3.org/2000/svg">
<path d="M30.7263 25.1013L21.6251 16L30.7263 6.89877C30.9007 6.72224 30.9985 6.4841 30.9985 6.23596C30.9985 5.98782 30.9007 5.74967 30.7263 5.57315L26.4269 1.27377C26.34 1.18652 26.2367 1.11729 26.123 1.07006C26.0092 1.02282 25.8873 0.998505 25.7641 0.998505C25.641 0.998505 25.519 1.02282 25.4053 1.07006C25.2915 1.11729 25.1882 1.18652 25.1013 1.27377L16.0001 10.375L6.8988 1.27377C6.72299 1.09802 6.48458 0.999284 6.23599 0.999284C5.9874 0.999284 5.74898 1.09802 5.57318 1.27377L1.2738 5.57315C1.18655 5.66007 1.11732 5.76337 1.07009 5.87711C1.02285 5.99085 0.998535 6.1128 0.998535 6.23596C0.998535 6.35912 1.02285 6.48107 1.07009 6.59481C1.11732 6.70855 1.18655 6.81185 1.2738 6.89877L10.3751 16L1.2738 25.1013C1.09805 25.2771 0.999314 25.5155 0.999314 25.7641C0.999314 26.0127 1.09805 26.2511 1.2738 26.4269L5.57318 30.7263C5.6601 30.8135 5.7634 30.8828 5.87714 30.93C5.99088 30.9772 6.11283 31.0015 6.23599 31.0015C6.35915 31.0015 6.4811 30.9772 6.59484 30.93C6.70858 30.8828 6.81188 30.8135 6.8988 30.7263L16.0001 21.625L25.1013 30.7263C25.2771 30.902 25.5155 31.0008 25.7641 31.0008C26.0127 31.0008 26.2511 30.902 26.4269 30.7263L30.7263 26.4269C30.8136 26.34 30.8828 26.2367 30.93 26.1229C30.9773 26.0092 31.0016 25.8872 31.0016 25.7641C31.0016 25.6409 30.9773 25.519 30.93 25.4052C30.8828 25.2915 30.8136 25.1882 30.7263 25.1013V25.1013Z" fill="black"/>
</svg>
