<svg width="38" height="30" viewBox="0 0 38 30" fill="none" xmlns="http://www.w3.org/2000/svg">
<path d="M31.8417 0.95646C32.4932 0.336199 33.3602 -0.00670681 34.2597 9.94157e-05C35.1592 0.00690564 36.0209 0.362892 36.663 0.992941C37.305 1.62299 37.6772 2.47782 37.701 3.37706C37.7247 4.27629 37.3983 5.1496 36.7904 5.81269L18.3367 28.8914C18.0194 29.2331 17.6364 29.5074 17.2107 29.6978C16.7849 29.8882 16.3252 29.9908 15.8589 29.9994C15.3926 30.008 14.9293 29.9226 14.4969 29.7481C14.0644 29.5736 13.6715 29.3137 13.3417 28.9839L1.10402 16.7462C0.763222 16.4286 0.489876 16.0456 0.300289 15.6202C0.110701 15.1947 0.00875743 14.7353 0.000539827 14.2696C-0.00767777 13.8038 0.0779995 13.3412 0.252459 12.9093C0.426918 12.4774 0.686585 12.085 1.01597 11.7556C1.34536 11.4262 1.73771 11.1666 2.16963 10.9921C2.60155 10.8177 3.06418 10.732 3.52993 10.7402C3.99568 10.7484 4.455 10.8504 4.8805 11.0399C5.30599 11.2295 5.68894 11.5029 6.0065 11.8437L15.6912 21.5238L31.7538 1.05821C31.7827 1.0226 31.8136 0.988632 31.8463 0.95646H31.8417Z" fill="black"/>
</svg>
